<?xml version="1.0" encoding="utf-8"?>
<!-- Generator: Adobe Illustrator 16.0.0, SVG Export Plug-In . SVG Version: 6.00 Build 0)  -->
<!DOCTYPE svg PUBLIC "-//W3C//DTD SVG 1.1//EN" "http://www.w3.org/Graphics/SVG/1.1/DTD/svg11.dtd">
<svg version="1.1" id="Layer_1" xmlns="http://www.w3.org/2000/svg" xmlns:xlink="http://www.w3.org/1999/xlink" x="0px" y="0px"
	 width="178px" height="94px" viewBox="0 0 178 94" enable-background="new 0 0 178 94" xml:space="preserve">
<g>
	<rect x="0.235" y="1.139" fill="#FFFFFF" width="177.529" height="91.694"/>
	<rect x="0.235" y="1.139" fill="#FFFFFF" width="177.529" height="91.694"/>
	<path fill="#333E48" d="M7.271,80.612l0.152-0.014c-0.186-1.982-0.562-3.381-1.28-4.357c-0.72-0.979-1.779-1.51-3.251-1.762
		l-0.025,0.15H3.02c0-0.068,0-0.254,0-0.41H2.867l0.025,0.15c1.471-0.252,2.528-0.779,3.248-1.758
		c0.719-0.977,1.096-2.369,1.284-4.346l-0.152-0.014l0.01,0.152c0.031-0.002,0.099-0.004,0.164-0.004l0.125,0.002l0.004-0.152
		l-0.152,0.014c0.186,1.977,0.562,3.371,1.282,4.348c0.72,0.979,1.778,1.506,3.25,1.758l0.026-0.15h-0.153v0.041
		c0,0.146-0.005,0.262-0.011,0.365l0.153,0.008l-0.026-0.15c-1.469,0.252-2.526,0.781-3.244,1.762
		c-0.718,0.977-1.094,2.375-1.278,4.354l0.152,0.016L7.57,80.46H7.546c-0.076,0.002-0.095-0.006-0.171-0.006L7.259,80.46
		L7.271,80.612l0.152-0.014L7.271,80.612l0.013,0.152l0.091-0.006c0.042,0,0.073,0.008,0.171,0.008h0.029l0.138-0.002l0.012-0.137
		c0.181-1.957,0.555-3.301,1.22-4.201c0.664-0.902,1.623-1.395,3.05-1.643l0.12-0.021l0.006-0.121
		c0.005-0.104,0.011-0.227,0.011-0.381v-0.043l0-0.129l-0.126-0.02c-1.431-0.248-2.391-0.74-3.056-1.639
		c-0.666-0.9-1.04-2.24-1.223-4.193l-0.013-0.135l-0.136-0.004l-0.133-0.002c-0.069,0-0.137,0-0.184,0.004l-0.13,0.008L7.12,68.239
		c-0.185,1.951-0.56,3.293-1.226,4.191s-1.624,1.391-3.054,1.639l-0.127,0.021v0.129c0,0.156,0,0.342,0,0.41v0.129l0.127,0.023
		c1.433,0.248,2.392,0.738,3.057,1.641c0.666,0.902,1.04,2.244,1.222,4.203l0.014,0.15l0.151-0.012L7.271,80.612z"/>
	<polygon fill="#333E48" points="7.422,73.247 7.319,73.36 8.494,74.427 7.422,75.399 6.352,74.427 7.524,73.36 7.422,73.247 
		7.319,73.36 7.422,73.247 7.319,73.134 5.897,74.427 7.422,75.812 8.949,74.427 7.422,73.04 7.319,73.134 	"/>
	<polyline fill="#333E48" points="2.919,68.374 12.128,68.374 12.128,68.067 2.919,68.067 	"/>
	<polyline fill="#333E48" points="2.919,80.796 12.128,80.796 12.128,80.491 2.919,80.491 	"/>
	<polyline fill="#333E48" points="3.015,81.29 3.015,67.573 2.708,67.573 2.708,81.29 	"/>
	<polyline fill="#333E48" points="0.568,81.29 0.568,67.573 0.263,67.573 0.263,81.29 	"/>
	<polyline fill="#333E48" points="12.159,81.29 12.159,67.573 11.853,67.573 11.853,81.29 	"/>
	<path fill="#333E48" d="M7.271,66.896l0.152-0.014c-0.186-1.982-0.562-3.379-1.28-4.357c-0.72-0.979-1.779-1.508-3.251-1.76
		l-0.025,0.15H3.02c0-0.07,0-0.256,0-0.412H2.867l0.025,0.15c1.471-0.252,2.528-0.779,3.248-1.756
		c0.719-0.977,1.096-2.371,1.284-4.348l-0.152-0.014l0.01,0.152c0.031-0.002,0.099-0.002,0.164-0.002h0.125l0.004-0.152
		l-0.152,0.014c0.186,1.977,0.562,3.373,1.282,4.35c0.72,0.977,1.778,1.504,3.25,1.756l0.026-0.15h-0.153v0.043
		c0,0.145-0.005,0.262-0.011,0.363l0.153,0.008l-0.026-0.15c-1.469,0.252-2.526,0.783-3.244,1.762
		c-0.718,0.979-1.094,2.375-1.278,4.355l0.152,0.014l-0.002-0.152H7.552c-0.082,0-0.099-0.006-0.177-0.008l-0.116,0.006
		L7.271,66.896l0.152-0.014L7.271,66.896l0.013,0.152l0.091-0.004c0.042-0.002,0.074,0.006,0.177,0.006h0.022h0.138l0.013-0.139
		c0.181-1.957,0.555-3.299,1.22-4.201c0.664-0.9,1.623-1.393,3.05-1.643l0.12-0.021l0.006-0.121
		c0.005-0.104,0.011-0.227,0.011-0.379v-0.045l0-0.127l-0.126-0.021c-1.431-0.248-2.391-0.738-3.056-1.639
		c-0.666-0.898-1.04-2.24-1.223-4.193l-0.013-0.135l-0.136-0.004L7.445,54.38c-0.069,0-0.137,0.002-0.184,0.004l-0.13,0.01
		L7.12,54.522c-0.185,1.953-0.56,3.293-1.226,4.193c-0.666,0.898-1.624,1.389-3.054,1.637l-0.127,0.021v0.129
		c0,0.156,0,0.342,0,0.412v0.129l0.127,0.021c1.433,0.248,2.392,0.74,3.057,1.641c0.666,0.902,1.04,2.246,1.222,4.203l0.014,0.15
		l0.151-0.012L7.271,66.896z"/>
	<polygon fill="#333E48" points="7.422,59.53 7.319,59.644 8.494,60.71 7.422,61.683 6.352,60.71 7.524,59.644 7.422,59.53 
		7.319,59.644 7.422,59.53 7.319,59.417 5.897,60.71 7.422,62.097 8.949,60.71 7.422,59.323 7.319,59.417 	"/>
	<polyline fill="#333E48" points="2.919,54.657 12.128,54.657 12.128,54.351 2.919,54.351 	"/>
	<polyline fill="#333E48" points="2.919,67.081 12.128,67.081 12.128,66.774 2.919,66.774 	"/>
	<polyline fill="#333E48" points="3.015,67.573 3.015,53.856 2.708,53.856 2.708,67.573 	"/>
	<polyline fill="#333E48" points="0.568,67.573 0.568,53.856 0.263,53.856 0.263,67.573 	"/>
	<polyline fill="#333E48" points="12.159,67.573 12.159,53.856 11.853,53.856 11.853,67.573 	"/>
	<path fill="#333E48" d="M7.271,53.179l0.152-0.014c-0.186-1.98-0.562-3.377-1.28-4.354c-0.72-0.98-1.779-1.51-3.251-1.762
		l-0.025,0.15H3.02c0-0.069,0-0.255,0-0.412H2.867l0.025,0.151c1.471-0.252,2.528-0.78,3.248-1.757
		c0.719-0.976,1.096-2.37,1.284-4.345l-0.152-0.015l0.009,0.153c0.033-0.002,0.102-0.003,0.167-0.003l0.123,0.001l0.003-0.153
		l-0.152,0.015c0.186,1.977,0.562,3.371,1.282,4.347c0.72,0.978,1.778,1.506,3.25,1.757l0.026-0.151l-0.153,0.001v0.041
		c0,0.147-0.005,0.263-0.011,0.363l0.153,0.009l-0.026-0.15c-1.469,0.253-2.526,0.784-3.244,1.762
		c-0.718,0.979-1.094,2.376-1.278,4.354l0.152,0.016L7.57,53.028H7.547c-0.078,0.002-0.095-0.006-0.173-0.006l-0.115,0.006
		L7.271,53.179l0.152-0.014L7.271,53.179l0.013,0.152l0.089-0.004c0.042,0,0.073,0.008,0.173,0.008h0.028l0.138-0.002l0.012-0.137
		c0.181-1.957,0.555-3.301,1.22-4.203c0.664-0.899,1.623-1.392,3.05-1.641l0.12-0.021l0.006-0.121
		c0.005-0.104,0.011-0.227,0.011-0.381v-0.043l0-0.128l-0.126-0.021c-1.431-0.248-2.391-0.738-3.056-1.637
		c-0.666-0.9-1.04-2.241-1.223-4.195l-0.013-0.135l-0.136-0.003l-0.13-0.001c-0.07,0-0.139,0.001-0.187,0.003l-0.13,0.008
		l-0.012,0.13c-0.185,1.953-0.56,3.293-1.226,4.193c-0.666,0.899-1.624,1.389-3.054,1.637l-0.127,0.021v0.129
		c0,0.157,0,0.343,0,0.412v0.129L2.84,47.35c1.433,0.248,2.392,0.74,3.057,1.641c0.666,0.9,1.04,2.244,1.222,4.203l0.014,0.15
		l0.151-0.014L7.271,53.179z"/>
	<polygon fill="#333E48" points="7.422,45.815 7.319,45.928 8.494,46.995 7.422,47.967 6.352,46.995 7.524,45.928 7.422,45.815 
		7.319,45.928 7.422,45.815 7.319,45.702 5.897,46.995 7.422,48.379 8.949,46.995 7.422,45.608 7.319,45.702 	"/>
	<polyline fill="#333E48" points="2.919,40.941 12.128,40.941 12.128,40.635 2.919,40.635 	"/>
	<polyline fill="#333E48" points="2.919,53.364 12.128,53.364 12.128,53.058 2.919,53.058 	"/>
	<polyline fill="#333E48" points="3.015,53.856 3.015,40.142 2.708,40.142 2.708,53.856 	"/>
	<polyline fill="#333E48" points="0.568,53.856 0.568,40.142 0.263,40.142 0.263,53.856 	"/>
	<polyline fill="#333E48" points="12.159,53.856 12.159,40.142 11.853,40.142 11.853,53.856 	"/>
	<path fill="#333E48" d="M7.271,39.464l0.152-0.015c-0.186-1.98-0.562-3.378-1.28-4.355c-0.72-0.979-1.779-1.509-3.251-1.762
		l-0.025,0.151H3.02c0-0.069,0-0.255,0-0.412H2.867l0.025,0.151c1.471-0.251,2.528-0.78,3.248-1.757
		c0.719-0.976,1.096-2.37,1.284-4.346l-0.152-0.014l0.009,0.152c0.032-0.002,0.098-0.003,0.162-0.003l0.128,0.002l0.004-0.153
		l-0.152,0.014c0.186,1.978,0.562,3.372,1.282,4.348c0.72,0.977,1.778,1.505,3.25,1.757l0.026-0.151l-0.153,0.001v0.041
		c0,0.146-0.005,0.263-0.011,0.364l0.153,0.009l-0.026-0.151c-1.469,0.253-2.526,0.783-3.244,1.763
		c-0.718,0.978-1.094,2.375-1.278,4.355l0.152,0.014l-0.002-0.153H7.549c-0.08,0.001-0.097-0.007-0.175-0.007l-0.115,0.005
		L7.271,39.464l0.152-0.015L7.271,39.464l0.013,0.152l0.09-0.005c0.042,0,0.074,0.007,0.175,0.007h0.025l0.138-0.002l0.012-0.137
		c0.181-1.958,0.555-3.3,1.22-4.202c0.664-0.901,1.623-1.394,3.05-1.643l0.12-0.021l0.006-0.121
		c0.005-0.104,0.011-0.228,0.011-0.381V33.07l0-0.128l-0.126-0.022c-1.431-0.248-2.391-0.738-3.056-1.637
		c-0.666-0.901-1.04-2.241-1.223-4.195l-0.013-0.135L7.579,26.95l-0.136-0.001c-0.068,0-0.135,0.001-0.181,0.004l-0.13,0.009
		L7.12,27.09c-0.185,1.953-0.56,3.292-1.226,4.193c-0.666,0.898-1.624,1.389-3.054,1.636l-0.127,0.022v0.129
		c0,0.157,0,0.343,0,0.412v0.129l0.127,0.022c1.433,0.249,2.392,0.74,3.057,1.641c0.666,0.902,1.04,2.245,1.222,4.203l0.014,0.151
		l0.151-0.013L7.271,39.464z"/>
	<polygon fill="#333E48" points="7.422,32.099 7.319,32.212 8.494,33.279 7.422,34.251 6.352,33.279 7.524,32.212 7.422,32.099 
		7.319,32.212 7.422,32.099 7.319,31.986 5.897,33.279 7.422,34.665 8.949,33.279 7.422,31.892 7.319,31.986 	"/>
	<polyline fill="#333E48" points="2.919,27.225 12.128,27.225 12.128,26.919 2.919,26.919 	"/>
	<polyline fill="#333E48" points="2.919,39.649 12.128,39.649 12.128,39.343 2.919,39.343 	"/>
	<polyline fill="#333E48" points="3.015,40.142 3.015,26.426 2.708,26.426 2.708,40.142 	"/>
	<polyline fill="#333E48" points="0.568,40.142 0.568,26.426 0.263,26.426 0.263,40.142 	"/>
	<polyline fill="#333E48" points="12.159,40.142 12.159,26.426 11.853,26.426 11.853,40.142 	"/>
	<path fill="#333E48" d="M7.271,25.748l0.152-0.014c-0.186-1.981-0.562-3.379-1.28-4.356c-0.72-0.979-1.779-1.509-3.251-1.761
		l-0.025,0.151H3.02c0-0.069,0-0.255,0-0.412H2.867l0.025,0.15c1.471-0.251,2.528-0.779,3.248-1.757
		c0.719-0.976,1.096-2.37,1.284-4.345l-0.152-0.015l0.01,0.152c0.031-0.002,0.099-0.003,0.164-0.003l0.125,0.001l0.004-0.153
		l-0.152,0.015c0.186,1.977,0.562,3.371,1.282,4.347c0.72,0.978,1.778,1.506,3.25,1.757l0.026-0.15l-0.153,0.001v0.041
		c0,0.147-0.005,0.263-0.011,0.365l0.153,0.008l-0.026-0.15c-1.469,0.253-2.526,0.783-3.244,1.762
		c-0.718,0.979-1.094,2.375-1.278,4.355l0.152,0.014L7.57,25.597l-0.023,0c-0.078,0-0.095-0.007-0.173-0.008l-0.115,0.006
		L7.271,25.748l0.152-0.014L7.271,25.748L7.284,25.9l0.089-0.004c0.042-0.001,0.073,0.007,0.173,0.007h0.028l0.138-0.002
		l0.012-0.136c0.181-1.958,0.555-3.3,1.22-4.203c0.664-0.901,1.623-1.393,3.05-1.642l0.12-0.021l0.006-0.122
		c0.005-0.104,0.011-0.227,0.011-0.381v-0.043l0-0.128l-0.126-0.021c-1.431-0.248-2.391-0.738-3.056-1.637
		c-0.666-0.9-1.04-2.24-1.223-4.194l-0.013-0.135l-0.136-0.004l-0.133-0.001c-0.069,0-0.137,0.001-0.184,0.004l-0.13,0.009
		L7.12,13.375c-0.185,1.953-0.56,3.292-1.226,4.192c-0.666,0.898-1.624,1.389-3.053,1.637l-0.127,0.021v0.129
		c0,0.157,0,0.343,0,0.412v0.129l0.127,0.021c1.433,0.249,2.392,0.74,3.057,1.641c0.666,0.903,1.04,2.245,1.222,4.204l0.014,0.15
		L7.284,25.9L7.271,25.748z"/>
	<polygon fill="#333E48" points="7.422,18.383 7.319,18.496 8.494,19.563 7.422,20.535 6.352,19.563 7.524,18.496 7.422,18.383 
		7.319,18.496 7.422,18.383 7.319,18.27 5.897,19.563 7.422,20.948 8.949,19.563 7.422,18.176 7.319,18.27 	"/>
	<polyline fill="#333E48" points="2.919,13.51 12.128,13.51 12.128,13.204 2.919,13.204 	"/>
	<polyline fill="#333E48" points="2.919,25.933 12.128,25.933 12.128,25.627 2.919,25.627 	"/>
	<polyline fill="#333E48" points="3.015,26.426 3.015,12.71 2.708,12.71 2.708,26.426 	"/>
	<polyline fill="#333E48" points="0.568,26.426 0.568,12.71 0.263,12.71 0.263,26.426 	"/>
	<polyline fill="#333E48" points="12.159,26.426 12.159,12.71 11.853,12.71 11.853,26.426 	"/>
	<path fill="#333E48" d="M12.918,7.822l0.013,0.153c2.217-0.186,3.776-0.561,4.867-1.276c1.092-0.715,1.689-1.777,1.972-3.253
		l-0.15-0.029V3.57c0.077,0,0.285,0,0.461,0V3.417l-0.15,0.029c0.281,1.474,0.876,2.533,1.967,3.249
		c1.088,0.715,2.643,1.091,4.855,1.28l0.013-0.153l-0.153,0.011c0.003,0.031,0.004,0.097,0.004,0.161l-0.001,0.127l0.153,0.004
		l-0.013-0.153c-2.213,0.186-3.769,0.562-4.857,1.277c-1.091,0.716-1.686,1.777-1.967,3.251l0.15,0.029l-0.001-0.153l-0.046,0
		c-0.166,0-0.296-0.005-0.41-0.011l-0.007,0.153l0.15-0.029c-0.284-1.471-0.882-2.531-1.974-3.246
		c-1.091-0.715-2.649-1.089-4.865-1.274l-0.013,0.153l0.153-0.002l0-0.021c0-0.078,0.007-0.095,0.008-0.175l-0.006-0.116
		L12.918,7.822l0.013,0.153L12.918,7.822l-0.152,0.014l0.005,0.088c0.001,0.04-0.008,0.072-0.008,0.175v0.026l0.002,0.138
		l0.138,0.012c2.195,0.181,3.707,0.556,4.723,1.225c1.014,0.668,1.562,1.624,1.841,3.049l0.023,0.118l0.12,0.005
		c0.116,0.006,0.253,0.012,0.425,0.012h0.047l0.126-0.001l0.024-0.124c0.277-1.428,0.823-2.385,1.835-3.054
		c1.014-0.669,2.523-1.044,4.714-1.228l0.136-0.011l0.004-0.136l0.002-0.136c-0.001-0.069-0.001-0.136-0.005-0.183l-0.009-0.13
		l-0.13-0.011c-2.191-0.185-3.698-0.561-4.712-1.23c-1.012-0.669-1.558-1.625-1.835-3.051l-0.024-0.125h-0.126
		c-0.176,0-0.384,0-0.461,0h-0.126L19.47,3.389c-0.278,1.429-0.825,2.386-1.839,3.055c-1.016,0.669-2.528,1.044-4.725,1.227
		l-0.153,0.013l0.014,0.154L12.918,7.822z"/>
	<polygon fill="#333E48" points="21.171,7.973 21.064,7.864 19.849,9.058 18.746,7.973 19.849,6.89 21.064,8.082 21.171,7.973 
		21.064,7.864 21.171,7.973 21.278,7.864 19.849,6.461 18.31,7.973 19.849,9.487 21.389,7.973 21.278,7.864 	"/>
	<polyline fill="#333E48" points="26.65,3.47 26.65,12.679 26.956,12.679 26.956,3.47 	"/>
	<polyline fill="#333E48" points="12.729,3.47 12.729,12.679 13.036,12.679 13.036,3.47 	"/>
	<polyline fill="#333E48" points="12.159,3.565 27.527,3.565 27.527,3.259 12.159,3.259 	"/>
	<polyline fill="#333E48" points="12.159,1.12 27.527,1.12 27.527,0.813 12.159,0.813 	"/>
	<polyline fill="#333E48" points="12.159,12.71 27.527,12.71 27.527,12.404 12.159,12.404 	"/>
	<path fill="#333E48" d="M28.287,7.822L28.3,7.975c2.217-0.186,3.776-0.561,4.866-1.276c1.093-0.715,1.69-1.777,1.973-3.253
		l-0.15-0.029V3.57c0.078,0,0.286,0,0.462,0V3.417L35.3,3.446c0.282,1.474,0.877,2.533,1.967,3.249
		c1.088,0.715,2.643,1.091,4.854,1.28l0.013-0.153l-0.153,0.011c0.002,0.031,0.004,0.1,0.003,0.166l-0.001,0.124l0.153,0.004
		l-0.013-0.153c-2.213,0.186-3.768,0.562-4.857,1.277c-1.09,0.716-1.686,1.777-1.967,3.251l0.15,0.029l0-0.153l-0.046,0
		c-0.165,0-0.296-0.005-0.41-0.011l-0.008,0.153l0.15-0.029c-0.284-1.471-0.881-2.531-1.974-3.246
		c-1.091-0.715-2.648-1.089-4.865-1.274l-0.013,0.153l0.153-0.002V8.1c0-0.078,0.007-0.095,0.008-0.175l-0.006-0.116L28.287,7.822
		L28.3,7.975L28.287,7.822l-0.152,0.014l0.005,0.088c0.001,0.04-0.008,0.072-0.008,0.175v0.026l0.002,0.138l0.138,0.012
		c2.195,0.181,3.707,0.556,4.723,1.225c1.015,0.668,1.562,1.624,1.841,3.049l0.023,0.118l0.12,0.005
		c0.116,0.006,0.253,0.012,0.425,0.012h0.048l0.125-0.001L35.6,12.56c0.277-1.428,0.823-2.385,1.836-3.054
		c1.014-0.669,2.522-1.044,4.714-1.228l0.137-0.011L42.29,8.13l0.001-0.131c0-0.07-0.001-0.139-0.004-0.187l-0.009-0.13l-0.13-0.011
		c-2.19-0.185-3.698-0.561-4.712-1.23c-1.012-0.669-1.558-1.625-1.835-3.051l-0.023-0.125H35.45c-0.176,0-0.384,0-0.462,0h-0.126
		l-0.024,0.125c-0.278,1.429-0.825,2.386-1.839,3.055c-1.016,0.669-2.528,1.044-4.724,1.227l-0.154,0.013l0.014,0.154L28.287,7.822z
		"/>
	<polygon fill="#333E48" points="36.54,7.973 36.433,7.864 35.217,9.058 34.114,7.973 35.217,6.89 36.433,8.082 36.54,7.973 
		36.433,7.864 36.54,7.973 36.646,7.864 35.217,6.461 33.677,7.973 35.217,9.487 36.757,7.973 36.646,7.864 	"/>
	<polyline fill="#333E48" points="42.018,3.47 42.018,12.679 42.324,12.679 42.324,3.47 	"/>
	<polyline fill="#333E48" points="28.098,3.47 28.098,12.679 28.404,12.679 28.404,3.47 	"/>
	<polyline fill="#333E48" points="27.527,3.565 42.896,3.565 42.896,3.259 27.527,3.259 	"/>
	<polyline fill="#333E48" points="27.527,1.12 42.896,1.12 42.896,0.813 27.527,0.813 	"/>
	<polyline fill="#333E48" points="27.527,12.71 42.896,12.71 42.896,12.404 27.527,12.404 	"/>
	<path fill="#333E48" d="M43.655,7.822l0.012,0.153c2.218-0.186,3.776-0.561,4.867-1.276c1.093-0.715,1.689-1.777,1.972-3.253
		l-0.15-0.029V3.57c0.078,0,0.286,0,0.462,0V3.417l-0.15,0.029c0.282,1.474,0.877,2.533,1.968,3.249
		c1.088,0.715,2.643,1.091,4.854,1.28l0.013-0.153l-0.152,0.011c0.002,0.031,0.003,0.097,0.003,0.161l-0.001,0.127l0.152,0.004
		l-0.012-0.153c-2.213,0.186-3.768,0.562-4.857,1.277c-1.09,0.716-1.686,1.777-1.968,3.251l0.15,0.029l0-0.153l-0.046,0
		c-0.165,0-0.296-0.005-0.41-0.011l-0.007,0.153l0.15-0.029c-0.284-1.471-0.88-2.531-1.973-3.246
		c-1.091-0.715-2.649-1.089-4.865-1.274l-0.013,0.153l0.153-0.002l0-0.024c0-0.076,0.008-0.093,0.009-0.172l-0.007-0.117
		L43.655,7.822l0.012,0.153L43.655,7.822l-0.152,0.014l0.005,0.088c0,0.04-0.008,0.072-0.009,0.172v0.029l0.002,0.139l0.138,0.011
		c2.196,0.181,3.707,0.556,4.723,1.225c1.015,0.668,1.562,1.624,1.841,3.049l0.022,0.118l0.12,0.005
		c0.116,0.006,0.253,0.012,0.425,0.012h0.048l0.125-0.001l0.024-0.124c0.277-1.428,0.823-2.385,1.835-3.054
		c1.014-0.669,2.522-1.044,4.714-1.228l0.136-0.011l0.004-0.136l0.002-0.136c0-0.069-0.001-0.136-0.005-0.183l-0.009-0.13
		l-0.13-0.011c-2.191-0.185-3.699-0.561-4.713-1.23c-1.011-0.669-1.557-1.625-1.834-3.051l-0.024-0.125h-0.126
		c-0.176,0-0.384,0-0.462,0h-0.125l-0.024,0.125c-0.279,1.429-0.825,2.386-1.84,3.055c-1.016,0.669-2.527,1.044-4.724,1.227
		l-0.154,0.013l0.015,0.154L43.655,7.822z"/>
	<polygon fill="#333E48" points="51.907,7.973 51.8,7.864 50.585,9.058 49.482,7.973 50.585,6.89 51.8,8.082 51.907,7.973 
		51.8,7.864 51.907,7.973 52.014,7.864 50.585,6.461 49.046,7.973 50.585,9.487 52.125,7.973 52.014,7.864 	"/>
	<polyline fill="#333E48" points="57.387,3.47 57.387,12.679 57.692,12.679 57.692,3.47 	"/>
	<polyline fill="#333E48" points="43.466,3.47 43.466,12.679 43.772,12.679 43.772,3.47 	"/>
	<polyline fill="#333E48" points="42.896,3.565 58.264,3.565 58.264,3.259 42.896,3.259 	"/>
	<polyline fill="#333E48" points="42.896,1.12 58.264,1.12 58.264,0.813 42.896,0.813 	"/>
	<polyline fill="#333E48" points="42.896,12.71 58.264,12.71 58.264,12.404 42.896,12.404 	"/>
	<path fill="#333E48" d="M59.023,7.822l0.013,0.153c2.218-0.186,3.776-0.561,4.867-1.276c1.093-0.715,1.689-1.777,1.972-3.253
		l-0.15-0.029V3.57c0.078,0,0.285,0,0.461,0V3.417l-0.15,0.029c0.281,1.474,0.877,2.533,1.967,3.249
		c1.089,0.715,2.644,1.091,4.855,1.28l0.013-0.153l-0.152,0.011c0.002,0.031,0.003,0.097,0.003,0.161l-0.001,0.127l0.152,0.004
		l-0.013-0.153c-2.213,0.186-3.768,0.562-4.857,1.277c-1.09,0.716-1.686,1.777-1.967,3.251l0.15,0.029l-0.001-0.153l-0.046,0
		c-0.165,0-0.296-0.005-0.41-0.011l-0.007,0.153l0.15-0.029c-0.284-1.471-0.881-2.531-1.974-3.246
		c-1.091-0.715-2.649-1.089-4.865-1.274l-0.013,0.153l0.153-0.002l0-0.021c0-0.078,0.008-0.095,0.008-0.175l-0.006-0.116
		L59.023,7.822l0.013,0.153L59.023,7.822l-0.152,0.014l0.005,0.088c0.001,0.04-0.008,0.072-0.008,0.175v0.026l0.002,0.138
		l0.138,0.012c2.196,0.181,3.707,0.556,4.723,1.225c1.014,0.668,1.562,1.624,1.841,3.049l0.023,0.118l0.12,0.005
		c0.115,0.006,0.253,0.012,0.424,0.012h0.048l0.125-0.001l0.024-0.124c0.278-1.428,0.823-2.385,1.835-3.054
		c1.014-0.669,2.522-1.044,4.714-1.228l0.136-0.011l0.004-0.136l0.002-0.136c0-0.069-0.001-0.136-0.004-0.183l-0.01-0.13
		l-0.13-0.011c-2.19-0.185-3.698-0.561-4.712-1.23c-1.012-0.669-1.557-1.625-1.835-3.051l-0.024-0.125h-0.126
		c-0.176,0-0.384,0-0.461,0h-0.126l-0.023,0.125c-0.279,1.429-0.826,2.386-1.84,3.055c-1.016,0.669-2.528,1.044-4.725,1.227
		l-0.153,0.013l0.014,0.154L59.023,7.822z"/>
	<polygon fill="#333E48" points="67.275,7.973 67.168,7.864 65.954,9.058 64.85,7.973 65.954,6.89 67.168,8.082 67.275,7.973 
		67.168,7.864 67.275,7.973 67.383,7.864 65.954,6.461 64.415,7.973 65.954,9.487 67.494,7.973 67.383,7.864 	"/>
	<polyline fill="#333E48" points="72.755,3.47 72.755,12.679 73.061,12.679 73.061,3.47 	"/>
	<polyline fill="#333E48" points="58.834,3.47 58.834,12.679 59.14,12.679 59.14,3.47 	"/>
	<polyline fill="#333E48" points="58.264,3.565 73.632,3.565 73.632,3.259 58.264,3.259 	"/>
	<polyline fill="#333E48" points="58.264,1.12 73.632,1.12 73.632,0.813 58.264,0.813 	"/>
	<polyline fill="#333E48" points="58.264,12.71 73.632,12.71 73.632,12.404 58.264,12.404 	"/>
	<path fill="#333E48" d="M74.392,7.822l0.013,0.153c2.217-0.186,3.776-0.561,4.866-1.276c1.092-0.715,1.689-1.777,1.972-3.253
		l-0.15-0.029V3.57c0.078,0,0.286,0,0.462,0V3.417l-0.15,0.029c0.281,1.474,0.876,2.533,1.967,3.249
		c1.088,0.715,2.643,1.091,4.854,1.28l0.013-0.153l-0.152,0.011c0.002,0.031,0.004,0.1,0.004,0.166l-0.002,0.124l0.153,0.004
		l-0.013-0.153c-2.213,0.186-3.769,0.562-4.857,1.277c-1.09,0.716-1.686,1.777-1.967,3.251l0.15,0.029l-0.001-0.153l-0.046,0
		c-0.166,0-0.296-0.005-0.41-0.011l-0.007,0.153l0.15-0.029c-0.284-1.471-0.881-2.531-1.974-3.246
		c-1.09-0.715-2.648-1.089-4.865-1.274l-0.013,0.153l0.153-0.002l0-0.022c0-0.078,0.007-0.095,0.008-0.175l-0.006-0.116
		L74.392,7.822l0.013,0.153L74.392,7.822L74.24,7.836l0.004,0.088c0.001,0.04-0.008,0.072-0.008,0.175v0.026l0.002,0.138
		l0.138,0.012C76.572,8.457,78.083,8.832,79.1,9.5c1.014,0.668,1.562,1.624,1.841,3.049l0.023,0.118l0.119,0.005
		c0.116,0.006,0.253,0.012,0.425,0.012h0.047l0.126-0.001l0.023-0.124c0.278-1.428,0.823-2.385,1.835-3.054
		c1.014-0.669,2.522-1.044,4.714-1.228l0.137-0.011l0.003-0.137l0.001-0.131c0-0.07-0.001-0.139-0.004-0.187l-0.009-0.13
		l-0.13-0.011c-2.19-0.185-3.698-0.561-4.711-1.23c-1.012-0.669-1.558-1.625-1.835-3.051l-0.023-0.125h-0.126
		c-0.176,0-0.384,0-0.462,0h-0.126l-0.024,0.125c-0.279,1.429-0.826,2.386-1.839,3.055c-1.017,0.669-2.528,1.044-4.725,1.227
		l-0.153,0.013l0.014,0.154L74.392,7.822z"/>
	<polygon fill="#333E48" points="82.644,7.973 82.537,7.864 81.321,9.058 80.218,7.973 81.321,6.89 82.537,8.082 82.644,7.973 
		82.537,7.864 82.644,7.973 82.751,7.864 81.321,6.461 79.782,7.973 81.321,9.487 82.862,7.973 82.751,7.864 	"/>
	<polyline fill="#333E48" points="88.123,3.47 88.123,12.679 88.429,12.679 88.429,3.47 	"/>
	<polyline fill="#333E48" points="74.203,3.47 74.203,12.679 74.509,12.679 74.509,3.47 	"/>
	<polyline fill="#333E48" points="73.632,3.565 89,3.565 89,3.259 73.632,3.259 	"/>
	<polyline fill="#333E48" points="73.632,1.12 89,1.12 89,0.813 73.632,0.813 	"/>
	<polyline fill="#333E48" points="73.632,12.71 89,12.71 89,12.404 73.632,12.404 	"/>
	<path fill="#333E48" d="M89.76,7.822l0.013,0.153c2.218-0.186,3.775-0.561,4.866-1.276c1.093-0.715,1.69-1.777,1.974-3.252
		l-0.15-0.029V3.57c0.077,0,0.285,0,0.461,0V3.417l-0.149,0.029c0.281,1.474,0.877,2.533,1.967,3.249
		c1.089,0.715,2.643,1.091,4.854,1.28l0.014-0.153l-0.152,0.012c0.002,0.029,0.004,0.095,0.003,0.158l-0.002,0.129l0.153,0.005
		l-0.013-0.153c-2.214,0.186-3.769,0.562-4.857,1.277c-1.091,0.716-1.686,1.777-1.967,3.251l0.149,0.029l-0.001-0.153l-0.045,0
		c-0.166,0-0.297-0.005-0.41-0.011l-0.008,0.153l0.15-0.029c-0.284-1.471-0.882-2.531-1.975-3.246
		c-1.091-0.715-2.647-1.089-4.865-1.274l-0.012,0.153l0.153-0.002V8.1c-0.001-0.078,0.007-0.094,0.008-0.174l-0.006-0.117
		L89.76,7.822l0.013,0.153L89.76,7.822l-0.152,0.014l0.005,0.089c0.001,0.039-0.008,0.072-0.008,0.174v0.026l0.003,0.138
		l0.138,0.012c2.195,0.181,3.706,0.556,4.723,1.225c1.014,0.668,1.562,1.624,1.841,3.049l0.023,0.118l0.12,0.005
		c0.114,0.006,0.252,0.012,0.425,0.012h0.047l0.126-0.001l0.024-0.124c0.276-1.428,0.823-2.385,1.834-3.054
		c1.014-0.669,2.522-1.044,4.714-1.228l0.137-0.011l0.004-0.136l0.002-0.139c0-0.068-0.001-0.134-0.005-0.181l-0.009-0.13
		l-0.13-0.011c-2.191-0.185-3.699-0.561-4.713-1.23c-1.012-0.669-1.558-1.625-1.834-3.051L97.05,3.264h-0.127
		c-0.176,0-0.384,0-0.461,0h-0.127l-0.024,0.124c-0.278,1.43-0.825,2.386-1.839,3.055c-1.017,0.669-2.527,1.044-4.725,1.227
		l-0.154,0.013l0.014,0.154L89.76,7.822z"/>
	<polygon fill="#333E48" points="98.012,7.973 97.905,7.864 96.69,9.058 95.587,7.973 96.69,6.89 97.905,8.082 98.012,7.973 
		97.905,7.864 98.012,7.973 98.119,7.864 96.69,6.461 95.151,7.973 96.69,9.487 98.23,7.973 98.119,7.864 	"/>
	<polyline fill="#333E48" points="103.491,3.47 103.491,12.679 103.798,12.679 103.798,3.47 	"/>
	<polyline fill="#333E48" points="89.571,3.47 89.571,12.679 89.877,12.679 89.877,3.47 	"/>
	<polyline fill="#333E48" points="89,3.565 104.369,3.565 104.369,3.259 89,3.259 	"/>
	<polyline fill="#333E48" points="89,1.12 104.369,1.12 104.369,0.813 89,0.813 	"/>
	<polyline fill="#333E48" points="89,12.71 104.369,12.71 104.369,12.404 89,12.404 	"/>
	<path fill="#333E48" d="M105.129,7.822l0.012,0.153c2.218-0.186,3.776-0.561,4.867-1.276c1.093-0.715,1.689-1.777,1.973-3.253
		l-0.15-0.029V3.57c0.077,0,0.285,0,0.461,0V3.417l-0.149,0.029c0.281,1.474,0.877,2.533,1.967,3.249
		c1.089,0.715,2.643,1.091,4.854,1.28l0.015-0.153l-0.153,0.012c0.002,0.031,0.004,0.101,0.004,0.167l-0.002,0.121l0.153,0.004
		l-0.012-0.153c-2.214,0.186-3.769,0.562-4.857,1.277c-1.091,0.716-1.687,1.777-1.968,3.251l0.149,0.029l-0.001-0.153l-0.045,0
		c-0.166,0-0.297-0.005-0.41-0.011l-0.007,0.153l0.149-0.029c-0.283-1.471-0.882-2.531-1.974-3.246
		c-1.092-0.715-2.649-1.089-4.866-1.274l-0.012,0.153l0.152-0.002V8.1c0-0.078,0.008-0.095,0.009-0.176l-0.007-0.115L105.129,7.822
		l0.012,0.153L105.129,7.822l-0.152,0.014l0.005,0.087c0,0.041-0.009,0.073-0.009,0.176v0.026l0.003,0.138l0.138,0.012
		c2.195,0.181,3.707,0.556,4.722,1.225c1.015,0.668,1.562,1.624,1.842,3.049l0.024,0.118l0.118,0.005
		c0.116,0.006,0.253,0.012,0.426,0.012h0.047l0.126-0.001l0.023-0.124c0.278-1.428,0.823-2.385,1.836-3.054
		c1.014-0.669,2.522-1.044,4.714-1.228l0.137-0.011l0.004-0.137l0.001-0.129c0-0.071-0.001-0.141-0.005-0.19l-0.009-0.13
		l-0.13-0.011c-2.19-0.185-3.699-0.561-4.713-1.23c-1.012-0.669-1.557-1.625-1.835-3.051l-0.023-0.125h-0.127
		c-0.176,0-0.384,0-0.461,0h-0.126l-0.024,0.125c-0.279,1.429-0.826,2.386-1.839,3.055c-1.017,0.669-2.528,1.044-4.725,1.227
		l-0.153,0.013l0.014,0.153L105.129,7.822z"/>
	<polygon fill="#333E48" points="113.38,7.973 113.273,7.864 112.059,9.058 110.955,7.973 112.059,6.89 113.273,8.082 113.38,7.973 
		113.273,7.864 113.38,7.973 113.487,7.864 112.059,6.461 110.519,7.973 112.059,9.487 113.599,7.973 113.487,7.864 	"/>
	<polyline fill="#333E48" points="118.859,3.47 118.859,12.679 119.165,12.679 119.165,3.47 	"/>
	<polyline fill="#333E48" points="104.939,3.47 104.939,12.679 105.245,12.679 105.245,3.47 	"/>
	<polyline fill="#333E48" points="104.369,3.565 119.737,3.565 119.737,3.259 104.369,3.259 	"/>
	<polyline fill="#333E48" points="104.369,1.12 119.737,1.12 119.737,0.813 104.369,0.813 	"/>
	<polyline fill="#333E48" points="104.369,12.71 119.737,12.71 119.737,12.404 104.369,12.404 	"/>
	<path fill="#333E48" d="M120.497,7.822l0.012,0.153c2.218-0.186,3.776-0.561,4.867-1.276c1.093-0.715,1.688-1.777,1.973-3.253
		l-0.151-0.029V3.57c0.079,0,0.286,0,0.462,0V3.417l-0.149,0.029c0.281,1.474,0.877,2.533,1.967,3.249
		c1.089,0.715,2.644,1.091,4.854,1.28l0.014-0.153l-0.153,0.01c0.003,0.031,0.004,0.099,0.004,0.164l-0.002,0.126l0.153,0.004
		l-0.013-0.153c-2.213,0.186-3.769,0.562-4.856,1.277c-1.091,0.716-1.687,1.777-1.968,3.251l0.149,0.029l-0.001-0.153l-0.046,0
		c-0.165,0-0.296-0.005-0.41-0.011l-0.007,0.153l0.15-0.029c-0.284-1.471-0.881-2.531-1.974-3.246
		c-1.091-0.715-2.649-1.089-4.865-1.274l-0.013,0.153l0.153-0.003l-0.001-0.025c0-0.074,0.008-0.091,0.009-0.171l-0.007-0.116
		L120.497,7.822l0.012,0.153L120.497,7.822l-0.152,0.014l0.005,0.088c0.001,0.04-0.008,0.071-0.008,0.171v0.031l0.003,0.138
		l0.138,0.011c2.194,0.181,3.706,0.556,4.722,1.225c1.014,0.668,1.562,1.624,1.841,3.049l0.024,0.118l0.118,0.005
		c0.116,0.006,0.254,0.012,0.425,0.012h0.048l0.126-0.001l0.023-0.124c0.277-1.428,0.823-2.385,1.836-3.054
		c1.014-0.669,2.522-1.044,4.714-1.228l0.137-0.011L134.5,8.13l0.001-0.134c0-0.069-0.001-0.137-0.004-0.184l-0.009-0.131
		l-0.131-0.011c-2.19-0.185-3.699-0.561-4.713-1.23c-1.012-0.669-1.558-1.625-1.835-3.051l-0.023-0.125h-0.127
		c-0.176,0-0.383,0-0.462,0h-0.125l-0.024,0.125c-0.279,1.429-0.826,2.386-1.84,3.055c-1.016,0.669-2.527,1.044-4.724,1.227
		l-0.155,0.013l0.016,0.154L120.497,7.822z"/>
	<polygon fill="#333E48" points="128.748,7.973 128.641,7.864 127.427,9.058 126.324,7.973 127.427,6.89 128.641,8.082 
		128.748,7.973 128.641,7.864 128.748,7.973 128.855,7.864 127.427,6.461 125.887,7.973 127.427,9.487 128.967,7.973 128.855,7.864 
			"/>
	<polyline fill="#333E48" points="134.228,3.47 134.228,12.679 134.533,12.679 134.533,3.47 	"/>
	<polyline fill="#333E48" points="120.308,3.47 120.308,12.679 120.614,12.679 120.614,3.47 	"/>
	<polyline fill="#333E48" points="119.737,3.565 135.105,3.565 135.105,3.259 119.737,3.259 	"/>
	<polyline fill="#333E48" points="119.737,1.12 135.105,1.12 135.105,0.813 119.737,0.813 	"/>
	<polyline fill="#333E48" points="119.737,12.71 135.105,12.71 135.105,12.404 119.737,12.404 	"/>
	<path fill="#333E48" d="M135.865,7.822l0.012,0.153c2.218-0.186,3.776-0.561,4.867-1.276c1.093-0.715,1.689-1.777,1.972-3.253
		l-0.149-0.029V3.57c0.077,0,0.285,0,0.462,0V3.417l-0.15,0.029c0.281,1.474,0.878,2.533,1.967,3.249
		c1.089,0.715,2.644,1.091,4.854,1.28l0.013-0.153l-0.152,0.012c0.003,0.029,0.004,0.095,0.004,0.158l-0.002,0.129l0.152,0.005
		l-0.012-0.153c-2.213,0.186-3.769,0.562-4.857,1.277c-1.09,0.716-1.686,1.777-1.967,3.251l0.15,0.029l-0.001-0.153l-0.047,0
		c-0.165,0-0.296-0.005-0.41-0.011l-0.007,0.153l0.149-0.029c-0.283-1.471-0.88-2.531-1.973-3.246
		c-1.091-0.715-2.649-1.089-4.865-1.274l-0.013,0.153l0.153-0.002L136.015,8.1c0-0.078,0.008-0.095,0.009-0.174l-0.007-0.117
		L135.865,7.822l0.012,0.153L135.865,7.822l-0.153,0.014l0.006,0.089c0.001,0.039-0.009,0.072-0.009,0.174v0.026l0.002,0.138
		l0.139,0.012c2.195,0.181,3.706,0.556,4.723,1.225c1.015,0.668,1.562,1.624,1.841,3.049l0.023,0.118l0.119,0.005
		c0.116,0.006,0.254,0.012,0.425,0.012h0.049l0.125-0.001l0.023-0.124c0.277-1.428,0.823-2.385,1.836-3.054
		c1.014-0.669,2.522-1.044,4.714-1.228l0.136-0.011l0.005-0.136l0.002-0.139c0-0.068-0.002-0.134-0.005-0.181l-0.011-0.13
		l-0.129-0.011c-2.19-0.185-3.699-0.561-4.713-1.23c-1.012-0.669-1.558-1.625-1.835-3.051l-0.023-0.125h-0.126
		c-0.177,0-0.385,0-0.462,0h-0.127l-0.023,0.125c-0.278,1.429-0.825,2.386-1.84,3.055c-1.017,0.669-2.528,1.044-4.725,1.227
		l-0.154,0.013l0.015,0.154L135.865,7.822z"/>
	<polygon fill="#333E48" points="144.117,7.973 144.01,7.864 142.795,9.058 141.692,7.973 142.795,6.89 144.01,8.082 144.117,7.973 
		144.01,7.864 144.117,7.973 144.224,7.864 142.795,6.461 141.255,7.973 142.795,9.487 144.335,7.973 144.224,7.864 	"/>
	<polyline fill="#333E48" points="149.596,3.47 149.596,12.679 149.901,12.679 149.901,3.47 	"/>
	<polyline fill="#333E48" points="135.676,3.47 135.676,12.679 135.981,12.679 135.981,3.47 	"/>
	<polyline fill="#333E48" points="135.105,3.565 150.473,3.565 150.473,3.259 135.105,3.259 	"/>
	<polyline fill="#333E48" points="135.105,1.12 150.473,1.12 150.473,0.813 135.105,0.813 	"/>
	<polyline fill="#333E48" points="135.105,12.71 150.473,12.71 150.473,12.404 135.105,12.404 	"/>
	<path fill="#333E48" d="M151.233,7.822l0.013,0.153c2.217-0.186,3.776-0.561,4.866-1.276c1.094-0.715,1.689-1.777,1.972-3.253
		l-0.149-0.029V3.57c0.077,0,0.285,0,0.462,0V3.417l-0.15,0.029c0.282,1.474,0.877,2.533,1.967,3.249
		c1.089,0.715,2.644,1.091,4.854,1.28l0.013-0.153l-0.152,0.012c0.003,0.031,0.004,0.101,0.004,0.167l-0.001,0.121l0.152,0.004
		l-0.013-0.153c-2.212,0.186-3.768,0.562-4.856,1.277c-1.091,0.716-1.686,1.777-1.968,3.251l0.15,0.029l-0.001-0.153l-0.047,0
		c-0.165,0-0.295-0.005-0.409-0.011l-0.008,0.153l0.15-0.029c-0.284-1.471-0.882-2.531-1.974-3.246
		c-1.091-0.715-2.649-1.089-4.865-1.274l-0.014,0.153l0.154-0.002L151.383,8.1c0-0.078,0.008-0.095,0.009-0.176l-0.006-0.114
		L151.233,7.822l0.013,0.153L151.233,7.822l-0.153,0.014l0.005,0.087c0.001,0.041-0.008,0.073-0.008,0.176v0.026l0.002,0.138
		l0.139,0.012c2.195,0.181,3.706,0.556,4.723,1.225c1.015,0.668,1.562,1.624,1.842,3.049l0.022,0.118l0.12,0.005
		c0.116,0.006,0.253,0.012,0.424,0.012h0.049l0.125-0.001l0.023-0.124c0.278-1.428,0.823-2.385,1.836-3.054
		c1.014-0.669,2.522-1.044,4.714-1.228l0.137-0.011l0.003-0.137l0.003-0.129c0-0.071-0.001-0.141-0.006-0.19l-0.01-0.13l-0.13-0.011
		c-2.189-0.185-3.697-0.561-4.711-1.23c-1.013-0.669-1.558-1.625-1.836-3.051l-0.023-0.125h-0.126c-0.177,0-0.385,0-0.462,0h-0.127
		l-0.023,0.125c-0.278,1.429-0.825,2.386-1.84,3.055c-1.016,0.669-2.527,1.044-4.724,1.227l-0.153,0.013l0.013,0.153L151.233,7.822z
		"/>
	<polygon fill="#333E48" points="159.485,7.973 159.378,7.864 158.162,9.058 157.06,7.973 158.162,6.89 159.378,8.082 
		159.485,7.973 159.378,7.864 159.485,7.973 159.592,7.864 158.162,6.461 156.623,7.973 158.162,9.487 159.703,7.973 159.592,7.864 
			"/>
	<polyline fill="#333E48" points="164.965,3.47 164.965,12.679 165.271,12.679 165.271,3.47 	"/>
	<polyline fill="#333E48" points="151.044,3.47 151.044,12.679 151.35,12.679 151.35,3.47 	"/>
	<polyline fill="#333E48" points="150.473,3.565 165.841,3.565 165.841,3.259 150.473,3.259 	"/>
	<polyline fill="#333E48" points="150.473,1.12 165.841,1.12 165.841,0.813 150.473,0.813 	"/>
	<polyline fill="#333E48" points="150.473,12.71 165.841,12.71 165.841,12.404 150.473,12.404 	"/>
	<path fill="#333E48" d="M170.729,13.388l-0.153,0.015c0.187,1.981,0.562,3.378,1.281,4.356c0.719,0.979,1.778,1.508,3.25,1.761
		l0.027-0.151h-0.154c0,0.069,0,0.255,0,0.412h0.154l-0.027-0.15c-1.47,0.251-2.527,0.78-3.247,1.756
		c-0.718,0.977-1.096,2.37-1.284,4.346l0.153,0.014l-0.011-0.152c-0.031,0.002-0.099,0.003-0.163,0.003l-0.126-0.001l-0.004,0.153
		l0.151-0.014c-0.185-1.977-0.562-3.371-1.28-4.348c-0.721-0.977-1.778-1.506-3.251-1.757l-0.025,0.15l0.152-0.001v-0.039
		c0-0.147,0.006-0.264,0.011-0.366l-0.152-0.008l0.025,0.151c1.47-0.253,2.526-0.783,3.245-1.763
		c0.719-0.978,1.095-2.375,1.278-4.354l-0.152-0.014l0.003,0.153l0.024,0c0.077,0,0.094,0.007,0.172,0.008l0.115-0.006
		L170.729,13.388l-0.153,0.015L170.729,13.388l-0.013-0.152l-0.09,0.004c-0.042,0.001-0.073-0.007-0.172-0.007h-0.029l-0.137,0.002
		l-0.013,0.136c-0.182,1.958-0.556,3.3-1.221,4.202c-0.665,0.901-1.623,1.393-3.05,1.643l-0.121,0.021l-0.007,0.122
		c-0.005,0.103-0.01,0.227-0.01,0.382v0.042l0.001,0.127l0.126,0.022c1.43,0.247,2.39,0.737,3.056,1.637s1.04,2.24,1.223,4.194
		l0.013,0.135l0.136,0.004l0.134,0.001c0.068,0,0.137-0.001,0.184-0.004l0.13-0.009l0.013-0.129c0.184-1.953,0.56-3.292,1.226-4.192
		c0.664-0.899,1.623-1.39,3.053-1.637l0.127-0.022v-0.129c0-0.157,0-0.343,0-0.412V19.24l-0.127-0.022
		c-1.433-0.249-2.393-0.74-3.056-1.641c-0.666-0.902-1.041-2.245-1.223-4.203l-0.014-0.151l-0.151,0.013L170.729,13.388z"/>
	<polygon fill="#333E48" points="170.578,20.753 170.682,20.64 169.507,19.573 170.578,18.601 171.648,19.573 170.476,20.64 
		170.578,20.753 170.682,20.64 170.578,20.753 170.682,20.866 172.104,19.573 170.578,18.188 169.052,19.573 170.578,20.959 
		170.682,20.866 	"/>
	<polyline fill="#333E48" points="175.082,25.626 165.873,25.626 165.873,25.933 175.082,25.933 	"/>
	<polyline fill="#333E48" points="175.082,13.203 165.873,13.203 165.873,13.509 175.082,13.509 	"/>
	<polyline fill="#333E48" points="174.986,12.71 174.986,26.426 175.292,26.426 175.292,12.71 	"/>
	<polyline fill="#333E48" points="177.432,12.71 177.432,26.426 177.738,26.426 177.738,12.71 	"/>
	<polyline fill="#333E48" points="165.841,12.71 165.841,26.426 166.147,26.426 166.147,12.71 	"/>
	<path fill="#333E48" d="M170.729,27.104l-0.153,0.014c0.187,1.981,0.562,3.379,1.281,4.357c0.719,0.979,1.778,1.509,3.25,1.761
		l0.027-0.15h-0.154c0,0.069,0,0.254,0,0.412h0.154l-0.027-0.15c-1.47,0.251-2.527,0.779-3.247,1.756
		c-0.718,0.976-1.096,2.37-1.284,4.345l0.153,0.015l-0.011-0.153c-0.031,0.002-0.101,0.003-0.166,0.003l-0.124-0.001l-0.003,0.153
		l0.151-0.014c-0.185-1.978-0.562-3.372-1.28-4.348c-0.721-0.978-1.778-1.506-3.251-1.757l-0.025,0.15l0.152-0.001v-0.04
		c0-0.147,0.006-0.264,0.011-0.366l-0.152-0.008l0.025,0.151c1.47-0.253,2.526-0.783,3.245-1.763
		c0.719-0.978,1.095-2.375,1.278-4.355l-0.152-0.014l0.003,0.152h0.024c0.077,0,0.094,0.007,0.172,0.007l0.115-0.006L170.729,27.104
		l-0.153,0.014L170.729,27.104l-0.013-0.153l-0.09,0.005c-0.043,0-0.073-0.008-0.172-0.008h-0.029l-0.137,0.002l-0.013,0.137
		c-0.182,1.957-0.556,3.3-1.221,4.202c-0.665,0.901-1.623,1.393-3.05,1.643l-0.121,0.021l-0.007,0.123
		c-0.005,0.103-0.01,0.226-0.01,0.381v0.042l0.001,0.128l0.126,0.021c1.43,0.248,2.39,0.738,3.056,1.637
		c0.666,0.9,1.04,2.241,1.223,4.194l0.013,0.136l0.136,0.003l0.131,0.001c0.069,0,0.139,0,0.187-0.003l0.13-0.008l0.013-0.13
		c0.184-1.953,0.56-3.292,1.226-4.192c0.664-0.899,1.623-1.389,3.053-1.637l0.127-0.021v-0.129c0-0.158,0-0.343,0-0.412v-0.129
		l-0.127-0.021c-1.433-0.25-2.393-0.74-3.056-1.641c-0.666-0.902-1.041-2.246-1.223-4.204l-0.014-0.15l-0.151,0.012L170.729,27.104z
		"/>
	<polygon fill="#333E48" points="170.578,34.469 170.682,34.355 169.507,33.289 170.578,32.316 171.648,33.289 170.476,34.355 
		170.578,34.469 170.682,34.355 170.578,34.469 170.682,34.582 172.104,33.289 170.578,31.903 169.052,33.289 170.578,34.675 
		170.682,34.582 	"/>
	<polyline fill="#333E48" points="175.082,39.342 165.873,39.342 165.873,39.648 175.082,39.648 	"/>
	<polyline fill="#333E48" points="175.082,26.919 165.873,26.919 165.873,27.225 175.082,27.225 	"/>
	<polyline fill="#333E48" points="174.986,26.426 174.986,40.142 175.292,40.142 175.292,26.426 	"/>
	<polyline fill="#333E48" points="177.432,26.426 177.432,40.142 177.738,40.142 177.738,26.426 	"/>
	<polyline fill="#333E48" points="165.841,26.426 165.841,40.142 166.147,40.142 166.147,26.426 	"/>
	<path fill="#333E48" d="M170.729,40.819l-0.153,0.015c0.187,1.981,0.562,3.378,1.281,4.356c0.719,0.979,1.778,1.509,3.25,1.761
		l0.027-0.15h-0.154c0,0.069,0,0.255,0,0.413h0.154l-0.027-0.151c-1.47,0.252-2.527,0.78-3.247,1.757
		c-0.718,0.975-1.096,2.369-1.284,4.346l0.153,0.014l-0.011-0.152c-0.031,0.002-0.099,0.004-0.163,0.004l-0.126-0.002l-0.004,0.152
		l0.151-0.014c-0.185-1.977-0.562-3.371-1.28-4.348c-0.721-0.977-1.778-1.505-3.251-1.757l-0.025,0.151l0.152-0.002v-0.039
		c0-0.147,0.006-0.264,0.011-0.366l-0.152-0.007l0.025,0.15c1.47-0.253,2.526-0.783,3.245-1.762
		c0.719-0.979,1.095-2.375,1.278-4.355l-0.152-0.015l0.003,0.153l0.024,0c0.077,0,0.094,0.007,0.172,0.007l0.115-0.005
		L170.729,40.819l-0.153,0.015L170.729,40.819l-0.013-0.152l-0.09,0.004c-0.043,0-0.073-0.007-0.172-0.007h-0.029l-0.137,0.002
		l-0.013,0.137c-0.182,1.957-0.556,3.299-1.221,4.202c-0.665,0.901-1.623,1.393-3.05,1.643l-0.121,0.021l-0.007,0.122
		c-0.005,0.103-0.01,0.227-0.01,0.382v0.041l0.001,0.129l0.126,0.021c1.43,0.247,2.39,0.738,3.056,1.637
		c0.666,0.9,1.04,2.24,1.223,4.193l0.013,0.135l0.136,0.004l0.134,0.002c0.068,0,0.137,0,0.184-0.004l0.13-0.008l0.013-0.131
		c0.184-1.951,0.56-3.293,1.226-4.193c0.664-0.897,1.623-1.388,3.053-1.635l0.127-0.022v-0.128c0-0.158,0-0.343,0-0.413v-0.129
		l-0.127-0.022c-1.433-0.249-2.393-0.74-3.056-1.641c-0.666-0.902-1.041-2.245-1.223-4.203l-0.014-0.151l-0.151,0.013
		L170.729,40.819z"/>
	<polygon fill="#333E48" points="170.578,48.184 170.682,48.072 169.507,47.005 170.578,46.032 171.648,47.005 170.476,48.072 
		170.578,48.184 170.682,48.072 170.578,48.184 170.682,48.299 172.104,47.005 170.578,45.619 169.052,47.005 170.578,48.391 
		170.682,48.299 	"/>
	<polyline fill="#333E48" points="175.082,53.058 165.873,53.058 165.873,53.364 175.082,53.364 	"/>
	<polyline fill="#333E48" points="175.082,40.635 165.873,40.635 165.873,40.94 175.082,40.94 	"/>
	<polyline fill="#333E48" points="174.986,40.142 174.986,53.856 175.292,53.856 175.292,40.142 	"/>
	<polyline fill="#333E48" points="177.432,40.142 177.432,53.856 177.738,53.856 177.738,40.142 	"/>
	<polyline fill="#333E48" points="165.841,40.142 165.841,53.856 166.147,53.856 166.147,40.142 	"/>
	<path fill="#333E48" d="M170.729,54.536l-0.153,0.014c0.187,1.98,0.562,3.379,1.281,4.357c0.719,0.979,1.778,1.508,3.25,1.76
		l0.027-0.15h-0.154c0,0.068,0,0.254,0,0.412h0.154l-0.027-0.15c-1.47,0.252-2.527,0.779-3.247,1.758
		c-0.718,0.975-1.096,2.367-1.284,4.344l0.153,0.016l-0.011-0.152c-0.031,0.002-0.099,0.002-0.163,0.002l-0.126-0.002l-0.004,0.154
		l0.151-0.014c-0.185-1.979-0.562-3.373-1.28-4.348c-0.721-0.979-1.778-1.506-3.251-1.758l-0.025,0.15l0.152-0.002V60.89
		c0-0.148,0.006-0.266,0.011-0.367l-0.152-0.008l0.025,0.15c1.47-0.252,2.526-0.783,3.245-1.762s1.095-2.375,1.278-4.355
		l-0.152-0.014l0.003,0.152h0.024c0.077,0,0.094,0.006,0.172,0.008l0.115-0.006L170.729,54.536l-0.153,0.014L170.729,54.536
		l-0.013-0.152l-0.09,0.004c-0.042,0-0.073-0.008-0.172-0.008h-0.029l-0.137,0.004l-0.013,0.135
		c-0.182,1.957-0.556,3.301-1.221,4.203c-0.665,0.9-1.623,1.393-3.05,1.643l-0.121,0.02l-0.007,0.123
		c-0.005,0.102-0.01,0.227-0.01,0.383v0.041l0.001,0.127l0.126,0.021c1.43,0.248,2.39,0.738,3.056,1.637
		c0.666,0.9,1.04,2.242,1.223,4.195l0.013,0.135l0.136,0.004h0.134c0.068,0,0.137,0,0.184-0.004l0.13-0.008l0.013-0.129
		c0.184-1.953,0.56-3.293,1.226-4.193c0.664-0.898,1.623-1.389,3.053-1.637l0.127-0.021v-0.129c0-0.158,0-0.344,0-0.412v-0.129
		l-0.127-0.021c-1.433-0.25-2.393-0.74-3.056-1.641c-0.666-0.902-1.041-2.246-1.223-4.203l-0.014-0.15l-0.151,0.012L170.729,54.536z
		"/>
	<polygon fill="#333E48" points="170.578,61.899 170.682,61.788 169.507,60.72 170.578,59.749 171.648,60.72 170.476,61.788 
		170.578,61.899 170.682,61.788 170.578,61.899 170.682,62.015 172.104,60.72 170.578,59.335 169.052,60.72 170.578,62.106 
		170.682,62.015 	"/>
	<polyline fill="#333E48" points="175.082,66.774 165.873,66.774 165.873,67.081 175.082,67.081 	"/>
	<polyline fill="#333E48" points="175.082,54.351 165.873,54.351 165.873,54.657 175.082,54.657 	"/>
	<polyline fill="#333E48" points="174.986,53.856 174.986,67.573 175.292,67.573 175.292,53.856 	"/>
	<polyline fill="#333E48" points="177.432,53.856 177.432,67.573 177.738,67.573 177.738,53.856 	"/>
	<polyline fill="#333E48" points="165.841,53.856 165.841,67.573 166.147,67.573 166.147,53.856 	"/>
	<path fill="#333E48" d="M170.729,68.251l-0.153,0.016c0.187,1.98,0.562,3.377,1.281,4.355c0.719,0.979,1.778,1.508,3.25,1.76
		l0.027-0.15h-0.154c0,0.07,0,0.256,0,0.414h0.154l-0.027-0.15c-1.47,0.25-2.527,0.779-3.247,1.756
		c-0.718,0.977-1.096,2.369-1.284,4.346l0.153,0.014l-0.01-0.152c-0.033,0.002-0.104,0.004-0.171,0.004l-0.121-0.002l-0.002,0.152
		l0.151-0.014c-0.185-1.977-0.562-3.371-1.28-4.348c-0.721-0.977-1.778-1.506-3.251-1.756l-0.025,0.15l0.152-0.002v-0.039
		c0-0.148,0.006-0.264,0.011-0.365l-0.152-0.008l0.025,0.15c1.47-0.254,2.526-0.783,3.245-1.764
		c0.719-0.979,1.095-2.375,1.278-4.355l-0.152-0.014l0.003,0.152h0.024c0.077,0,0.094,0.008,0.172,0.008l0.115-0.006L170.729,68.251
		l-0.153,0.016L170.729,68.251l-0.013-0.152l-0.09,0.006c-0.042,0-0.073-0.008-0.172-0.008h-0.029l-0.137,0.002l-0.013,0.137
		c-0.182,1.957-0.556,3.301-1.221,4.203c-0.665,0.9-1.623,1.391-3.05,1.643l-0.121,0.02l-0.007,0.123
		c-0.005,0.102-0.01,0.225-0.01,0.381v0.041l0.001,0.129l0.126,0.021c1.43,0.248,2.39,0.738,3.056,1.637
		c0.666,0.9,1.04,2.24,1.223,4.195l0.013,0.135l0.137,0.004h0.126c0.071,0,0.142,0,0.189-0.004l0.131-0.008l0.013-0.131
		c0.184-1.951,0.56-3.291,1.226-4.191c0.664-0.9,1.623-1.389,3.053-1.637l0.127-0.021v-0.129c0-0.158,0-0.344,0-0.414v-0.127
		l-0.127-0.023c-1.433-0.248-2.393-0.74-3.056-1.641c-0.666-0.902-1.041-2.244-1.223-4.203l-0.014-0.15l-0.151,0.012L170.729,68.251
		z"/>
	<polygon fill="#333E48" points="170.578,75.616 170.682,75.503 169.507,74.437 170.578,73.464 171.648,74.437 170.476,75.503 
		170.578,75.616 170.682,75.503 170.578,75.616 170.682,75.729 172.104,74.437 170.578,73.05 169.052,74.437 170.578,75.823 
		170.682,75.729 	"/>
	<polyline fill="#333E48" points="175.082,80.489 165.873,80.489 165.873,80.796 175.082,80.796 	"/>
	<polyline fill="#333E48" points="175.082,68.065 165.873,68.065 165.873,68.372 175.082,68.372 	"/>
	<polyline fill="#333E48" points="174.986,67.573 174.986,81.29 175.292,81.29 175.292,67.573 	"/>
	<polyline fill="#333E48" points="177.432,67.573 177.432,81.29 177.738,81.29 177.738,67.573 	"/>
	<polyline fill="#333E48" points="165.841,67.573 165.841,81.29 166.147,81.29 166.147,67.573 	"/>
	<path fill="#333E48" d="M165.081,86.177l-0.012-0.152c-2.218,0.186-3.776,0.561-4.867,1.275c-1.093,0.717-1.688,1.777-1.973,3.254
		l0.151,0.027v-0.152c-0.079,0-0.286,0-0.462,0v0.152l0.149-0.027c-0.281-1.475-0.877-2.533-1.967-3.25
		c-1.088-0.715-2.643-1.092-4.854-1.279l-0.013,0.152l0.152-0.012c-0.002-0.031-0.004-0.102-0.004-0.168l0.002-0.119l-0.154-0.006
		l0.014,0.154c2.213-0.186,3.769-0.561,4.856-1.277c1.091-0.715,1.687-1.777,1.968-3.252l-0.149-0.029l0.001,0.154h0.044
		c0.166,0,0.298,0.004,0.412,0.01l0.007-0.152l-0.15,0.029c0.284,1.471,0.881,2.531,1.974,3.246c1.092,0.715,2.649,1.09,4.866,1.273
		l0.012-0.152l-0.152,0.004v0.02c0,0.078-0.008,0.096-0.009,0.176l0.006,0.115L165.081,86.177l-0.012-0.152L165.081,86.177
		l0.152-0.014l-0.005-0.088c-0.001-0.039,0.009-0.072,0.01-0.176v-0.025l-0.004-0.139l-0.138-0.012
		c-2.195-0.182-3.707-0.557-4.722-1.225s-1.562-1.623-1.842-3.049l-0.023-0.119l-0.12-0.006c-0.115-0.004-0.253-0.01-0.426-0.01
		h-0.046h-0.126l-0.023,0.125c-0.277,1.428-0.823,2.385-1.836,3.053c-1.014,0.67-2.522,1.045-4.714,1.229l-0.137,0.01l-0.004,0.137
		l-0.001,0.129c0,0.072,0,0.143,0.004,0.191l0.01,0.129l0.13,0.012c2.19,0.186,3.699,0.561,4.713,1.23
		c1.012,0.67,1.558,1.625,1.835,3.051l0.023,0.125h0.127c0.176,0,0.383,0,0.462,0h0.125l0.024-0.125
		c0.279-1.428,0.826-2.385,1.84-3.055c1.016-0.668,2.527-1.043,4.724-1.227l0.154-0.012l-0.015-0.154L165.081,86.177z"/>
	<polygon fill="#333E48" points="156.829,86.026 156.938,86.136 158.151,84.942 159.255,86.026 158.151,87.108 156.938,85.917 
		156.829,86.026 156.938,86.136 156.829,86.026 156.722,86.136 158.151,87.538 159.691,86.026 158.151,84.513 156.611,86.026 
		156.722,86.136 	"/>
	<polyline fill="#333E48" points="151.351,90.528 151.351,81.321 151.045,81.321 151.045,90.528 	"/>
	<polyline fill="#333E48" points="165.271,90.528 165.271,81.321 164.966,81.321 164.966,90.528 	"/>
	<polyline fill="#333E48" points="165.841,90.435 150.473,90.435 150.473,90.739 165.841,90.739 	"/>
	<polyline fill="#333E48" points="165.841,92.88 150.473,92.88 150.473,93.187 165.841,93.187 	"/>
	<polyline fill="#333E48" points="165.841,81.29 150.473,81.29 150.473,81.595 165.841,81.595 	"/>
	<path fill="#333E48" d="M149.713,86.177l-0.012-0.152c-2.218,0.186-3.776,0.561-4.867,1.275c-1.093,0.717-1.688,1.777-1.972,3.254
		l0.15,0.027v-0.152c-0.078,0-0.285,0-0.462,0v0.152l0.149-0.027c-0.281-1.475-0.877-2.533-1.966-3.25
		c-1.09-0.715-2.645-1.092-4.855-1.279l-0.013,0.152l0.152-0.01c-0.003-0.031-0.004-0.1-0.004-0.164l0.002-0.125l-0.153-0.006
		l0.013,0.154c2.213-0.186,3.769-0.561,4.857-1.277c1.09-0.715,1.686-1.777,1.967-3.252l-0.149-0.029l0.001,0.154h0.044
		c0.165,0,0.297,0.004,0.412,0.01l0.007-0.152l-0.15,0.029c0.284,1.471,0.881,2.531,1.974,3.246c1.091,0.715,2.649,1.09,4.865,1.273
		l0.013-0.152l-0.153,0.004l0.001,0.025c0,0.074-0.008,0.09-0.009,0.17l0.006,0.115L149.713,86.177l-0.012-0.152L149.713,86.177
		l0.153-0.014l-0.005-0.088c-0.001-0.039,0.008-0.072,0.008-0.17v-0.033l-0.003-0.137l-0.138-0.012
		c-2.194-0.182-3.706-0.557-4.723-1.225c-1.014-0.668-1.562-1.623-1.841-3.049l-0.023-0.119l-0.12-0.006
		c-0.116-0.004-0.254-0.01-0.426-0.01h-0.046h-0.126L142.4,81.44c-0.277,1.428-0.823,2.385-1.836,3.053
		c-1.014,0.67-2.522,1.045-4.714,1.229l-0.137,0.01l-0.004,0.137l-0.002,0.135c0.001,0.068,0.001,0.137,0.005,0.184l0.009,0.131
		l0.131,0.012c2.19,0.186,3.699,0.561,4.713,1.23c1.012,0.67,1.558,1.625,1.835,3.051l0.023,0.125h0.127c0.177,0,0.384,0,0.462,0
		h0.126l0.023-0.125c0.279-1.428,0.826-2.385,1.84-3.055c1.017-0.668,2.528-1.043,4.725-1.227l0.153-0.012l-0.014-0.154
		L149.713,86.177z"/>
	<polygon fill="#333E48" points="141.461,86.026 141.569,86.136 142.783,84.942 143.886,86.026 142.783,87.108 141.569,85.917 
		141.461,86.026 141.569,86.136 141.461,86.026 141.354,86.136 142.783,87.538 144.323,86.026 142.783,84.513 141.243,86.026 
		141.354,86.136 	"/>
	<polyline fill="#333E48" points="135.982,90.528 135.982,81.321 135.677,81.321 135.677,90.528 	"/>
	<polyline fill="#333E48" points="149.902,90.528 149.902,81.321 149.597,81.321 149.597,90.528 	"/>
	<polyline fill="#333E48" points="150.473,90.435 135.105,90.435 135.105,90.739 150.473,90.739 	"/>
	<polyline fill="#333E48" points="150.473,92.88 135.105,92.88 135.105,93.187 150.473,93.187 	"/>
	<polyline fill="#333E48" points="150.473,81.29 135.105,81.29 135.105,81.595 150.473,81.595 	"/>
	<path fill="#333E48" d="M134.346,86.177l-0.013-0.152c-2.218,0.186-3.776,0.561-4.867,1.275c-1.092,0.717-1.688,1.777-1.972,3.254
		l0.149,0.027v-0.152c-0.077,0-0.285,0-0.462,0v0.152l0.15-0.027c-0.282-1.475-0.877-2.533-1.967-3.25
		c-1.089-0.715-2.644-1.092-4.854-1.279l-0.013,0.152l0.152-0.012c-0.003-0.029-0.004-0.096-0.004-0.158l0.002-0.127l-0.153-0.008
		l0.013,0.154c2.213-0.186,3.769-0.561,4.857-1.277c1.091-0.715,1.685-1.777,1.967-3.252l-0.15-0.029l0.001,0.154h0.045
		c0.165,0,0.297,0.004,0.412,0.01l0.007-0.152l-0.15,0.029c0.284,1.471,0.882,2.531,1.975,3.246c1.09,0.715,2.648,1.09,4.864,1.273
		l0.014-0.152l-0.154,0.004v0.02c0.001,0.078-0.007,0.094-0.008,0.174l0.006,0.117L134.346,86.177l-0.013-0.152L134.346,86.177
		l0.152-0.014l-0.006-0.09c0-0.039,0.009-0.072,0.009-0.174v-0.025l-0.002-0.139l-0.139-0.012c-2.195-0.182-3.706-0.557-4.723-1.225
		c-1.015-0.668-1.562-1.623-1.841-3.049l-0.023-0.119l-0.12-0.006c-0.116-0.004-0.254-0.01-0.426-0.01h-0.047h-0.125l-0.023,0.125
		c-0.277,1.428-0.823,2.385-1.836,3.053c-1.014,0.67-2.521,1.045-4.713,1.229l-0.136,0.01l-0.005,0.137l-0.002,0.139
		c0,0.068,0.001,0.135,0.005,0.182l0.01,0.131l0.13,0.01c2.19,0.186,3.699,0.561,4.712,1.23c1.012,0.67,1.558,1.625,1.835,3.051
		l0.023,0.125h0.126c0.177,0,0.385,0,0.462,0h0.127l0.023-0.125c0.278-1.428,0.826-2.385,1.84-3.055
		c1.017-0.668,2.528-1.043,4.725-1.227l0.153-0.012l-0.014-0.154L134.346,86.177z"/>
	<polygon fill="#333E48" points="126.093,86.026 126.2,86.136 127.416,84.942 128.519,86.026 127.416,87.108 126.2,85.917 
		126.093,86.026 126.2,86.136 126.093,86.026 125.986,86.136 127.416,87.538 128.955,86.026 127.416,84.513 125.875,86.026 
		125.986,86.136 	"/>
	<polyline fill="#333E48" points="120.614,90.528 120.614,81.321 120.309,81.321 120.309,90.528 	"/>
	<polyline fill="#333E48" points="134.534,90.528 134.534,81.321 134.229,81.321 134.229,90.528 	"/>
	<polyline fill="#333E48" points="135.105,90.435 119.737,90.435 119.737,90.739 135.105,90.739 	"/>
	<polyline fill="#333E48" points="135.105,92.88 119.737,92.88 119.737,93.187 135.105,93.187 	"/>
	<polyline fill="#333E48" points="135.105,81.29 119.737,81.29 119.737,81.595 135.105,81.595 	"/>
	<path fill="#333E48" d="M118.978,86.177l-0.014-0.152c-2.217,0.186-3.776,0.561-4.866,1.275c-1.093,0.717-1.689,1.777-1.972,3.254
		l0.149,0.027v-0.152c-0.077,0-0.285,0-0.462,0v0.152l0.151-0.027c-0.283-1.475-0.878-2.533-1.968-3.25
		c-1.089-0.715-2.644-1.092-4.854-1.279l-0.013,0.152l0.152-0.012c-0.003-0.031-0.004-0.102-0.004-0.168l0.001-0.119l-0.152-0.006
		l0.012,0.154c2.213-0.186,3.769-0.561,4.857-1.277c1.091-0.715,1.686-1.777,1.969-3.252l-0.151-0.029l0.001,0.154h0.045
		c0.165,0,0.296,0.004,0.412,0.01l0.006-0.152l-0.149,0.029c0.283,1.471,0.882,2.531,1.974,3.246s2.649,1.09,4.866,1.273
		l0.013-0.152l-0.154,0.004v0.02c0.001,0.078-0.007,0.096-0.008,0.176l0.006,0.115L118.978,86.177l-0.014-0.152L118.978,86.177
		l0.152-0.014l-0.006-0.088c0-0.039,0.008-0.072,0.009-0.176v-0.025l-0.002-0.139l-0.139-0.012
		c-2.195-0.182-3.706-0.557-4.723-1.225c-1.015-0.668-1.562-1.623-1.842-3.049l-0.022-0.119l-0.121-0.006
		c-0.115-0.004-0.253-0.01-0.425-0.01h-0.047h-0.125l-0.023,0.125c-0.278,1.428-0.823,2.385-1.836,3.053
		c-1.014,0.67-2.522,1.045-4.714,1.229l-0.137,0.01l-0.004,0.137l-0.001,0.129c0,0.072,0.001,0.143,0.005,0.191l0.01,0.131
		l0.13,0.01c2.19,0.186,3.698,0.561,4.711,1.23s1.558,1.625,1.836,3.051l0.023,0.125h0.126c0.177,0,0.385,0,0.462,0h0.127
		l0.023-0.125c0.278-1.428,0.825-2.385,1.84-3.055c1.016-0.668,2.527-1.043,4.724-1.227l0.153-0.012l-0.013-0.154L118.978,86.177z"
		/>
	<polygon fill="#333E48" points="110.725,86.026 110.832,86.136 112.048,84.942 113.15,86.026 112.048,87.108 110.832,85.917 
		110.725,86.026 110.832,86.136 110.725,86.026 110.618,86.136 112.048,87.538 113.587,86.026 112.048,84.513 110.507,86.026 
		110.618,86.136 	"/>
	<polyline fill="#333E48" points="105.246,90.528 105.246,81.321 104.939,81.321 104.939,90.528 	"/>
	<polyline fill="#333E48" points="119.166,90.528 119.166,81.321 118.86,81.321 118.86,90.528 	"/>
	<polyline fill="#333E48" points="119.737,90.435 104.369,90.435 104.369,90.739 119.737,90.739 	"/>
	<polyline fill="#333E48" points="119.737,92.88 104.369,92.88 104.369,93.187 119.737,93.187 	"/>
	<polyline fill="#333E48" points="119.737,81.29 104.369,81.29 104.369,81.595 119.737,81.595 	"/>
	<path fill="#333E48" d="M103.609,86.177l-0.013-0.152c-2.218,0.186-3.776,0.561-4.867,1.275c-1.093,0.717-1.689,1.777-1.972,3.254
		l0.149,0.027v-0.152c-0.077,0-0.285,0-0.462,0v0.152l0.151-0.027c-0.282-1.475-0.878-2.533-1.968-3.25
		c-1.089-0.715-2.645-1.092-4.855-1.279l-0.013,0.152l0.153-0.01c-0.002-0.031-0.004-0.1-0.004-0.164l0.002-0.125l-0.153-0.006
		l0.012,0.154c2.213-0.186,3.769-0.561,4.857-1.277c1.091-0.715,1.687-1.777,1.969-3.252l-0.151-0.029l0.001,0.154h0.045
		c0.166,0,0.296,0.004,0.412,0.01l0.006-0.152l-0.149,0.029c0.283,1.471,0.881,2.531,1.974,3.246
		c1.091,0.715,2.648,1.09,4.865,1.273l0.013-0.152l-0.152,0.004v0.025c0,0.074-0.009,0.09-0.009,0.17l0.007,0.115L103.609,86.177
		l-0.013-0.152L103.609,86.177l0.152-0.014l-0.006-0.088c-0.001-0.039,0.008-0.072,0.008-0.17v-0.033l-0.002-0.137l-0.138-0.012
		c-2.195-0.182-3.706-0.557-4.723-1.225c-1.015-0.668-1.562-1.623-1.842-3.049l-0.022-0.119l-0.121-0.006
		c-0.114-0.004-0.252-0.01-0.425-0.01h-0.047h-0.125l-0.024,0.125c-0.277,1.428-0.823,2.385-1.835,3.053
		c-1.014,0.67-2.522,1.045-4.714,1.229l-0.137,0.01l-0.004,0.137l-0.001,0.135c0,0.068,0.001,0.137,0.004,0.184l0.009,0.131
		l0.131,0.012c2.19,0.186,3.699,0.561,4.713,1.23c1.011,0.67,1.557,1.625,1.834,3.051l0.024,0.125h0.126c0.177,0,0.385,0,0.462,0
		h0.127l0.023-0.125c0.278-1.428,0.825-2.385,1.84-3.055c1.016-0.668,2.527-1.043,4.724-1.227l0.154-0.012l-0.014-0.154
		L103.609,86.177z"/>
	<polygon fill="#333E48" points="95.357,86.026 95.464,86.136 96.68,84.942 97.782,86.026 96.68,87.108 95.464,85.917 
		95.357,86.026 95.464,86.136 95.357,86.026 95.25,86.136 96.68,87.538 98.218,86.026 96.68,84.513 95.139,86.026 95.25,86.136 	"/>
	<polyline fill="#333E48" points="89.878,90.528 89.878,81.321 89.572,81.321 89.572,90.528 	"/>
	<polyline fill="#333E48" points="103.798,90.528 103.798,81.321 103.491,81.321 103.491,90.528 	"/>
	<polyline fill="#333E48" points="104.369,90.435 89,90.435 89,90.739 104.369,90.739 	"/>
	<polyline fill="#333E48" points="104.369,92.88 89,92.88 89,93.187 104.369,93.187 	"/>
	<polyline fill="#333E48" points="104.369,81.29 89,81.29 89,81.595 104.369,81.595 	"/>
	<path fill="#333E48" d="M88.241,86.177l-0.012-0.152c-2.218,0.186-3.776,0.561-4.867,1.275c-1.093,0.717-1.69,1.777-1.972,3.254
		l0.15,0.027v-0.152c-0.079,0-0.286,0-0.462,0v0.152l0.151-0.027c-0.282-1.475-0.878-2.533-1.968-3.25
		c-1.088-0.715-2.643-1.092-4.854-1.279l-0.013,0.152l0.153-0.01c-0.002-0.031-0.004-0.102-0.004-0.168l0.001-0.121l-0.153-0.006
		l0.013,0.154c2.212-0.186,3.768-0.561,4.856-1.277c1.091-0.715,1.686-1.777,1.968-3.252l-0.151-0.029l0.001,0.154h0.044
		c0.167,0,0.298,0.004,0.413,0.01l0.007-0.152l-0.15,0.029c0.284,1.471,0.881,2.531,1.974,3.246c1.091,0.715,2.649,1.09,4.865,1.273
		l0.013-0.152L88.09,85.88l0.001,0.023c0,0.074-0.008,0.092-0.009,0.17l0.006,0.117L88.241,86.177l-0.012-0.152L88.241,86.177
		l0.152-0.014l-0.005-0.09c-0.001-0.039,0.008-0.07,0.008-0.17v-0.029l-0.002-0.139l-0.138-0.012
		c-2.196-0.182-3.707-0.557-4.723-1.225c-1.015-0.668-1.562-1.623-1.841-3.049l-0.023-0.119l-0.12-0.006
		c-0.115-0.004-0.253-0.01-0.427-0.01h-0.045h-0.125l-0.024,0.125c-0.277,1.428-0.823,2.385-1.836,3.053
		c-1.013,0.67-2.522,1.045-4.714,1.229l-0.136,0.01l-0.004,0.137l-0.001,0.131c0,0.07,0.001,0.141,0.004,0.189l0.009,0.129
		l0.13,0.012c2.19,0.186,3.699,0.561,4.712,1.23c1.012,0.67,1.558,1.625,1.835,3.051l0.024,0.125h0.126c0.176,0,0.384,0,0.462,0
		h0.125l0.024-0.125c0.279-1.428,0.825-2.385,1.84-3.055c1.016-0.668,2.527-1.043,4.724-1.227l0.154-0.012l-0.015-0.154
		L88.241,86.177z"/>
	<polygon fill="#333E48" points="79.988,86.026 80.096,86.136 81.311,84.942 82.414,86.026 81.311,87.108 80.096,85.917 
		79.988,86.026 80.096,86.136 79.988,86.026 79.881,86.136 81.311,87.538 82.85,86.026 81.311,84.513 79.771,86.026 79.881,86.136 	
		"/>
	<polyline fill="#333E48" points="74.509,90.528 74.509,81.321 74.204,81.321 74.204,90.528 	"/>
	<polyline fill="#333E48" points="88.429,90.528 88.429,81.321 88.124,81.321 88.124,90.528 	"/>
	<polyline fill="#333E48" points="89,90.435 73.632,90.435 73.632,90.739 89,90.739 	"/>
	<polyline fill="#333E48" points="89,92.88 73.632,92.88 73.632,93.187 89,93.187 	"/>
	<polyline fill="#333E48" points="89,81.29 73.632,81.29 73.632,81.595 89,81.595 	"/>
	<path fill="#333E48" d="M72.873,86.177l-0.013-0.152c-2.218,0.186-3.776,0.561-4.867,1.275c-1.093,0.717-1.689,1.777-1.972,3.254
		l0.15,0.027v-0.152c-0.078,0-0.285,0-0.462,0v0.152l0.15-0.027c-0.282-1.475-0.877-2.533-1.967-3.25
		c-1.089-0.715-2.644-1.092-4.855-1.279l-0.013,0.152l0.152-0.01c-0.002-0.031-0.003-0.098-0.003-0.162l0.001-0.127l-0.152-0.006
		l0.013,0.154c2.212-0.186,3.768-0.561,4.856-1.277c1.09-0.715,1.686-1.777,1.968-3.252l-0.15-0.029l0.001,0.154h0.044
		c0.166,0,0.297,0.004,0.412,0.01l0.007-0.152l-0.15,0.029c0.284,1.471,0.881,2.531,1.974,3.246c1.091,0.715,2.648,1.09,4.865,1.273
		l0.012-0.152l-0.153,0.004l0,0.023c0,0.074-0.007,0.092-0.008,0.17l0.007,0.117L72.873,86.177l-0.013-0.152L72.873,86.177
		l0.152-0.014l-0.005-0.09c-0.001-0.039,0.008-0.07,0.008-0.17v-0.029l-0.002-0.139l-0.138-0.012
		c-2.195-0.182-3.707-0.557-4.723-1.225c-1.015-0.668-1.562-1.623-1.842-3.049l-0.022-0.119l-0.121-0.006
		c-0.115-0.004-0.253-0.01-0.426-0.01h-0.046h-0.125l-0.024,0.125c-0.278,1.428-0.823,2.385-1.835,3.053
		c-1.014,0.67-2.522,1.045-4.714,1.229l-0.136,0.01l-0.004,0.137l-0.002,0.137c0,0.068,0.001,0.135,0.004,0.184l0.01,0.129
		l0.129,0.012c2.191,0.186,3.699,0.561,4.713,1.23c1.012,0.67,1.557,1.625,1.835,3.051l0.024,0.125h0.126c0.177,0,0.384,0,0.462,0
		h0.126l0.023-0.125c0.279-1.428,0.826-2.385,1.84-3.055c1.016-0.668,2.528-1.043,4.724-1.227l0.154-0.012l-0.014-0.154
		L72.873,86.177z"/>
	<polygon fill="#333E48" points="64.62,86.026 64.728,86.136 65.942,84.942 67.045,86.026 65.942,87.108 64.728,85.917 
		64.62,86.026 64.728,86.136 64.62,86.026 64.513,86.136 65.942,87.538 67.481,86.026 65.942,84.513 64.402,86.026 64.513,86.136 	
		"/>
	<polyline fill="#333E48" points="59.141,90.528 59.141,81.321 58.835,81.321 58.835,90.528 	"/>
	<polyline fill="#333E48" points="73.062,90.528 73.062,81.321 72.755,81.321 72.755,90.528 	"/>
	<polyline fill="#333E48" points="73.632,90.435 58.264,90.435 58.264,90.739 73.632,90.739 	"/>
	<polyline fill="#333E48" points="73.632,92.88 58.264,92.88 58.264,93.187 73.632,93.187 	"/>
	<polyline fill="#333E48" points="73.632,81.29 58.264,81.29 58.264,81.595 73.632,81.595 	"/>
	<path fill="#333E48" d="M57.504,86.177l-0.013-0.152c-2.218,0.186-3.776,0.561-4.867,1.275c-1.092,0.717-1.689,1.777-1.972,3.254
		l0.15,0.027v-0.152c-0.078,0-0.286,0-0.462,0v0.152l0.15-0.027c-0.281-1.475-0.876-2.533-1.967-3.25
		c-1.088-0.715-2.643-1.092-4.854-1.279l-0.013,0.152l0.152-0.01c-0.002-0.031-0.003-0.102-0.003-0.168l0.001-0.121l-0.153-0.006
		l0.013,0.154c2.213-0.186,3.769-0.561,4.857-1.277c1.091-0.715,1.686-1.777,1.967-3.252l-0.15-0.029l0.001,0.154h0.044
		c0.166,0,0.297,0.004,0.412,0.01l0.007-0.152l-0.15,0.029c0.284,1.471,0.882,2.531,1.974,3.246c1.091,0.715,2.649,1.09,4.865,1.273
		l0.013-0.152l-0.153,0.004l0,0.02c0,0.078-0.007,0.096-0.008,0.176l0.006,0.115L57.504,86.177l-0.013-0.152L57.504,86.177
		l0.152-0.014l-0.005-0.088c0-0.041,0.008-0.072,0.008-0.176v-0.025l-0.002-0.139l-0.138-0.012
		c-2.195-0.182-3.707-0.557-4.723-1.225c-1.014-0.668-1.562-1.623-1.841-3.049l-0.023-0.119l-0.121-0.006
		c-0.115-0.004-0.252-0.01-0.425-0.01H50.34h-0.125L50.19,81.44c-0.277,1.428-0.823,2.385-1.835,3.053
		c-1.014,0.67-2.523,1.045-4.714,1.229l-0.137,0.01L43.5,85.868L43.5,85.999c0,0.07,0.001,0.141,0.005,0.189l0.009,0.129l0.13,0.012
		c2.19,0.186,3.698,0.561,4.712,1.23c1.012,0.67,1.558,1.625,1.835,3.051l0.024,0.125h0.126c0.176,0,0.384,0,0.462,0h0.126
		l0.024-0.125c0.279-1.428,0.826-2.385,1.839-3.055c1.017-0.668,2.528-1.043,4.725-1.227l0.153-0.012l-0.014-0.154L57.504,86.177z"
		/>
	<polygon fill="#333E48" points="49.252,86.026 49.359,86.136 50.574,84.942 51.677,86.026 50.574,87.108 49.359,85.917 
		49.252,86.026 49.359,86.136 49.252,86.026 49.145,86.136 50.574,87.538 52.113,86.026 50.574,84.513 49.034,86.026 49.145,86.136 
			"/>
	<polyline fill="#333E48" points="43.772,90.528 43.772,81.321 43.467,81.321 43.467,90.528 	"/>
	<polyline fill="#333E48" points="57.693,90.528 57.693,81.321 57.387,81.321 57.387,90.528 	"/>
	<polyline fill="#333E48" points="58.264,90.435 42.896,90.435 42.896,90.739 58.264,90.739 	"/>
	<polyline fill="#333E48" points="58.264,92.88 42.896,92.88 42.896,93.187 58.264,93.187 	"/>
	<polyline fill="#333E48" points="58.264,81.29 42.896,81.29 42.896,81.595 58.264,81.595 	"/>
	<path fill="#333E48" d="M42.136,86.177l-0.013-0.152c-2.217,0.186-3.776,0.561-4.866,1.275c-1.093,0.717-1.69,1.777-1.973,3.254
		l0.15,0.027v-0.152c-0.078,0-0.285,0-0.461,0v0.152l0.15-0.027c-0.281-1.475-0.877-2.533-1.967-3.25
		c-1.088-0.715-2.643-1.092-4.854-1.279l-0.013,0.152l0.152-0.01c-0.002-0.031-0.003-0.102-0.003-0.168l0.001-0.121l-0.153-0.006
		l0.013,0.154c2.213-0.186,3.768-0.561,4.857-1.277c1.091-0.715,1.686-1.777,1.967-3.252l-0.15-0.029l0.001,0.154h0.044
		c0.166,0,0.298,0.004,0.412,0.01l0.007-0.152l-0.15,0.029c0.284,1.471,0.881,2.531,1.974,3.246c1.09,0.715,2.648,1.09,4.865,1.273
		l0.013-0.152l-0.153,0.004v0.023c0,0.074-0.007,0.092-0.008,0.17l0.006,0.117L42.136,86.177l-0.013-0.152L42.136,86.177
		l0.152-0.014l-0.005-0.09c-0.001-0.039,0.008-0.07,0.008-0.17v-0.031l-0.002-0.137l-0.138-0.012
		c-2.195-0.182-3.707-0.557-4.723-1.225c-1.015-0.668-1.562-1.623-1.841-3.049l-0.023-0.119l-0.12-0.006
		c-0.116-0.004-0.253-0.01-0.426-0.01h-0.046h-0.125l-0.023,0.125c-0.277,1.428-0.824,2.385-1.836,3.053
		c-1.014,0.67-2.522,1.045-4.714,1.229l-0.137,0.01l-0.003,0.137l-0.001,0.131c0,0.07,0.001,0.141,0.004,0.189l0.009,0.129
		l0.13,0.012c2.19,0.186,3.698,0.561,4.712,1.23c1.012,0.67,1.558,1.625,1.835,3.051l0.023,0.125h0.126c0.176,0,0.384,0,0.461,0
		h0.126l0.024-0.125c0.279-1.428,0.826-2.385,1.84-3.055c1.016-0.668,2.528-1.043,4.725-1.227l0.154-0.012l-0.015-0.154
		L42.136,86.177z"/>
	<polygon fill="#333E48" points="33.883,86.026 33.99,86.136 35.206,84.942 36.309,86.026 35.206,87.108 33.99,85.917 
		33.883,86.026 33.99,86.136 33.883,86.026 33.776,86.136 35.206,87.538 36.746,86.026 35.206,84.513 33.666,86.026 33.776,86.136 	
		"/>
	<polyline fill="#333E48" points="28.405,90.528 28.405,81.321 28.099,81.321 28.099,90.528 	"/>
	<polyline fill="#333E48" points="42.325,90.528 42.325,81.321 42.019,81.321 42.019,90.528 	"/>
	<polyline fill="#333E48" points="42.896,90.435 27.527,90.435 27.527,90.739 42.896,90.739 	"/>
	<polyline fill="#333E48" points="42.896,92.88 27.527,92.88 27.527,93.187 42.896,93.187 	"/>
	<polyline fill="#333E48" points="42.896,81.29 27.527,81.29 27.527,81.595 42.896,81.595 	"/>
	<path fill="#333E48" d="M26.768,86.177l-0.012-0.152c-2.218,0.186-3.776,0.561-4.867,1.275c-1.093,0.717-1.689,1.777-1.972,3.254
		l0.15,0.027v-0.152c-0.078,0-0.286,0-0.462,0v0.152l0.15-0.027c-0.282-1.475-0.877-2.533-1.968-3.25
		c-1.088-0.715-2.643-1.092-4.854-1.279l-0.013,0.152l0.152-0.01c-0.002-0.031-0.004-0.098-0.003-0.162l0.001-0.127l-0.153-0.006
		l0.013,0.154c2.213-0.186,3.768-0.561,4.857-1.277c1.09-0.715,1.686-1.777,1.968-3.252l-0.15-0.029l0,0.154h0.044
		c0.166,0,0.298,0.004,0.413,0.01l0.007-0.152l-0.15,0.029c0.284,1.471,0.881,2.531,1.974,3.246c1.091,0.715,2.649,1.09,4.865,1.273
		l0.013-0.152l-0.153,0.004l0,0.023c0,0.074-0.008,0.092-0.009,0.17l0.007,0.117L26.768,86.177l-0.012-0.152L26.768,86.177
		l0.152-0.014l-0.005-0.09c-0.001-0.039,0.008-0.07,0.008-0.17v-0.029l-0.002-0.139l-0.138-0.012
		c-2.196-0.182-3.707-0.557-4.723-1.225c-1.015-0.668-1.562-1.623-1.841-3.049l-0.022-0.119l-0.121-0.006
		c-0.115-0.004-0.253-0.01-0.426-0.01h-0.046h-0.125l-0.024,0.125c-0.277,1.428-0.823,2.385-1.835,3.053
		c-1.014,0.67-2.522,1.045-4.714,1.229l-0.136,0.01l-0.004,0.137l-0.002,0.137c0,0.068,0.001,0.135,0.005,0.184l0.009,0.129
		l0.13,0.012c2.191,0.186,3.699,0.561,4.712,1.23c1.012,0.67,1.558,1.625,1.835,3.051l0.024,0.125h0.126c0.176,0,0.384,0,0.462,0
		h0.125l0.024-0.125c0.279-1.428,0.825-2.385,1.84-3.055c1.016-0.668,2.528-1.043,4.724-1.227l0.154-0.012l-0.015-0.154
		L26.768,86.177z"/>
	<polygon fill="#333E48" points="18.516,86.026 18.623,86.136 19.838,84.942 20.94,86.026 19.838,87.108 18.623,85.917 
		18.516,86.026 18.623,86.136 18.516,86.026 18.408,86.136 19.838,87.538 21.377,86.026 19.838,84.513 18.297,86.026 18.408,86.136 
			"/>
	<polyline fill="#333E48" points="13.037,90.528 13.037,81.321 12.73,81.321 12.73,90.528 	"/>
	<polyline fill="#333E48" points="26.956,90.528 26.956,81.321 26.651,81.321 26.651,90.528 	"/>
	<polyline fill="#333E48" points="27.527,90.435 12.159,90.435 12.159,90.739 27.527,90.739 	"/>
	<polyline fill="#333E48" points="27.527,92.88 12.159,92.88 12.159,93.187 27.527,93.187 	"/>
	<polyline fill="#333E48" points="27.527,81.29 12.159,81.29 12.159,81.595 27.527,81.595 	"/>
	<polygon fill="#333E48" points="2.853,3.411 2.853,3.572 11.751,3.572 11.751,12.276 3.015,12.276 3.015,3.411 2.853,3.411 
		2.853,3.572 2.853,3.411 2.692,3.411 2.692,12.599 12.074,12.599 12.074,3.25 2.692,3.25 2.692,3.411 	"/>
	<polygon fill="#333E48" points="0.586,12.703 0.586,1.146 12.159,1.146 12.159,0.822 0.263,0.822 0.263,12.703 	"/>
	<polygon fill="#333E48" points="10.19,5.107 10.029,5.107 10.029,10.575 4.73,10.575 4.73,5.269 10.19,5.269 10.19,5.107 
		10.029,5.107 10.19,5.107 10.19,4.945 4.408,4.945 4.408,10.898 10.352,10.898 10.352,4.945 10.19,4.945 	"/>
	<polygon fill="#333E48" points="175.142,3.404 174.979,3.404 174.979,12.302 166.276,12.302 166.276,3.565 175.142,3.565 
		175.142,3.404 174.979,3.404 175.142,3.404 175.142,3.243 165.953,3.243 165.953,12.625 175.303,12.625 175.303,3.243 
		175.142,3.243 	"/>
	<polygon fill="#333E48" points="165.848,1.137 177.406,1.137 177.406,12.709 177.729,12.709 177.729,0.814 165.848,0.814 	"/>
	<polygon fill="#333E48" points="173.444,10.741 173.444,10.58 167.977,10.58 167.977,5.281 173.283,5.281 173.283,10.741 
		173.444,10.741 173.444,10.58 173.444,10.741 173.605,10.741 173.605,4.958 167.654,4.958 167.654,10.903 173.605,10.903 
		173.605,10.741 	"/>
	<polygon fill="#333E48" points="175.147,90.589 175.147,90.427 166.249,90.427 166.249,81.724 174.986,81.724 174.986,90.589 
		175.147,90.589 175.147,90.427 175.147,90.589 175.309,90.589 175.309,81.401 165.927,81.401 165.927,90.751 175.309,90.751 
		175.309,90.589 	"/>
	<polygon fill="#333E48" points="177.415,81.296 177.415,92.854 165.842,92.854 165.842,93.177 177.738,93.177 177.738,81.296 	"/>
	<polygon fill="#333E48" points="167.811,88.892 167.972,88.892 167.972,83.425 173.271,83.425 173.271,88.731 167.811,88.731 
		167.811,88.892 167.972,88.892 167.811,88.892 167.811,89.054 173.593,89.054 173.593,83.103 167.649,83.103 167.649,89.054 
		167.811,89.054 	"/>
	<polygon fill="#333E48" points="2.86,90.595 3.021,90.595 3.021,81.698 11.725,81.698 11.725,90.435 2.86,90.435 2.86,90.595 
		3.021,90.595 2.86,90.595 2.86,90.757 12.047,90.757 12.047,81.374 2.699,81.374 2.699,90.757 2.86,90.757 	"/>
	<polygon fill="#333E48" points="12.152,92.862 0.594,92.862 0.594,81.29 0.271,81.29 0.271,93.185 12.152,93.185 	"/>
	<polygon fill="#333E48" points="4.556,83.257 4.556,83.419 10.024,83.419 10.024,88.718 4.718,88.718 4.718,83.257 4.556,83.257 
		4.556,83.419 4.556,83.257 4.395,83.257 4.395,89.042 10.347,89.042 10.347,83.097 4.395,83.097 4.395,83.257 	"/>
	<path fill="#41535C" d="M49.604,39.563l-0.516,1.752h-4.652l-7.125,26.068l-2.602,0.766l-0.125-0.254l6.568-26.582h-3.841
		l0.47-1.75h3.754c1.365-4.739,2.476-8.279,6.401-11.693c1.154-1.026,2.945-2.048,4.566-2.048c0.854,0,1.751,0.341,1.751,1.367
		c0,0.596-0.428,2.047-1.194,2.047c-0.81,0-1.708-0.854-2.689-0.854c-2.605,0-3.372,2.905-3.97,5.339l-1.492,5.843h4.698H49.604z"/>
	<path fill="#41535C" d="M54.242,44.637c1.066-1.582,4.356-5.715,6.448-5.715c1.067,0,1.748,0.47,1.748,1.621
		c0,0.472-0.174,1.281-0.43,2.22l-1.62,5.847h0.081c1.16-2.18,5.167-9.688,7.86-9.688c0.891,0,1.32,0.517,1.32,1.459
		c0,0.98-0.466,3.159-1.792,3.159c-0.511,0-1.069-0.172-1.579-0.172c-2.945,0-5.973,8.277-7.379,12.631l-0.771,2.727
		c-0.082,0.301-0.77,0.348-1.534,0.348c-0.556,0-1.366-0.391-1.366-0.773c0.007-0.131,0.036-0.26,0.082-0.385l3.374-11.783
		c0.216-0.684,0.511-1.877,0.511-2.516c0-0.471-0.255-1.113-0.811-1.113c-1.151,0-2.903,2.008-3.585,2.862L54.242,44.637z"/>
	<path fill="#41535C" d="M90.377,53.511c-2.814,3.121-5.932,5.553-9.684,5.553c-3.925,0-5.249-2.904-5.249-5.762
		c0-6.83,6.099-14.382,12.29-14.382c1.919,0,4.18,0.685,4.18,3.033c0,5.802-8.151,7.81-12.717,8.236
		c-0.241,1.076-0.357,2.18-0.346,3.285c0,2.131,1.498,3.285,3.504,3.285c2.473,0,4.995-1.621,7.42-3.971L90.377,53.511z
		 M88.498,42.121c0-1.106-0.638-1.835-1.749-1.835c-3.281,0-6.657,5.973-7.336,8.792C83.336,48.821,88.499,46.774,88.498,42.121
		L88.498,42.121z"/>
	<path fill="#41535C" d="M99.244,53.087c0.43,2.432,3.202,3.412,5.421,3.412c1.195,0,3.801-0.299,3.801-1.918
		c0-2.943-6.232-4.779-7.473-7.549c-0.3-0.603-0.383-1.325-0.383-1.967c0-2.218,2.988-4.136,4.656-5.2
		c1.146-0.731,1.789-0.946,3.153-0.946c1.752,0,3.714,0.47,3.714,2.561c0,0.515-0.381,1.923-0.898,1.923h-0.514
		c-0.339,0-0.426-0.297-0.591-0.64c-0.389-0.81-2.095-1.535-3.505-1.535c-1.447,0-3.2,0.766-3.2,2.431
		c0,3.498,7.558,4.437,7.558,8.874c0,1.664-1.669,3.494-2.777,4.564c-1.407,1.408-3.112,1.967-5.076,1.967
		c-2.049,0-5.418-0.598-5.418-3.332c0-0.979,0.513-1.793,0.979-2.646h0.554V53.087z"/>
	<path fill="#41535C" d="M124.539,48.484h0.088c1.837-2.906,7.636-9.562,11.609-9.562c2.257,0,3.072,1.621,3.072,3.718
		c0,4.305-5.21,15.787-9.603,15.787c-0.809,0-1.027-0.426-1.027-0.939c0-0.26,0.128-0.604,0.215-0.855l0.896-2.088h2.939
		c1.328-2.648,3.161-7.6,3.161-10.539c0-1.459-0.429-2.522-1.706-2.522c-2.943,0-7.978,6.533-9.219,8.872
		c-1.447,2.734-1.751,4.051-2.558,7.299c-0.086,0.387-0.386,0.682-1.835,0.682c-0.559,0-1.367-0.211-1.367-0.721
		c0-0.428,0.171-0.898,0.255-1.322l6.75-27.611l-2.092-1.195l0.125-0.553c0.685-0.088,1.752-0.212,2.817-0.387
		c1.023-0.181,2.039-0.422,3.032-0.724l0.468,0.174L124.539,48.484z"/>
	<path fill="#41535C" d="M138.113,57.544c-0.018-1.467,1.16-2.664,2.623-2.68c1.468-0.016,2.666,1.158,2.682,2.623
		c0.017,1.465-1.158,2.666-2.627,2.682h-0.028C139.312,60.167,138.128,58.995,138.113,57.544z M142.985,57.544
		c0-1.26-0.971-2.336-2.223-2.336c-1.254,0-2.223,1.086-2.223,2.336c0,1.203,0.982,2.285,2.223,2.285
		c1.238,0,2.221-1.082,2.221-2.285H142.985z M140.77,58.907h-1.256v-0.104c0.33-0.047,0.387-0.037,0.387-0.242v-2.01
		c0-0.355,0.013-0.346-0.371-0.385v-0.115h1.361c0.465,0,0.89,0.223,0.89,0.713c0,0.389-0.263,0.686-0.627,0.811l0.436,0.613
		c0.171,0.238,0.368,0.459,0.586,0.658v0.062h-0.488c-0.246,0-0.436-0.533-0.927-1.266h-0.37v0.918c0,0.209,0.053,0.199,0.384,0.244
		v0.102H140.77z M140.39,57.497h0.34c0.359,0,0.518-0.279,0.518-0.697c0-0.455-0.244-0.604-0.531-0.604h-0.324v1.297L140.39,57.497z
		"/>
</g>
</svg>
