<?xml version="1.0" encoding="utf-8"?>
<!-- Generator: Adobe Illustrator 16.0.0, SVG Export Plug-In . SVG Version: 6.00 Build 0)  -->
<!DOCTYPE svg PUBLIC "-//W3C//DTD SVG 1.1//EN" "http://www.w3.org/Graphics/SVG/1.1/DTD/svg11.dtd">
<svg version="1.1" id="Layer_1" xmlns="http://www.w3.org/2000/svg" xmlns:xlink="http://www.w3.org/1999/xlink" x="0px" y="0px"
	 width="25.731px" height="25.633px" viewBox="-0.75 -0.75 25.731 25.633" enable-background="new -0.75 -0.75 25.731 25.633"
	 xml:space="preserve">
<g display="none">
	<path display="inline" fill="none" stroke="#38424A" stroke-width="1.5" stroke-miterlimit="10" d="M16.25,8.375
		c0,4.349-7.875,17.15-7.875,17.15S0.5,12.724,0.5,8.375S4.026,0.5,8.375,0.5C12.724,0.5,16.25,4.026,16.25,8.375z"/>
	<path display="inline" fill="#C7202E" d="M14.233,7.078c-0.227-0.646-0.728-1.147-1.335-1.447c-1.479-0.73-3.676-0.194-4.335,1.374
		c0-0.006-0.001-0.013-0.002-0.018C8.547,6.902,8.454,6.88,8.404,6.95C8.375,6.99,8.347,7.031,8.32,7.073
		c0.001-0.048,0.004-0.094,0.004-0.141C8.324,6.84,8.186,6.83,8.166,6.916C8.146,7.01,8.125,7.104,8.106,7.198
		C7.833,6.531,7.271,6.006,6.609,5.678C5.647,5.2,4.594,5.303,3.665,5.804c-0.803,0.432-1.28,1.208-1.305,2.115
		c-0.024,0.938,0.409,1.862,0.94,2.609c0.262,0.37,0.571,0.708,0.91,1.012c0.36,0.322,0.773,0.557,1.177,0.821
		c1.088,0.714,2.206,1.47,2.848,2.636c0.055,0.099,0.203,0.007,0.149-0.092c-0.056-0.101-0.115-0.195-0.176-0.29
		c0.011-0.008,0.02-0.016,0.026-0.027c0.018-0.029,0.033-0.061,0.049-0.088c0.015,0.086,0.133,0.089,0.159,0.006
		c0.051-0.146,0.086-0.297,0.115-0.447c0.006,0.125,0.023,0.25,0.057,0.375c0.018,0.071,0.115,0.075,0.149,0.017
		c0.06-0.101,0.103-0.205,0.137-0.313c0.011,0.125,0.023,0.25,0.042,0.375c0.001,0.012,0.007,0.022,0.014,0.034
		c-0.231,0.274-0.419,0.585-0.502,0.935c-0.03,0.125,0.157,0.168,0.191,0.045c0.164-0.584,0.598-1.029,1.041-1.42
		c0.478-0.422,1.006-0.776,1.513-1.162c1.071-0.813,2.069-1.771,2.691-2.979C14.337,9.095,14.564,8.023,14.233,7.078z M9.908,5.827
		c0.02-0.011,0.041-0.021,0.062-0.031C9.967,5.798,9.964,5.801,9.962,5.805C9.761,6.198,9.637,6.621,9.519,7.047
		c-0.032-0.166-0.072-0.333-0.12-0.499C9.386,6.51,9.357,6.492,9.324,6.488C9.326,6.45,9.327,6.412,9.327,6.373
		c0-0.042-0.028-0.064-0.061-0.066C9.447,6.123,9.657,5.961,9.908,5.827z M10.756,7.211c-0.016,0.066-0.032,0.132-0.047,0.198
		c-0.051,0.09-0.099,0.182-0.143,0.275c0.011-0.055,0.021-0.107,0.031-0.162c0.01-0.006,0.02-0.015,0.024-0.025
		C10.67,7.403,10.714,7.308,10.756,7.211z M12.561,5.949c0.036,0.092,0.06,0.186,0.071,0.281c-0.045,0.093-0.087,0.187-0.126,0.279
		c-0.007-0.108-0.02-0.216-0.034-0.325c-0.005-0.042-0.028-0.072-0.058-0.089C12.458,6.043,12.507,5.995,12.561,5.949z M12.87,6.225
		c0.04,0.191,0.062,0.386,0.068,0.584c-0.087,0.264-0.174,0.526-0.285,0.779c0.054-0.408,0.165-0.829,0.146-1.23
		C12.824,6.313,12.847,6.27,12.87,6.225z M11.461,12.458c-0.002-0.105,0-0.211,0.002-0.317c0.111-0.187,0.205-0.379,0.284-0.576
		c0.002,0.101,0.007,0.199,0.015,0.297c0.011,0.134,0.188,0.146,0.226,0.022c0.125-0.395,0.227-0.795,0.319-1.198
		c0.045-0.111,0.088-0.225,0.129-0.34c-0.063,0.329-0.127,0.657-0.178,0.988c-0.02,0.123,0.131,0.179,0.2,0.077
		c0.148-0.217,0.264-0.445,0.357-0.684c-0.002,0.095,0,0.188,0.008,0.28c0.004,0.061,0.038,0.096,0.083,0.106
		c-0.435,0.51-0.938,0.967-1.452,1.381C11.458,12.485,11.461,12.473,11.461,12.458z M9.619,13.265
		c-0.024-0.043-0.044-0.089-0.062-0.135c0.049-0.206,0.092-0.412,0.132-0.618c0.021-0.011,0.035-0.028,0.042-0.053
		C9.777,12.306,9.819,12.152,9.861,12c0.005-0.01,0.009-0.021,0.014-0.028c-0.046,0.383-0.162,0.757-0.148,1.143
		C9.694,13.167,9.659,13.217,9.619,13.265z M6.441,12.466c-0.03-0.086-0.06-0.174-0.083-0.264c0.085-0.113,0.161-0.231,0.226-0.355
		c0.001,0.045,0.003,0.09,0.005,0.135c0.001,0.022,0.009,0.04,0.02,0.054C6.571,12.186,6.519,12.33,6.441,12.466z M4.606,11.198
		c-0.048-0.037-0.082-0.095-0.104-0.163c0.005-0.02,0.01-0.038,0.017-0.058c0.007,0.01,0.015,0.021,0.021,0.031
		c0.02,0.024,0.053,0.026,0.069-0.002c0.035-0.054,0.068-0.109,0.101-0.165C4.669,10.966,4.594,11.188,4.606,11.198z M3.545,9.02
		c0.003-0.016,0.006-0.033,0.008-0.048c-0.001,0.03-0.002,0.061-0.003,0.09C3.549,9.047,3.547,9.034,3.545,9.02z M3.277,9.583
		C3.25,9.531,3.228,9.477,3.208,9.421c0.009-0.008,0.017-0.018,0.02-0.03c0.067-0.289,0.124-0.58,0.176-0.872
		c0.01,0.164,0.023,0.327,0.042,0.487C3.411,9.203,3.358,9.396,3.277,9.583z M3.12,6.946C3.093,7.113,3.068,7.281,3.045,7.448
		C3.05,7.38,3.058,7.313,3.067,7.246C3.079,7.159,3.092,7.051,3.12,6.946z M3.205,6.896C3.165,7.638,3.17,8.382,3.124,9.123
		C3.056,8.808,3.042,8.471,3.031,8.171C3.086,7.746,3.134,7.319,3.205,6.896z M3.487,8.038c0.008-0.04,0.015-0.081,0.021-0.121
		c0.001,0.199,0,0.397-0.01,0.595C3.489,8.355,3.484,8.196,3.487,8.038z M3.799,7.132c-0.009-0.17-0.017-0.34-0.025-0.509
		c0.018-0.038,0.036-0.074,0.055-0.11C3.842,6.486,3.823,6.462,3.8,6.457c0.019-0.073,0.038-0.146,0.059-0.22
		C3.879,6.535,3.847,6.834,3.799,7.132z M3.775,8.645c0.011-0.264,0.021-0.527,0.053-0.789C3.838,7.997,3.85,8.137,3.864,8.278
		C3.836,8.4,3.807,8.523,3.775,8.645z M3.761,6.65C3.77,6.835,3.777,7.02,3.788,7.205C3.765,7.347,3.739,7.488,3.716,7.63
		c0.007-0.272,0.008-0.543-0.001-0.815C3.724,6.773,3.734,6.731,3.744,6.69C3.75,6.677,3.755,6.664,3.761,6.65z M3.896,8.584
		C3.899,8.61,3.903,8.636,3.905,8.661C3.867,8.975,3.823,9.288,3.762,9.597C3.753,9.429,3.754,9.26,3.759,9.091
		C3.809,8.923,3.854,8.754,3.896,8.584z M4.463,10.765c-0.004-0.007-0.008-0.013-0.012-0.019c-0.011-0.177,0.002-0.357,0.002-0.466
		c0-0.043,0.002-0.085,0.004-0.128c0.001-0.012,0.005-0.022,0.007-0.035c0.029-0.086,0.052-0.175,0.072-0.263
		c0.019,0.114,0.041,0.229,0.065,0.341C4.56,10.387,4.514,10.576,4.463,10.765z M4.619,9.386c0.032-0.166,0.066-0.332,0.1-0.498
		C4.723,8.91,4.736,8.925,4.753,8.935C4.713,9.207,4.681,9.48,4.66,9.753C4.642,9.631,4.628,9.509,4.619,9.386z M4.891,8.104
		C4.868,8.233,4.845,8.361,4.823,8.49C4.822,8.452,4.821,8.413,4.82,8.375C4.87,8.124,4.92,7.872,4.971,7.621
		C4.96,7.702,4.949,7.786,4.939,7.87C4.922,7.948,4.905,8.026,4.891,8.104z M4.396,9.409C4.374,9.514,4.354,9.618,4.335,9.723
		C4.312,9.419,4.332,9.108,4.359,8.805c0.035-0.391,0.066-0.79,0.146-1.175C4.51,7.605,4.516,7.579,4.521,7.553
		C4.507,7.718,4.494,7.883,4.484,8.05C4.458,8.49,4.447,8.937,4.481,9.379C4.453,9.362,4.406,9.371,4.396,9.409z M4.545,5.915
		C4.65,6.183,4.592,6.524,4.551,6.79C4.523,6.976,4.484,7.159,4.444,7.341c0.037-0.424,0.062-0.85,0.047-1.275
		C4.508,6.015,4.526,5.965,4.545,5.915z M3.916,8.582C3.914,8.566,3.911,8.549,3.909,8.533C3.917,8.498,3.925,8.464,3.933,8.43
		C3.928,8.481,3.922,8.532,3.916,8.582z M3.954,9.097C3.949,9.149,3.944,9.2,3.939,9.252c-0.006,0.031-0.012,0.06-0.018,0.09
		C3.933,9.26,3.943,9.179,3.954,9.097z M4.987,8.997C4.992,9.014,5.012,9.02,5.028,9.016c-0.002,0.04-0.003,0.08-0.003,0.12
		C5.01,9.198,4.995,9.259,4.98,9.321C4.98,9.213,4.983,9.104,4.987,8.997C4.987,8.996,4.988,8.996,4.987,8.997z M5.057,8.563
		C5.042,8.647,5.03,8.731,5.018,8.816C5.012,8.776,5.007,8.738,5.004,8.7c0.019-0.286,0.047-0.573,0.081-0.858
		c0.024-0.114,0.051-0.23,0.076-0.344C5.13,7.853,5.087,8.208,5.057,8.563z M4.601,8.298c0.003-0.084,0.006-0.169,0.011-0.253
		c0.025-0.552,0.083-1.091,0.177-1.628c-0.046,0.53-0.11,1.058-0.119,1.588C4.652,8.077,4.634,8.15,4.617,8.223
		C4.612,8.249,4.606,8.274,4.601,8.298z M4.713,6.145C4.701,6.001,4.667,5.861,4.589,5.741c-0.021-0.034-0.084-0.04-0.103,0.003
		C4.472,5.78,4.457,5.816,4.443,5.852c-0.027-0.007-0.062,0.003-0.07,0.04C4.347,6.001,4.325,6.11,4.305,6.22
		C4.299,6.226,4.294,6.232,4.291,6.243C4.26,6.38,4.229,6.517,4.2,6.654C4.188,6.705,4.178,6.756,4.167,6.807
		c0-0.076-0.002-0.153-0.006-0.229c-0.001-0.024-0.035-0.022-0.035,0c0,0.029,0,0.06,0,0.091c-0.016,0.007-0.016,0.03,0,0.067
		c0,0.104-0.003,0.206-0.007,0.31C4.04,7.438,3.963,7.833,3.875,8.225c-0.015-0.15-0.026-0.299-0.037-0.449c0-0.001,0-0.002,0-0.004
		c0.088-0.613,0.239-1.246,0.105-1.863C3.941,5.889,3.931,5.877,3.918,5.87C4.208,5.726,4.52,5.626,4.83,5.575
		C4.788,5.765,4.748,5.955,4.713,6.145z M3.67,10.048c0.004,0.017,0.012,0.029,0.023,0.037c-0.013,0.03-0.025,0.06-0.04,0.089
		c-0.002-0.082-0.004-0.162-0.005-0.242C3.656,9.97,3.663,10.01,3.67,10.048z M4.173,8.36c0.029-0.27,0.053-0.54,0.078-0.811
		C4.231,7.908,4.209,8.267,4.193,8.625C4.163,8.967,4.144,9.308,4.15,9.646C4.145,9.648,4.14,9.653,4.141,9.659
		c0.004,0.017,0.006,0.033,0.01,0.051c0.004,0.167,0.016,0.334,0.034,0.501c0.007,0.105,0.015,0.211,0.023,0.317
		c-0.03,0.188-0.066,0.375-0.115,0.56c-0.165-0.301-0.249-0.65-0.277-1.007C4.037,9.538,4.11,8.937,4.173,8.36z M4.569,10.919
		c-0.009-0.01-0.017-0.021-0.024-0.031c0.048-0.17,0.093-0.341,0.134-0.513c0.041,0.013,0.093-0.017,0.094-0.068
		c0.003-0.156,0.011-0.313,0.021-0.471c0.021-0.115,0.042-0.23,0.063-0.345c0,0.133,0.006,0.266,0.015,0.398
		c-0.017,0.146-0.029,0.291-0.052,0.433c-0.012,0.071-0.023,0.145-0.037,0.216C4.717,10.667,4.645,10.793,4.569,10.919z
		 M4.999,9.908C5.006,9.848,5.014,9.79,5.021,9.73c0.003-0.024,0.008-0.05,0.013-0.075c0.004,0.055,0.008,0.11,0.013,0.164
		c0,0.014,0,0.024-0.001,0.036C5.043,9.859,5.041,9.862,5.04,9.867C5.03,9.909,5.019,9.949,5.006,9.99
		C5.003,9.962,5,9.935,4.999,9.908z M5.572,7.952c0.048-0.42,0.139-0.84,0.187-1.261c0.06,0.379,0.08,0.766,0.079,1.151
		c-0.005,0.035-0.009,0.067-0.013,0.1C5.761,8.267,5.683,8.585,5.573,8.896c-0.005-0.023-0.008-0.05-0.011-0.075
		C5.575,8.533,5.574,8.242,5.572,7.952z M5.669,6.26C5.662,6.512,5.625,6.767,5.58,7.021c0.01-0.271,0.032-0.542,0.078-0.81
		C5.662,6.228,5.667,6.245,5.669,6.26z M6.41,9.845c0.005-0.072,0.014-0.142,0.023-0.21c0.004-0.031-0.007-0.053-0.025-0.068
		c-0.001-0.157,0-0.315,0.003-0.472c0-0.034,0.001-0.068,0.002-0.103c0.001-0.033,0.004-0.067,0.006-0.1
		c0.002,0.032,0.003,0.064,0.006,0.095c0.031,0.583,0.081,1.173,0.156,1.758c-0.008,0.267-0.013,0.533-0.007,0.801
		c-0.059,0.158-0.133,0.306-0.225,0.447C6.433,11.285,6.416,10.562,6.41,9.845z M6.895,10.016c-0.052,0.121-0.089,0.245-0.115,0.373
		c0.019-0.54,0.039-1.078,0.04-1.616C6.827,8.75,6.833,8.728,6.838,8.705C6.839,9.146,6.864,9.587,6.895,10.016z M7.679,9.649
		c-0.024,0.358-0.037,0.723-0.057,1.085c-0.016-0.22-0.029-0.44-0.041-0.661c0.002-0.004,0.002-0.007,0.003-0.011
		C7.621,9.925,7.652,9.787,7.679,9.649z M7.303,9.807c-0.002,0.491-0.018,0.982-0.055,1.472c-0.008-0.364,0.004-0.732,0.024-1.1
		C7.283,10.055,7.294,9.931,7.303,9.807z M7.347,11.823c0.009-0.09,0.016-0.179,0.023-0.269c0.004,0.104,0.008,0.207,0.013,0.312
		C7.377,11.846,7.364,11.831,7.347,11.823z M7.407,9.701C7.375,9.68,7.327,9.689,7.309,9.726c0.024-0.317,0.049-0.637,0.077-0.955
		C7.388,8.986,7.393,9.2,7.4,9.414C7.401,9.511,7.403,9.606,7.407,9.701z M6.542,7.332c0.009-0.058,0.02-0.113,0.029-0.17
		C6.563,7.295,6.55,7.429,6.54,7.563c-0.009,0.1-0.019,0.198-0.025,0.299C6.519,7.685,6.527,7.508,6.542,7.332z M6.579,9.088
		c0.01,0.036,0.036,0.052,0.063,0.053C6.635,9.374,6.626,9.609,6.616,9.843c-0.022-0.228-0.041-0.458-0.06-0.686
		C6.55,9.071,6.544,8.984,6.54,8.898C6.55,8.961,6.563,9.024,6.579,9.088z M7.092,9.95c0.013-0.066,0.026-0.133,0.039-0.2
		c-0.008,0.129-0.016,0.258-0.022,0.386C7.104,10.074,7.098,10.012,7.092,9.95z M6.966,10.233c0.022,0.574-0.044,1.149-0.05,1.722
		c-0.035-0.169-0.064-0.342-0.095-0.513C6.843,11.033,6.84,10.616,6.966,10.233z M7.074,12.032c0.015-0.096,0.027-0.19,0.041-0.286
		c0.011,0.139,0.025,0.277,0.046,0.417c-0.007,0.052-0.015,0.105-0.021,0.157c-0.014,0.062-0.028,0.123-0.043,0.186
		C7.082,12.348,7.075,12.19,7.074,12.032z M7.381,12.416c0.007-0.122,0.012-0.243,0.012-0.365c0.005,0.086,0.01,0.173,0.018,0.26
		C7.401,12.346,7.392,12.38,7.381,12.416z M7.484,10.96c0.018,0.237,0.034,0.474,0.053,0.711c-0.008,0.05-0.016,0.099-0.022,0.147
		C7.5,11.533,7.492,11.247,7.484,10.96z M7.581,12.286c0.004,0.05,0.007,0.099,0.011,0.147c-0.001,0.102-0.003,0.201-0.006,0.3
		c-0.013-0.11-0.025-0.222-0.035-0.334C7.561,12.362,7.571,12.324,7.581,12.286z M8.08,8.886C8.079,8.789,8.076,8.69,8.071,8.593
		c0.016-0.163,0.033-0.327,0.054-0.49C8.11,8.365,8.096,8.625,8.08,8.886z M7.037,9.424C7.01,8.667,7.008,7.907,7.141,7.16
		c0.005-0.026,0.011-0.053,0.018-0.078C7.216,7.546,7.22,8.02,7.203,8.491C7.148,8.802,7.097,9.115,7.037,9.424z M7.087,6.688
		C6.959,7.116,6.891,7.563,6.86,8.015C6.846,8.093,6.83,8.172,6.813,8.249C6.804,7.91,6.782,7.57,6.741,7.232
		C6.753,7.005,6.758,6.779,6.74,6.555c0.05-0.124,0.11-0.242,0.187-0.348C6.938,6.199,6.949,6.19,6.961,6.184
		C7.013,6.347,7.057,6.512,7.09,6.678C7.089,6.682,7.088,6.684,7.087,6.688z M6.534,6.332c0.01-0.046,0.021-0.093,0.03-0.14
		C6.572,6.238,6.577,6.294,6.58,6.355C6.568,6.341,6.551,6.333,6.534,6.332z M6.109,7.769c0.004,0.042,0.033,0.065,0.065,0.07
		C6.014,8.844,5.9,9.857,5.728,10.86c-0.004,0.005-0.007,0.01-0.011,0.015C5.78,10.21,5.865,9.545,5.916,8.88
		c0.015-0.196,0.027-0.395,0.036-0.593c0.014-0.085,0.026-0.17,0.038-0.256c0.004-0.032-0.01-0.056-0.028-0.071
		c0-0.016,0-0.03,0-0.045c0.052-0.4,0.112-0.802,0.194-1.196c0,0.001,0,0.003,0.001,0.004C6.121,7.07,6.079,7.418,6.109,7.769z
		 M5.298,11.162C5.28,11.082,5.266,11,5.252,10.917c-0.006-0.154-0.012-0.311-0.024-0.464c0.014-0.005,0.024-0.014,0.029-0.026
		c0.166-0.408,0.246-0.828,0.284-1.253C5.57,9.18,5.604,9.166,5.614,9.13c0.021-0.078,0.039-0.156,0.059-0.234
		C5.543,9.65,5.452,10.412,5.298,11.162z M6.175,6.377C6.18,6.353,6.185,6.329,6.19,6.305C6.189,6.331,6.188,6.357,6.186,6.383
		C6.184,6.38,6.179,6.379,6.175,6.377z M5.219,10.199c-0.015-0.073-0.027-0.146-0.038-0.219c0-0.66,0.095-1.329,0.232-1.955
		C5.38,8.336,5.377,8.645,5.445,8.948C5.42,9.372,5.359,9.792,5.219,10.199z M5.043,10.156c0.001,0.072,0.003,0.145,0.007,0.216
		c-0.008-0.058-0.016-0.114-0.023-0.171C5.033,10.187,5.039,10.17,5.043,10.156z M5.517,10.994c0.005,0.046,0.01,0.092,0.019,0.138
		c-0.029,0.044-0.059,0.089-0.086,0.134C5.473,11.176,5.495,11.085,5.517,10.994z M5.818,11.106
		c0.021,0.221,0.053,0.446,0.114,0.656c-0.001,0.002-0.002,0.004-0.003,0.005c-0.073-0.104-0.131-0.217-0.172-0.338
		C5.777,11.323,5.798,11.214,5.818,11.106z M5.91,10.795c-0.002-0.019-0.015-0.035-0.029-0.045c0.162-0.949,0.275-1.906,0.43-2.857
		c0,0.033,0.001,0.064,0.001,0.099C6.291,8.249,6.279,8.508,6.27,8.765C6.265,8.914,6.262,9.063,6.261,9.212
		C6.231,9.574,6.193,9.937,6.164,10.3c-0.057,0.37-0.085,0.755-0.069,1.132c-0.021,0.064-0.048,0.127-0.079,0.187
		C5.95,11.345,5.933,11.051,5.91,10.795z M6.117,11.74c0.005,0.034,0.01,0.067,0.014,0.103c0.003,0.044,0.007,0.089,0.012,0.135
		c-0.025-0.053-0.049-0.106-0.068-0.163C6.088,11.79,6.103,11.765,6.117,11.74z M7.369,12.857c0-0.009-0.001-0.018,0-0.026
		c0.026-0.007,0.053-0.027,0.063-0.057c0.006-0.017,0.011-0.032,0.019-0.05c0.002,0.026,0.006,0.052,0.009,0.078
		C7.429,12.82,7.399,12.838,7.369,12.857z M7.763,12.375c0.096-0.601,0.145-1.206,0.181-1.813c0.025-0.125,0.048-0.249,0.066-0.375
		c-0.028,0.6-0.045,1.197-0.033,1.795c-0.022,0.202-0.041,0.404-0.053,0.606c-0.012,0.013-0.021,0.029-0.022,0.052
		c-0.019,0.221-0.022,0.443-0.043,0.664C7.797,13.001,7.77,12.688,7.763,12.375z M8.569,9.106C8.6,9.143,8.676,9.127,8.678,9.065
		C8.681,8.932,8.69,8.8,8.705,8.669c0.019-0.135,0.042-0.271,0.06-0.405c0.084-0.452,0.22-0.896,0.37-1.333
		C9.132,6.943,9.129,6.957,9.128,6.969c-0.023,0.105-0.044,0.21-0.063,0.316C8.964,7.749,8.844,8.21,8.895,8.688
		c0.001,0.01,0.005,0.02,0.009,0.027C8.849,9.034,8.798,9.355,8.75,9.677c-0.044,0.188-0.086,0.376-0.123,0.566
		c-0.049,0.25-0.11,0.5-0.17,0.748c-0.002-0.12-0.005-0.239-0.008-0.358c-0.005-0.208-0.008-0.416-0.007-0.624
		C8.491,9.708,8.535,9.407,8.569,9.106z M9.453,8.637C9.386,8.865,9.324,9.094,9.267,9.324C9.255,9.375,9.243,9.427,9.232,9.478
		C9.272,9,9.291,8.521,9.314,8.042C9.356,7.92,9.395,7.798,9.432,7.673C9.46,7.994,9.465,8.316,9.453,8.637z M12.295,6.84
		c0.002,0.104,0,0.209-0.003,0.313c-0.063,0.239-0.111,0.48-0.15,0.727c-0.049,0.052-0.092,0.11-0.132,0.171
		C12.097,7.646,12.191,7.241,12.295,6.84z M12.617,8.078c0.082-0.143,0.148-0.289,0.208-0.438c-0.093,0.274-0.174,0.551-0.246,0.83
		c-0.154,0.259-0.264,0.533-0.354,0.815c0.077-0.417,0.156-0.833,0.213-1.251c0,0,0,0.001,0,0.002
		C12.444,8.129,12.569,8.159,12.617,8.078z M12.873,9.255c-0.02,0.104-0.04,0.208-0.063,0.313c0.021-0.102,0.04-0.203,0.06-0.305
		C12.87,9.26,12.872,9.257,12.873,9.255z M12.583,10.721c0.02-0.109,0.042-0.218,0.063-0.326c0.013,0.015,0.029,0.024,0.048,0.027
		C12.661,10.522,12.625,10.623,12.583,10.721z M13.145,9.856c0.016-0.082,0.03-0.164,0.045-0.247
		c-0.001,0.02-0.002,0.037-0.004,0.056C13.173,9.728,13.159,9.792,13.145,9.856z M13.669,8.25c-0.011-0.014-0.023-0.022-0.038-0.029
		c0.032-0.078,0.063-0.155,0.091-0.233C13.71,8.075,13.691,8.163,13.669,8.25z M12.016,10.631c0.011-0.058,0.022-0.115,0.033-0.172
		c0.001-0.006,0.002-0.011,0.004-0.017c-0.021,0.146-0.036,0.292-0.036,0.44c0,0.008,0.001,0.016,0.003,0.023
		c-0.013,0.049-0.024,0.099-0.038,0.146C11.99,10.913,12.001,10.771,12.016,10.631z M10.513,12.672
		c0.021-0.087,0.041-0.173,0.062-0.261c0.007-0.028-0.008-0.051-0.028-0.063c0.038-0.188,0.098-0.376,0.145-0.561
		c0.016-0.043,0.029-0.087,0.044-0.13c-0.028,0.241-0.057,0.483-0.063,0.728c-0.026,0.122-0.052,0.244-0.084,0.364
		c-0.023,0.009-0.046,0.016-0.07,0.022C10.515,12.74,10.512,12.706,10.513,12.672z M10.146,12.76
		c-0.009-0.077-0.016-0.153-0.021-0.229c0.015-0.044,0.028-0.09,0.044-0.137c-0.003,0.015-0.007,0.028-0.01,0.042
		c-0.016,0.064,0.027,0.108,0.077,0.118c-0.022,0.058-0.046,0.115-0.068,0.173C10.16,12.737,10.152,12.749,10.146,12.76z
		 M11.003,10.516c0.063-0.456,0.16-0.907,0.26-1.356C11.208,9.615,11.136,10.077,11.003,10.516z M10.829,10.82
		c-0.016,0.011-0.025,0.024-0.03,0.046c-0.037,0.147-0.078,0.294-0.121,0.439c-0.023,0.042-0.047,0.082-0.072,0.122
		c0.116-0.486,0.232-0.973,0.349-1.459C10.9,10.251,10.856,10.535,10.829,10.82z M10.363,11.569
		c-0.017-0.044-0.03-0.089-0.044-0.135c0.019-0.009,0.033-0.021,0.04-0.042c0.053-0.146,0.104-0.297,0.152-0.447
		C10.461,11.153,10.412,11.362,10.363,11.569z M10.256,11.801c-0.062,0.094-0.11,0.2-0.153,0.31c-0.001-0.171,0-0.533,0.021-0.693
		C10.158,11.548,10.202,11.677,10.256,11.801z M10.925,11.385c0.068-0.115,0.13-0.237,0.188-0.361c-0.001,0.074-0.001,0.148,0,0.223
		c-0.029-0.015-0.069-0.01-0.091,0.026c-0.041,0.071-0.077,0.146-0.107,0.22C10.918,11.457,10.921,11.421,10.925,11.385z
		 M11.469,11.276c-0.001-0.041-0.038-0.064-0.072-0.064c0.125-0.569,0.24-1.147,0.329-1.729c0.071-0.375,0.144-0.747,0.219-1.121
		c0.048-0.111,0.104-0.226,0.174-0.323c-0.045,0.313-0.079,0.63-0.111,0.942c-0.008,0.084-0.017,0.167-0.024,0.251
		c-0.214,0.676-0.45,1.346-0.401,2.058c0.002,0.021,0.013,0.041,0.027,0.053c-0.04,0.116-0.084,0.23-0.135,0.342
		C11.476,11.549,11.476,11.412,11.469,11.276z M11.78,10.716c-0.015,0.068-0.029,0.136-0.047,0.204
		c0.015-0.212,0.05-0.422,0.098-0.63C11.81,10.432,11.794,10.574,11.78,10.716z M12.756,8.693c-0.036,0.213-0.074,0.424-0.115,0.636
		c-0.024,0.055-0.048,0.108-0.072,0.164C12.627,9.225,12.689,8.958,12.756,8.693z M11.462,9.686
		c-0.026,0.092-0.052,0.183-0.08,0.273c0.062-0.492,0.153-0.983,0.25-1.475c-0.028,0.288-0.063,0.575-0.106,0.862
		C11.504,9.46,11.483,9.573,11.462,9.686z M11.654,7.4c-0.003,0.008-0.006,0.015-0.009,0.021c0.008-0.055,0.017-0.11,0.024-0.166
		c0.009-0.028,0.017-0.055,0.024-0.083l0,0C11.682,7.249,11.668,7.325,11.654,7.4z M10.329,11.091
		c-0.072-1.249,0.71-2.388,0.745-3.627c0.006,0,0.012,0.001,0.019,0.001c-0.06,0.851-0.199,1.701-0.373,2.542
		C10.594,10.371,10.465,10.732,10.329,11.091z M10.972,7.174c0.057,0.828-0.291,1.607-0.544,2.396
		c0.167-0.788,0.33-1.578,0.521-2.362C10.955,7.198,10.964,7.186,10.972,7.174z M10.282,9.379c0.012-0.087,0.022-0.173,0.034-0.257
		c0.045-0.336,0.104-0.67,0.167-1.004C10.528,8,10.575,7.883,10.627,7.77C10.507,8.305,10.395,8.842,10.282,9.379z M9.952,10.896
		c0.009-0.063,0.018-0.129,0.027-0.192c0.012-0.081,0.023-0.161,0.037-0.241c0,0.047,0,0.093,0.002,0.141
		C9.997,10.699,9.974,10.798,9.952,10.896z M9.71,10.557c-0.067,0.295-0.144,0.594-0.265,0.872c0.032-0.31,0.06-0.62,0.09-0.924
		C9.6,9.862,9.749,9.242,9.868,8.608c0.061-0.327,0.12-0.655,0.183-0.982c0.026-0.073,0.053-0.146,0.08-0.218
		C10.076,8.463,9.861,9.507,9.71,10.557z M9.096,12.678c0.031-0.331,0.074-0.662,0.123-0.993c0.006,0.034,0.013,0.068,0.021,0.103
		c-0.036,0.294-0.08,0.588-0.14,0.877C9.099,12.669,9.098,12.674,9.096,12.678z M9.753,8.062C9.711,8.249,9.667,8.434,9.622,8.62
		c0.003-0.059,0.004-0.115,0.005-0.173C9.667,8.318,9.709,8.189,9.753,8.062z M8.88,13.462c-0.002,0.005-0.004,0.011-0.006,0.017
		c-0.014-0.186-0.022-0.37-0.027-0.556c0.087-0.407,0.174-0.813,0.128-1.226c0.018-0.23,0.027-0.46,0.036-0.688
		c0.169-0.484,0.239-1,0.342-1.5c0.02-0.085,0.037-0.168,0.057-0.252C9.271,10.654,8.897,12.059,8.88,13.462z M8.457,11.721
		c0.005-0.147,0.005-0.297,0.004-0.445c0.055-0.262,0.116-0.522,0.169-0.783C8.572,10.902,8.516,11.312,8.457,11.721z M8.476,12.718
		c0.028-0.181,0.056-0.361,0.082-0.543c0.035,0.01,0.074-0.005,0.082-0.053C8.658,12,8.674,11.876,8.691,11.755
		c-0.003,0.078-0.007,0.156-0.01,0.236c-0.149,0.547-0.159,1.121-0.229,1.687c-0.006,0.016-0.012,0.03-0.017,0.045
		C8.446,13.389,8.471,13.054,8.476,12.718z M9.333,7.68C9.336,7.642,9.337,7.604,9.34,7.567c0.004-0.032,0.009-0.065,0.012-0.099
		c0.004-0.011,0.005-0.023,0.009-0.035c0.001-0.008,0-0.014,0-0.021c0.007-0.05,0.013-0.101,0.02-0.149
		c0.009,0.06,0.019,0.118,0.024,0.178C9.382,7.522,9.358,7.601,9.333,7.68z M9.304,6.985c0.003-0.019,0.008-0.037,0.012-0.057
		C9.32,6.948,9.324,6.967,9.329,6.987C9.32,6.985,9.311,6.985,9.304,6.985z M8.289,10.941c0,0.303-0.005,0.604-0.021,0.906
		c-0.052,0.3-0.087,0.603-0.083,0.911c0.001,0.054,0.051,0.077,0.093,0.067c-0.022,0.127-0.043,0.254-0.063,0.382
		c-0.042-0.407-0.065-0.813-0.073-1.221C8.179,11.639,8.232,11.29,8.289,10.941z M8.193,14.033c0.015-0.047,0.026-0.09,0.039-0.135
		c0.017-0.002,0.03-0.01,0.042-0.022c-0.004,0.088-0.005,0.176-0.005,0.265c-0.023,0.055-0.049,0.108-0.076,0.16
		c-0.015-0.072-0.026-0.146-0.04-0.219C8.171,14.07,8.187,14.055,8.193,14.033z M8.736,13.845c0.005,0.04,0.036,0.07,0.072,0.079
		c-0.023,0.077-0.051,0.154-0.081,0.229c-0.02-0.159-0.02-0.317-0.007-0.479C8.725,13.73,8.73,13.788,8.736,13.845z M9.41,11.766
		c0.082-0.14,0.147-0.288,0.203-0.438c-0.001,0.016-0.003,0.033-0.005,0.05c-0.072,0.144-0.142,0.291-0.205,0.438
		C9.406,11.799,9.408,11.783,9.41,11.766z M9.558,12.265c-0.02,0.11-0.04,0.22-0.062,0.329C9.5,12.48,9.512,12.37,9.523,12.266
		c0.013-0.093,0.026-0.187,0.043-0.281C9.562,12.079,9.56,12.172,9.558,12.265z M9.966,11.765c-0.001-0.019-0.017-0.032-0.034-0.035
		c0.048-0.186,0.094-0.373,0.139-0.558c0.008,0.043,0.016,0.086,0.024,0.13c-0.093,0.056-0.115,0.468-0.116,0.501
		c-0.008,0.219-0.012,0.448,0,0.675c-0.047,0.149-0.095,0.299-0.153,0.438C9.847,12.531,9.97,12.153,9.966,11.765z M9.88,13.145
		c0.052-0.096,0.094-0.196,0.132-0.299c0.004,0.029,0.008,0.06,0.013,0.087C9.977,13.005,9.93,13.075,9.88,13.145z M10.542,12.909
		c-0.002-0.008-0.003-0.015-0.005-0.021c0.005-0.002,0.008-0.003,0.014-0.004C10.547,12.893,10.543,12.9,10.542,12.909z
		 M11.329,11.598c0,0.018-0.001,0.035-0.001,0.052c-0.001-0.013-0.003-0.024-0.004-0.038C11.326,11.606,11.328,11.602,11.329,11.598
		z M13.534,9.115c0.001-0.012,0.004-0.021,0.006-0.032c0.004,0.001,0.008,0,0.011,0c0,0.004,0,0.009,0,0.014
		C13.545,9.102,13.54,9.108,13.534,9.115z M13.528,7.067c0,0.054-0.004,0.106-0.011,0.159c-0.018-0.015-0.04-0.023-0.063-0.024
		C13.477,7.154,13.501,7.111,13.528,7.067z M13.153,8.031c-0.044,0.229-0.079,0.464-0.114,0.698
		c-0.026-0.004-0.055,0.001-0.077,0.019c0.007-0.046,0.016-0.093,0.022-0.14c0.021-0.125,0.041-0.253,0.061-0.381
		c0.04-0.076,0.075-0.153,0.105-0.231C13.151,8.006,13.152,8.019,13.153,8.031z M12.507,7.358c0.005-0.084,0.01-0.169,0.013-0.254
		c0.027-0.098,0.059-0.193,0.091-0.29C12.583,6.996,12.543,7.177,12.507,7.358z M11.91,7.471c0.001-0.089,0.002-0.179,0.001-0.269
		c0.07-0.221,0.138-0.442,0.228-0.648C12.056,6.858,11.981,7.164,11.91,7.471z M11.469,6.886c-0.071,0.3-0.141,0.599-0.212,0.898
		c0.017-0.187,0.029-0.374,0.039-0.562C11.361,7.116,11.417,7.001,11.469,6.886z M11.031,7.01C11.021,7.003,11.01,7,10.998,7.002
		c0.04-0.162,0.081-0.324,0.125-0.483c0,0.018,0,0.034,0,0.051C11.089,6.717,11.055,6.863,11.031,7.01z M10.678,6.02
		c-0.057,0.394-0.219,0.774-0.229,1.17c-0.086,0.427-0.162,0.853-0.24,1.279c-0.007,0.04-0.016,0.079-0.022,0.119
		c0.076-0.561,0.129-1.12,0.128-1.685C10.425,6.604,10.543,6.308,10.678,6.02z M10.238,6.101c-0.001,0.078-0.009,0.156-0.02,0.233
		c-0.038-0.003-0.077,0.017-0.088,0.063c-0.071,0.305-0.135,0.609-0.195,0.916C9.921,7.315,9.91,7.324,9.903,7.341
		c-0.1,0.246-0.19,0.494-0.276,0.745c-0.002-0.09-0.005-0.179-0.013-0.27C9.839,7.252,9.916,6.618,10.238,6.101z M9.553,7.247
		C9.574,7.17,9.596,7.094,9.618,7.019C9.598,7.112,9.579,7.207,9.562,7.303C9.559,7.284,9.556,7.266,9.553,7.247z M9.167,6.415
		C9.016,6.84,8.866,7.27,8.752,7.708C8.745,7.693,8.736,7.677,8.726,7.663c-0.034-0.052-0.114-0.002-0.08,0.049
		c0.038,0.055,0.054,0.126,0.057,0.202c-0.026,0.113-0.05,0.226-0.069,0.34c0.009-0.299,0.001-0.598-0.026-0.897
		C8.75,7.003,8.93,6.687,9.167,6.415z M8.424,7.223C8.431,7.275,8.435,7.328,8.44,7.381C8.424,7.449,8.411,7.518,8.4,7.587
		C8.394,7.632,8.428,7.658,8.461,7.654c0.012,0.241,0.011,0.481,0,0.723C8.333,8.887,8.297,9.414,8.289,9.94
		c-0.046,0.292-0.097,0.583-0.144,0.875c0.033-1.129,0.128-2.261,0.165-3.387C8.346,7.359,8.384,7.29,8.424,7.223z M8.065,7.416
		C8.05,7.5,8.037,7.584,8.023,7.669C8.018,7.686,8.011,7.703,8.004,7.722C8.002,7.7,8,7.678,7.998,7.657
		c-0.01-0.089-0.141-0.11-0.16-0.017C7.717,8.22,7.683,8.817,7.577,9.401c0-0.813,0.05-1.62,0.106-2.436
		c0.003-0.049-0.039-0.068-0.077-0.061c0.004-0.04,0.006-0.079,0.012-0.119c0.01-0.094-0.131-0.131-0.146-0.034
		C7.428,7.023,7.39,7.294,7.358,7.567C7.33,7.108,7.261,6.654,7.124,6.207C7.529,6.528,7.86,6.945,8.065,7.416z M6.877,6.031
		C6.812,6.11,6.755,6.195,6.707,6.285c-0.015-0.083-0.032-0.167-0.056-0.25c-0.006-0.02-0.024-0.039-0.045-0.043
		C6.59,5.99,6.574,5.986,6.557,5.983c-0.03-0.005-0.064,0.013-0.071,0.045c-0.05,0.285-0.096,0.573-0.152,0.86
		C6.327,6.855,6.32,6.823,6.313,6.79c0.033-0.35,0.06-0.696,0-1.045c0-0.004-0.002-0.005-0.003-0.009
		C6.507,5.814,6.698,5.914,6.877,6.031z M6.222,5.704c-0.02,0.008-0.036,0.022-0.041,0.045c-0.065,0.314-0.116,0.637-0.163,0.96
		c-0.03,0.147-0.056,0.297-0.081,0.447C5.911,6.841,5.865,6.529,5.788,6.223C5.789,6.149,5.787,6.075,5.782,6
		C5.78,5.959,5.742,5.942,5.711,5.949C5.709,5.943,5.708,5.938,5.705,5.932C5.687,5.874,5.601,5.875,5.588,5.935
		c-0.13,0.576-0.135,1.168-0.13,1.764C5.453,7.732,5.446,7.767,5.441,7.802C5.414,7.768,5.348,7.767,5.335,7.823
		c-0.058,0.24-0.113,0.479-0.171,0.72c0.054-0.648,0.149-1.299,0.142-1.946C5.313,6.445,5.31,6.293,5.289,6.14
		C5.287,6.13,5.283,6.12,5.277,6.111C5.266,6.02,5.253,5.928,5.236,5.837l0,0l0,0c0-0.005-0.001-0.01-0.002-0.015
		C5.222,5.754,5.13,5.784,5.125,5.841c0,0.005,0,0.01-0.001,0.015C5.122,5.823,5.122,5.787,5.121,5.753
		c0-0.009-0.016-0.011-0.017-0.001c-0.026,0.25-0.038,0.501-0.048,0.754c-0.066,0.232-0.13,0.465-0.19,0.699
		c0.044-0.549,0.101-1.099,0.101-1.65C5.395,5.503,5.822,5.561,6.222,5.704z M3.813,5.923c-0.063,0.2-0.118,0.403-0.167,0.604
		C3.625,6.531,3.602,6.543,3.597,6.57c-0.038,0.167-0.06,0.337-0.071,0.508C3.472,7.272,3.438,7.474,3.418,7.679
		C3.37,7.962,3.323,8.246,3.273,8.528c0.024-0.762,0.016-1.524,0.068-2.285C3.486,6.121,3.646,6.014,3.813,5.923z M3.28,10.183
		C2.762,9.385,2.392,8.378,2.6,7.421c0.091-0.427,0.32-0.788,0.627-1.077c-0.021,0.107-0.042,0.213-0.061,0.32
		C2.9,6.962,2.936,7.616,2.935,7.952c0,0.082,0,0.168,0.001,0.255C2.924,8.286,2.913,8.365,2.899,8.445
		c-0.045-0.506-0.007-1.013,0.02-1.519c0.003-0.057-0.085-0.063-0.097-0.01c-0.083,0.372-0.135,0.75-0.148,1.131
		c0,0.01,0,0.019,0,0.029C2.664,8.192,2.655,8.308,2.642,8.424C2.64,8.439,2.646,8.452,2.661,8.456
		C2.678,8.46,2.694,8.465,2.71,8.47c0.017,0.004,0.035-0.011,0.034-0.029c-0.009-0.22,0-0.436,0.021-0.651
		C2.76,8.13,2.776,8.472,2.842,8.809c0.01,0.05,0.092,0.047,0.1-0.003c0.007-0.037,0.012-0.075,0.018-0.111
		C2.992,9.061,3.067,9.43,3.237,9.723c0.02,0.032,0.071,0.031,0.089-0.003c0.067-0.137,0.118-0.279,0.158-0.422
		c0.013,0.074,0.023,0.15,0.035,0.222c0.002,0.017,0.01,0.027,0.021,0.035c-0.004,0.278-0.002,0.557,0.014,0.835
		c0.003,0.056,0.078,0.075,0.104,0.025c0.049-0.087,0.092-0.179,0.132-0.271c0.012,0.291,0.035,0.593,0.134,0.867
		C3.686,10.755,3.472,10.476,3.28,10.183z M4.288,11.373c-0.036-0.033-0.071-0.067-0.107-0.101c0-0.001,0-0.001,0.001-0.002
		c0.048-0.151,0.084-0.307,0.112-0.462c0.022,0.095,0.05,0.19,0.082,0.284c0.009,0.026,0.027,0.037,0.048,0.039
		c0.04,0.094,0.1,0.168,0.192,0.2c0.022,0.007,0.056-0.007,0.063-0.029c0.115-0.271,0.186-0.557,0.237-0.845
		c0.004-0.01,0.009-0.021,0.014-0.031c0.052,0.333,0.136,0.66,0.259,0.983c0.01,0.085,0.021,0.169,0.037,0.254
		c0.01,0.051,0.079,0.047,0.103,0.01c0.073-0.115,0.146-0.232,0.22-0.348c-0.017,0.213-0.031,0.426-0.04,0.64
		c-0.003,0.076,0.114,0.083,0.129,0.013c0.023-0.101,0.046-0.202,0.067-0.302c0.048,0.095,0.104,0.186,0.174,0.271
		c0.022,0.029,0.082,0.026,0.104-0.003c0.002-0.003,0.005-0.006,0.009-0.011c0.046,0.117,0.106,0.227,0.183,0.323
		c0.009,0.028,0.031,0.049,0.057,0.057c0.034,0.116,0.076,0.23,0.124,0.34c0.027,0.063,0.1,0.069,0.139,0.016
		c0.14-0.199,0.219-0.415,0.265-0.642c0.045,0.229,0.101,0.456,0.198,0.67c0.018,0.125,0.04,0.251,0.07,0.377
		c0.02,0.076,0.142,0.072,0.155-0.006c0.014-0.075,0.027-0.151,0.04-0.229c-0.001,0.05,0.001,0.101,0.004,0.151
		c0.004,0.056,0.065,0.091,0.114,0.062c0.047-0.029,0.094-0.058,0.14-0.086c0.018,0.125,0.038,0.251,0.063,0.378
		c0.008,0.045,0.059,0.057,0.095,0.041c0.027,0.028,0.059,0.047,0.09,0.04c0.022,0.101,0.048,0.199,0.08,0.298
		c0.02,0.061,0.101,0.069,0.134,0.023c0.021,0.206,0.051,0.41,0.093,0.613c-0.642-0.854-1.538-1.479-2.428-2.065
		C5.154,11.997,4.693,11.734,4.288,11.373z M9.056,13.471c0.124-0.362,0.209-0.739,0.272-1.12c0.024-0.076,0.053-0.149,0.081-0.226
		c-0.015,0.08-0.025,0.158-0.035,0.236c-0.019,0.169-0.029,0.354-0.012,0.534c-0.106,0.247-0.2,0.5-0.261,0.768
		c-0.002,0.008,0.011,0.011,0.015,0.002c0.066-0.235,0.156-0.461,0.258-0.683c0.005,0.031,0.011,0.062,0.018,0.091
		c-0.085,0.358-0.187,0.716-0.312,1.063C9.06,13.916,9.054,13.693,9.056,13.471z M9.484,14.014
		c-0.088,0.077-0.176,0.158-0.262,0.242c0.108-0.293,0.2-0.595,0.278-0.898c0.014,0.023,0.027,0.045,0.043,0.067
		c0.03,0.04,0.081,0.048,0.117,0.013c0.031-0.028,0.062-0.063,0.089-0.098c0,0.004,0.001,0.008,0.002,0.012
		c0.007,0.037,0.063,0.049,0.087,0.021c0.077-0.094,0.146-0.192,0.216-0.292c0.026,0.044,0.105,0.046,0.127-0.004
		c0.056-0.129,0.11-0.26,0.164-0.391c0,0.048,0.001,0.096,0.008,0.143c-0.001,0.007-0.003,0.014-0.005,0.021
		c-0.005,0.022,0.003,0.043,0.019,0.057c0.02,0.094,0.054,0.188,0.106,0.279c0.008,0.014,0.019,0.021,0.028,0.029
		C10.155,13.471,9.81,13.729,9.484,14.014z M11.041,12.817c-0.133,0.101-0.267,0.197-0.4,0.296c0.035-0.102,0.063-0.204,0.087-0.309
		c0.071-0.047,0.128-0.109,0.149-0.197c0.011-0.043-0.053-0.067-0.074-0.027c-0.011,0.021-0.024,0.041-0.039,0.057
		c0.007-0.036,0.015-0.072,0.021-0.108c0.008-0.004,0.015-0.009,0.021-0.018c0.036-0.047,0.067-0.096,0.095-0.146
		c0.005,0.009,0.008,0.019,0.012,0.027c0.021,0.048,0.102,0.078,0.133,0.023c0.002,0.009,0.003,0.019,0.006,0.027
		c0.021,0.084,0.165,0.063,0.152-0.025c-0.017-0.103-0.021-0.203-0.024-0.306c0-0.001,0.001-0.002,0.002-0.003
		c0.006,0.045,0.013,0.091,0.021,0.136c0.009,0.053,0.052,0.072,0.095,0.068c-0.001,0.05-0.003,0.103-0.003,0.153
		c0,0.062,0.057,0.086,0.104,0.074C11.281,12.634,11.16,12.727,11.041,12.817z M13.99,9.257c-0.19,0.578-0.496,1.105-0.868,1.59
		c0.071-0.211,0.132-0.425,0.186-0.641c0.038-0.008,0.071-0.036,0.082-0.081c0.049-0.207,0.093-0.431,0.181-0.629
		c0.042,0.108,0.231,0.091,0.224-0.044c-0.004-0.065-0.007-0.128-0.007-0.191c0.147-0.495,0.351-0.965,0.331-1.494
		c-0.003-0.073-0.103-0.094-0.14-0.032c-0.022,0.042-0.046,0.086-0.066,0.131c0.006-0.13-0.004-0.258-0.039-0.384
		c-0.021-0.078-0.139-0.071-0.155,0.005c-0.033,0.14-0.073,0.274-0.12,0.407c0.001-0.083,0-0.165-0.003-0.247
		c0.071-0.266,0.121-0.534,0.079-0.813c-0.009-0.063-0.089-0.111-0.139-0.053c-0.129,0.149-0.22,0.317-0.294,0.493
		c-0.004-0.009-0.007-0.019-0.011-0.026c0.049-0.306,0.077-0.612,0.045-0.92c-0.007-0.07-0.117-0.116-0.149-0.036
		c-0.007,0.018-0.015,0.036-0.021,0.055c-0.021-0.144-0.053-0.287-0.095-0.426c-0.028-0.09-0.146-0.094-0.192-0.021
		c-0.023,0.038-0.046,0.077-0.067,0.115c-0.021-0.08-0.051-0.157-0.088-0.233c-0.021-0.036-0.078-0.051-0.111-0.026
		c-0.261,0.193-0.426,0.458-0.556,0.749c0.036-0.259,0.063-0.52,0.08-0.778c0.006-0.095-0.146-0.131-0.185-0.043
		c-0.012,0.03-0.023,0.062-0.036,0.092c-0.025,0.001-0.051,0.016-0.068,0.042c-0.21,0.313-0.323,0.674-0.478,1.014
		c0.002-0.121,0.002-0.243,0-0.364c0.053-0.243,0.101-0.488,0.093-0.738c-0.002-0.084-0.11-0.104-0.151-0.037
		c-0.026,0.044-0.051,0.09-0.076,0.135c-0.031,0.007-0.061,0.027-0.071,0.065c-0.016,0.057-0.032,0.112-0.048,0.168
		c-0.123,0.262-0.226,0.533-0.333,0.802c0.025-0.143,0.05-0.283,0.071-0.427c0.006-0.037-0.007-0.064-0.028-0.084
		c0.059-0.231,0.106-0.464,0.086-0.703c-0.006-0.075-0.11-0.107-0.147-0.036c-0.13,0.246-0.242,0.499-0.347,0.755
		c0.019-0.155,0.023-0.312,0.006-0.47c-0.007-0.066-0.084-0.079-0.12-0.028C9.924,6.31,9.812,6.837,9.659,7.348
		c0.093-0.511,0.208-1.018,0.394-1.505c0.014-0.037-0.023-0.062-0.057-0.058c0.627-0.31,1.363-0.385,2.047-0.256
		c0.698,0.131,1.354,0.504,1.761,1.095C14.34,7.401,14.273,8.397,13.99,9.257z"/>
</g>
<g>
	<circle fill="none" stroke="#38424A" stroke-width="1.5" stroke-miterlimit="10" cx="9.656" cy="9.656" r="9.656"/>
	<path fill="#38424A" d="M24.694,24.596c-0.292,0.291-0.686,0.375-0.874,0.186l-7.74-7.74c-0.191-0.188-0.107-0.58,0.187-0.873l0,0
		c0.293-0.293,0.685-0.377,0.872-0.188l7.742,7.74C25.071,23.912,24.987,24.303,24.694,24.596L24.694,24.596z"/>
</g>
</svg>
