<?xml version="1.0" encoding="utf-8"?>
<!-- Generator: Adobe Illustrator 16.0.0, SVG Export Plug-In . SVG Version: 6.00 Build 0)  -->
<!DOCTYPE svg PUBLIC "-//W3C//DTD SVG 1.1//EN" "http://www.w3.org/Graphics/SVG/1.1/DTD/svg11.dtd">
<svg version="1.1" id="Layer_1" xmlns="http://www.w3.org/2000/svg" xmlns:xlink="http://www.w3.org/1999/xlink" x="0px" y="0px"
	 width="17.25px" height="27.205px" viewBox="-6.375 -1.062 17.25 27.205" enable-background="new -6.375 -1.062 17.25 27.205"
	 xml:space="preserve">
<g>
	<path fill="none" stroke="#38424A" stroke-width="1.5" stroke-miterlimit="10" d="M10.125,7.563c0,4.35-7.875,17.149-7.875,17.149
		s-7.875-12.8-7.875-17.149s3.526-7.875,7.875-7.875C6.6-0.313,10.125,3.213,10.125,7.563z"/>
	<path fill="#C7202E" d="M8.107,6.266C7.881,5.62,7.38,5.119,6.773,4.818c-1.479-0.73-3.676-0.194-4.335,1.374
		c0-0.006-0.001-0.013-0.002-0.018C2.422,6.089,2.329,6.067,2.279,6.138C2.25,6.178,2.222,6.219,2.195,6.261
		C2.196,6.212,2.198,6.167,2.198,6.12c0.001-0.092-0.137-0.102-0.157-0.016C2.021,6.197,2,6.292,1.981,6.386
		C1.708,5.719,1.146,5.193,0.484,4.865C-0.478,4.388-1.531,4.49-2.46,4.992C-3.262,5.423-3.74,6.2-3.764,7.106
		c-0.025,0.938,0.409,1.862,0.94,2.609c0.262,0.37,0.571,0.708,0.91,1.012c0.361,0.322,0.774,0.557,1.177,0.821
		c1.088,0.714,2.206,1.47,2.848,2.636c0.054,0.099,0.203,0.007,0.149-0.092c-0.056-0.101-0.115-0.195-0.176-0.29
		c0.011-0.008,0.02-0.016,0.027-0.027c0.017-0.029,0.033-0.061,0.048-0.088c0.015,0.086,0.133,0.089,0.16,0.006
		c0.05-0.146,0.086-0.297,0.115-0.447c0.006,0.125,0.023,0.25,0.056,0.375c0.018,0.071,0.116,0.075,0.15,0.017
		c0.059-0.101,0.102-0.205,0.137-0.313c0.01,0.125,0.023,0.25,0.042,0.375c0.001,0.012,0.006,0.022,0.013,0.034
		c-0.231,0.274-0.419,0.585-0.502,0.936c-0.03,0.125,0.158,0.168,0.192,0.045c0.164-0.584,0.597-1.029,1.041-1.42
		c0.478-0.422,1.006-0.776,1.513-1.162c1.071-0.813,2.069-1.771,2.692-2.979C8.212,8.282,8.439,7.21,8.107,6.266z M3.783,5.015
		c0.02-0.011,0.041-0.021,0.063-0.031C3.842,4.985,3.839,4.988,3.837,4.993c-0.2,0.393-0.325,0.816-0.442,1.242
		c-0.034-0.167-0.073-0.334-0.122-0.5C3.262,5.697,3.232,5.68,3.199,5.675C3.201,5.638,3.202,5.6,3.202,5.561
		c0-0.042-0.028-0.064-0.06-0.066C3.322,5.311,3.532,5.148,3.783,5.015z M4.631,6.398C4.615,6.464,4.6,6.53,4.584,6.597
		c-0.051,0.09-0.098,0.182-0.143,0.275C4.452,6.817,4.462,6.765,4.472,6.71c0.01-0.006,0.02-0.015,0.024-0.025
		C4.545,6.59,4.589,6.496,4.631,6.398z M6.436,5.137c0.037,0.092,0.06,0.186,0.071,0.281C6.462,5.511,6.42,5.604,6.381,5.696
		C6.374,5.588,6.361,5.48,6.348,5.372c-0.006-0.042-0.03-0.073-0.059-0.09C6.333,5.23,6.382,5.183,6.436,5.137z M6.745,5.413
		c0.04,0.191,0.062,0.386,0.069,0.584C6.727,6.261,6.641,6.522,6.529,6.775c0.053-0.408,0.164-0.829,0.146-1.23
		C6.699,5.5,6.723,5.458,6.745,5.413z M5.336,11.646c-0.002-0.105,0-0.211,0.002-0.317c0.111-0.187,0.205-0.379,0.284-0.576
		c0.002,0.101,0.007,0.199,0.015,0.297c0.012,0.134,0.188,0.146,0.227,0.022c0.125-0.396,0.226-0.795,0.318-1.198
		c0.045-0.111,0.088-0.225,0.129-0.34c-0.063,0.329-0.127,0.657-0.178,0.988c-0.02,0.123,0.131,0.179,0.2,0.077
		c0.149-0.217,0.265-0.445,0.358-0.684c-0.002,0.095,0,0.188,0.007,0.28c0.004,0.061,0.038,0.096,0.083,0.106
		c-0.434,0.51-0.938,0.967-1.452,1.381C5.333,11.672,5.336,11.661,5.336,11.646z M3.494,12.453c-0.023-0.043-0.044-0.09-0.061-0.136
		c0.049-0.206,0.092-0.412,0.131-0.618c0.021-0.011,0.035-0.028,0.043-0.053c0.045-0.153,0.086-0.307,0.129-0.459
		c0.004-0.01,0.008-0.021,0.013-0.028c-0.046,0.383-0.162,0.756-0.147,1.143C3.568,12.354,3.534,12.404,3.494,12.453z M0.316,11.653
		c-0.031-0.086-0.06-0.174-0.083-0.264c0.085-0.113,0.161-0.231,0.225-0.355c0.001,0.045,0.003,0.09,0.005,0.135
		c0.001,0.022,0.009,0.04,0.02,0.054C0.446,11.374,0.394,11.518,0.316,11.653z M-1.519,10.386c-0.048-0.037-0.082-0.095-0.105-0.163
		c0.005-0.02,0.01-0.038,0.017-0.058c0.007,0.01,0.014,0.021,0.021,0.031c0.02,0.024,0.053,0.026,0.07-0.002
		c0.035-0.054,0.068-0.109,0.1-0.165C-1.456,10.153-1.531,10.375-1.519,10.386z M-2.58,8.208c0.003-0.016,0.006-0.033,0.008-0.048
		c-0.001,0.03-0.002,0.061-0.003,0.09C-2.576,8.234-2.578,8.222-2.58,8.208z M-2.848,8.771c-0.027-0.052-0.049-0.106-0.069-0.162
		c0.009-0.008,0.017-0.018,0.02-0.03c0.067-0.289,0.124-0.58,0.176-0.872c0.009,0.164,0.023,0.327,0.042,0.487
		C-2.714,8.391-2.767,8.583-2.848,8.771z M-3.005,6.133C-3.032,6.3-3.057,6.469-3.08,6.636C-3.075,6.567-3.067,6.5-3.058,6.434
		C-3.046,6.347-3.033,6.238-3.005,6.133z M-2.92,6.083C-2.96,6.825-2.955,7.569-3.001,8.31c-0.068-0.315-0.082-0.652-0.093-0.952
		C-3.039,6.934-2.991,6.506-2.92,6.083z M-2.638,7.226c0.007-0.04,0.014-0.081,0.021-0.121c0.001,0.199,0,0.397-0.01,0.595
		C-2.636,7.542-2.641,7.383-2.638,7.226z M-2.326,6.319c-0.009-0.17-0.017-0.34-0.025-0.509c0.017-0.038,0.036-0.074,0.054-0.11
		c0.014-0.027-0.005-0.051-0.028-0.056c0.019-0.073,0.038-0.146,0.059-0.22C-2.246,5.723-2.278,6.021-2.326,6.319z M-2.35,7.833
		c0.01-0.264,0.021-0.527,0.052-0.789c0.011,0.141,0.023,0.281,0.037,0.422C-2.289,7.587-2.318,7.71-2.35,7.833z M-2.364,5.837
		c0.009,0.185,0.016,0.37,0.027,0.555C-2.36,6.535-2.386,6.675-2.409,6.817c0.007-0.272,0.008-0.543-0.001-0.815
		c0.009-0.042,0.019-0.084,0.029-0.125C-2.375,5.864-2.37,5.852-2.364,5.837z M-2.229,7.771c0.003,0.026,0.007,0.052,0.009,0.077
		c-0.038,0.314-0.082,0.627-0.143,0.936c-0.009-0.168-0.008-0.337-0.003-0.506C-2.316,8.11-2.271,7.941-2.229,7.771z M-1.662,9.953
		C-1.666,9.945-1.67,9.939-1.674,9.934c-0.01-0.177,0.002-0.357,0.002-0.466c0-0.043,0.002-0.085,0.004-0.128
		c0.001-0.012,0.005-0.022,0.007-0.035c0.029-0.086,0.052-0.175,0.072-0.263c0.019,0.114,0.041,0.229,0.066,0.341
		C-1.565,9.575-1.611,9.764-1.662,9.953z M-1.506,8.573c0.033-0.166,0.067-0.332,0.1-0.498c0.004,0.022,0.017,0.037,0.034,0.047
		c-0.04,0.272-0.072,0.545-0.093,0.818C-1.483,8.818-1.497,8.696-1.506,8.573z M-1.234,7.292C-1.257,7.42-1.28,7.548-1.302,7.678
		C-1.303,7.64-1.304,7.601-1.305,7.563c0.05-0.251,0.1-0.503,0.151-0.754C-1.165,6.89-1.176,6.974-1.186,7.058
		C-1.203,7.136-1.22,7.213-1.234,7.292z M-1.729,8.597C-1.751,8.702-1.771,8.806-1.79,8.911c-0.023-0.304-0.003-0.615,0.024-0.918
		C-1.731,7.602-1.7,7.203-1.62,6.817c0.005-0.025,0.011-0.051,0.016-0.077c-0.014,0.165-0.027,0.33-0.037,0.497
		c-0.026,0.44-0.037,0.887-0.003,1.329C-1.672,8.549-1.719,8.559-1.729,8.597z M-1.58,5.103c0.105,0.268,0.047,0.609,0.006,0.875
		c-0.028,0.186-0.067,0.369-0.107,0.551c0.037-0.424,0.061-0.85,0.046-1.275C-1.617,5.203-1.599,5.152-1.58,5.103z M-2.209,7.77
		c-0.002-0.016-0.005-0.033-0.007-0.049c0.008-0.035,0.016-0.07,0.024-0.103C-2.197,7.668-2.203,7.72-2.209,7.77z M-2.171,8.285
		c-0.005,0.052-0.01,0.103-0.015,0.155C-2.192,8.471-2.198,8.5-2.204,8.53C-2.192,8.447-2.182,8.367-2.171,8.285z M-1.138,8.185
		c0.005,0.017,0.025,0.023,0.041,0.019C-1.099,8.244-1.1,8.284-1.1,8.323c-0.015,0.063-0.03,0.123-0.045,0.185
		C-1.145,8.4-1.142,8.292-1.138,8.185C-1.138,8.184-1.137,8.184-1.138,8.185z M-1.068,7.75c-0.015,0.084-0.027,0.168-0.039,0.253
		c-0.006-0.04-0.011-0.078-0.014-0.116c0.019-0.286,0.047-0.573,0.081-0.858c0.025-0.114,0.051-0.23,0.076-0.344
		C-0.995,7.041-1.038,7.396-1.068,7.75z M-1.524,7.485c0.003-0.084,0.006-0.169,0.011-0.253C-1.488,6.68-1.43,6.141-1.337,5.604
		c-0.046,0.53-0.11,1.058-0.119,1.588C-1.473,7.264-1.491,7.337-1.508,7.41C-1.513,7.437-1.519,7.461-1.524,7.485z M-1.412,5.333
		c-0.012-0.144-0.046-0.284-0.124-0.404c-0.021-0.034-0.084-0.04-0.102,0.003c-0.015,0.036-0.03,0.072-0.044,0.108
		C-1.71,5.032-1.744,5.042-1.753,5.08C-1.778,5.188-1.8,5.297-1.82,5.407C-1.826,5.413-1.831,5.419-1.834,5.43
		c-0.031,0.137-0.062,0.274-0.091,0.411c-0.012,0.051-0.022,0.102-0.033,0.153c0-0.076-0.002-0.153-0.006-0.229
		c-0.001-0.024-0.035-0.022-0.035,0c0,0.029,0,0.06,0,0.091c-0.015,0.007-0.015,0.03,0,0.067c0,0.104-0.003,0.206-0.007,0.31
		c-0.079,0.392-0.156,0.788-0.244,1.18c-0.014-0.15-0.026-0.299-0.037-0.449c0-0.001,0-0.002,0-0.004
		c0.088-0.613,0.239-1.246,0.106-1.863c-0.003-0.02-0.013-0.032-0.026-0.039c0.29-0.144,0.602-0.244,0.912-0.295
		C-1.337,4.953-1.377,5.143-1.412,5.333z M-2.455,9.235c0.004,0.017,0.012,0.029,0.024,0.037c-0.013,0.03-0.026,0.06-0.04,0.089
		C-2.473,9.279-2.475,9.2-2.476,9.12C-2.469,9.157-2.462,9.197-2.455,9.235z M-1.952,7.547c0.029-0.27,0.053-0.54,0.078-0.811
		c-0.02,0.359-0.042,0.718-0.058,1.076c-0.03,0.342-0.049,0.683-0.043,1.021C-1.98,8.835-1.985,8.84-1.984,8.847
		c0.004,0.017,0.006,0.033,0.01,0.051c0.004,0.166,0.015,0.333,0.034,0.5c0.007,0.105,0.014,0.211,0.023,0.317
		c-0.03,0.188-0.066,0.375-0.115,0.56c-0.165-0.301-0.249-0.65-0.277-1.007C-2.088,8.726-2.015,8.125-1.952,7.547z M-1.556,10.106
		c-0.009-0.01-0.017-0.021-0.025-0.031c0.048-0.17,0.093-0.341,0.134-0.513c0.041,0.013,0.093-0.017,0.094-0.068
		c0.003-0.156,0.01-0.313,0.021-0.471c0.022-0.115,0.042-0.23,0.063-0.345c0,0.133,0.006,0.266,0.014,0.398
		C-1.271,9.223-1.284,9.368-1.306,9.51C-1.318,9.581-1.33,9.654-1.344,9.726C-1.408,9.854-1.48,9.98-1.556,10.106z M-1.126,9.096
		c0.007-0.06,0.015-0.118,0.022-0.178c0.003-0.024,0.008-0.05,0.012-0.075c0.004,0.055,0.008,0.11,0.013,0.164
		c0,0.014,0,0.024-0.001,0.036C-1.082,9.047-1.084,9.05-1.085,9.055c-0.01,0.042-0.021,0.082-0.034,0.123
		C-1.122,9.149-1.125,9.123-1.126,9.096z M-0.553,7.14c0.047-0.42,0.138-0.84,0.186-1.261c0.06,0.379,0.08,0.766,0.079,1.151
		c-0.005,0.035-0.009,0.067-0.013,0.1c-0.063,0.325-0.141,0.643-0.251,0.954c-0.004-0.023-0.007-0.05-0.01-0.075
		C-0.55,7.721-0.551,7.43-0.553,7.14z M-0.456,5.447C-0.463,5.7-0.5,5.955-0.545,6.208c0.01-0.271,0.033-0.542,0.078-0.81
		C-0.463,5.416-0.458,5.433-0.456,5.447z M0.285,9.032C0.29,8.96,0.299,8.891,0.309,8.822c0.004-0.03-0.007-0.052-0.026-0.068
		c-0.001-0.157,0-0.315,0.003-0.472c0-0.034,0.001-0.068,0.002-0.103c0.001-0.033,0.004-0.067,0.006-0.1
		C0.296,8.111,0.297,8.144,0.3,8.174c0.031,0.583,0.081,1.173,0.156,1.758c-0.008,0.267-0.012,0.533-0.007,0.801
		c-0.058,0.158-0.132,0.306-0.224,0.447C0.308,10.473,0.291,9.75,0.285,9.032z M0.77,9.204C0.718,9.325,0.681,9.448,0.655,9.577
		c0.018-0.54,0.039-1.078,0.04-1.616c0.007-0.023,0.013-0.045,0.018-0.068C0.714,8.333,0.739,8.774,0.77,9.204z M1.554,8.836
		C1.53,9.194,1.517,9.56,1.497,9.921c-0.015-0.22-0.029-0.44-0.041-0.661c0.002-0.004,0.002-0.007,0.003-0.01
		C1.496,9.112,1.527,8.975,1.554,8.836z M1.178,8.995c-0.002,0.49-0.018,0.982-0.055,1.471c-0.008-0.364,0.004-0.732,0.025-1.1
		C1.158,9.243,1.169,9.119,1.178,8.995z M1.222,11.011c0.009-0.09,0.016-0.179,0.023-0.269c0.004,0.104,0.008,0.207,0.013,0.312
		C1.252,11.034,1.239,11.019,1.222,11.011z M1.282,8.889C1.25,8.868,1.202,8.876,1.184,8.914c0.024-0.317,0.049-0.637,0.077-0.955
		c0.002,0.215,0.007,0.429,0.014,0.643C1.276,8.698,1.278,8.793,1.282,8.889z M0.417,6.52c0.009-0.058,0.02-0.113,0.03-0.17
		c-0.009,0.132-0.022,0.267-0.032,0.4C0.406,6.85,0.397,6.948,0.39,7.049C0.394,6.873,0.402,6.695,0.417,6.52z M0.454,8.275
		c0.01,0.036,0.036,0.052,0.063,0.053C0.51,8.562,0.501,8.796,0.491,9.03C0.469,8.803,0.45,8.572,0.432,8.345
		c-0.007-0.087-0.013-0.174-0.017-0.26C0.425,8.148,0.438,8.211,0.454,8.275z M0.967,9.138c0.013-0.066,0.026-0.133,0.039-0.2
		C0.998,9.066,0.99,9.195,0.984,9.323C0.979,9.262,0.973,9.2,0.967,9.138z M0.841,9.42c0.023,0.574-0.044,1.149-0.05,1.722
		c-0.035-0.169-0.064-0.342-0.094-0.513C0.718,10.221,0.715,9.804,0.841,9.42z M0.949,11.22c0.015-0.096,0.028-0.189,0.041-0.286
		c0.011,0.139,0.026,0.277,0.046,0.417c-0.006,0.052-0.014,0.105-0.021,0.157c-0.014,0.062-0.028,0.123-0.043,0.186
		C0.957,11.536,0.95,11.377,0.949,11.22z M1.256,11.604c0.007-0.122,0.012-0.243,0.012-0.365c0.005,0.086,0.01,0.173,0.017,0.26
		C1.276,11.534,1.267,11.567,1.256,11.604z M1.359,10.147c0.017,0.237,0.034,0.474,0.052,0.711c-0.007,0.05-0.015,0.099-0.022,0.147
		C1.375,10.721,1.367,10.435,1.359,10.147z M1.456,11.474c0.004,0.05,0.007,0.099,0.011,0.147c-0.001,0.102-0.003,0.201-0.006,0.299
		c-0.013-0.109-0.025-0.222-0.035-0.333C1.436,11.549,1.446,11.512,1.456,11.474z M1.955,8.073C1.954,7.977,1.951,7.877,1.946,7.78
		c0.015-0.163,0.033-0.327,0.053-0.49C1.985,7.553,1.971,7.813,1.955,8.073z M0.912,8.611C0.885,7.854,0.883,7.095,1.016,6.348
		C1.021,6.321,1.027,6.294,1.033,6.27c0.058,0.464,0.062,0.938,0.045,1.409C1.023,7.989,0.972,8.303,0.912,8.611z M0.962,5.875
		C0.834,6.304,0.766,6.75,0.735,7.203C0.721,7.28,0.705,7.359,0.688,7.437c-0.009-0.339-0.031-0.68-0.072-1.018
		c0.012-0.227,0.017-0.453-0.001-0.677C0.665,5.619,0.726,5.5,0.802,5.395c0.011-0.008,0.022-0.017,0.034-0.023
		C0.888,5.535,0.932,5.7,0.965,5.865C0.964,5.87,0.963,5.872,0.962,5.875z M0.409,5.52C0.419,5.474,0.43,5.427,0.44,5.38
		c0.007,0.046,0.012,0.102,0.015,0.163C0.443,5.528,0.426,5.521,0.409,5.52z M-0.016,6.957c0.004,0.042,0.033,0.065,0.065,0.07
		c-0.16,1.005-0.274,2.018-0.446,3.021c-0.004,0.005-0.007,0.01-0.011,0.015c0.063-0.665,0.148-1.33,0.199-1.995
		c0.015-0.196,0.028-0.395,0.036-0.593c0.014-0.085,0.027-0.17,0.038-0.256c0.004-0.032-0.009-0.056-0.028-0.071
		c0-0.016,0-0.03,0-0.045c0.052-0.4,0.112-0.802,0.194-1.196c0,0.001,0,0.003,0.001,0.004C-0.004,6.257-0.046,6.605-0.016,6.957z
		 M-0.827,10.35c-0.018-0.08-0.032-0.162-0.046-0.245c-0.006-0.154-0.012-0.311-0.024-0.464c0.013-0.005,0.024-0.014,0.029-0.026
		c0.166-0.408,0.246-0.828,0.284-1.253c0.029,0.006,0.063-0.008,0.073-0.044c0.02-0.078,0.039-0.156,0.058-0.234
		C-0.582,8.837-0.673,9.6-0.827,10.35z M0.05,5.564C0.055,5.54,0.06,5.516,0.065,5.492C0.064,5.519,0.063,5.544,0.061,5.57
		C0.059,5.567,0.054,5.566,0.05,5.564z M-0.906,9.387c-0.015-0.074-0.027-0.147-0.038-0.22c0-0.66,0.095-1.329,0.232-1.955
		c-0.033,0.311-0.036,0.62,0.032,0.923C-0.705,8.56-0.766,8.979-0.906,9.387z M-1.082,9.344c0.001,0.072,0.003,0.146,0.007,0.216
		c-0.008-0.058-0.016-0.114-0.023-0.171C-1.092,9.375-1.086,9.357-1.082,9.344z M-0.608,10.182c0.005,0.046,0.01,0.092,0.018,0.138
		c-0.029,0.044-0.058,0.089-0.086,0.134C-0.652,10.363-0.63,10.272-0.608,10.182z M-0.307,10.293
		c0.02,0.221,0.052,0.446,0.114,0.656c-0.001,0.002-0.002,0.004-0.003,0.005c-0.073-0.104-0.131-0.217-0.172-0.338
		C-0.348,10.511-0.327,10.401-0.307,10.293z M-0.215,9.982c-0.002-0.019-0.014-0.035-0.029-0.045
		c0.162-0.949,0.275-1.906,0.43-2.857c0,0.033,0.001,0.064,0.001,0.099C0.166,7.437,0.154,7.695,0.145,7.953
		C0.14,8.102,0.137,8.25,0.136,8.399c-0.03,0.362-0.068,0.725-0.097,1.088c-0.056,0.37-0.085,0.755-0.069,1.132
		c-0.022,0.064-0.048,0.127-0.079,0.187C-0.175,10.532-0.192,10.238-0.215,9.982z M-0.008,10.928
		c0.005,0.034,0.01,0.067,0.014,0.104c0.003,0.044,0.007,0.089,0.012,0.135c-0.026-0.053-0.049-0.106-0.069-0.163
		C-0.037,10.978-0.022,10.953-0.008,10.928z M1.244,12.045c0-0.01-0.001-0.019,0-0.026c0.027-0.007,0.053-0.026,0.063-0.058
		c0.006-0.017,0.011-0.031,0.018-0.049c0.002,0.025,0.006,0.051,0.009,0.077C1.304,12.008,1.274,12.025,1.244,12.045z M1.638,11.563
		c0.096-0.601,0.144-1.206,0.181-1.813C1.844,9.625,1.866,9.5,1.885,9.375c-0.028,0.6-0.045,1.197-0.033,1.795
		c-0.023,0.202-0.041,0.404-0.053,0.606c-0.012,0.014-0.02,0.029-0.022,0.053c-0.019,0.221-0.023,0.442-0.043,0.664
		C1.672,12.188,1.645,11.875,1.638,11.563z M2.444,8.293C2.475,8.33,2.551,8.314,2.553,8.252C2.556,8.12,2.565,7.987,2.58,7.856
		c0.019-0.135,0.042-0.271,0.06-0.405C2.724,7,2.86,6.556,3.01,6.119C3.007,6.13,3.004,6.145,3.003,6.156
		C2.98,6.262,2.959,6.367,2.94,6.473C2.839,6.937,2.719,7.397,2.77,7.875c0.001,0.01,0.005,0.02,0.009,0.027
		c-0.055,0.319-0.106,0.64-0.154,0.962C2.581,9.053,2.539,9.24,2.502,9.431c-0.049,0.25-0.11,0.5-0.17,0.748
		c-0.002-0.12-0.005-0.24-0.008-0.359C2.32,9.612,2.317,9.404,2.318,9.196C2.366,8.896,2.41,8.595,2.444,8.293z M3.328,7.825
		C3.262,8.053,3.199,8.281,3.143,8.512C3.13,8.563,3.118,8.614,3.107,8.666C3.146,8.188,3.166,7.709,3.189,7.23
		C3.23,7.107,3.27,6.985,3.307,6.86C3.335,7.182,3.34,7.503,3.328,7.825z M6.17,6.027c0.002,0.104,0,0.209-0.003,0.313
		c-0.063,0.24-0.11,0.48-0.149,0.727c-0.05,0.052-0.093,0.11-0.133,0.171C5.973,6.833,6.066,6.429,6.17,6.027z M6.492,7.266
		C6.574,7.123,6.641,6.977,6.7,6.828c-0.093,0.274-0.173,0.551-0.246,0.83C6.3,7.917,6.191,8.19,6.1,8.473
		C6.177,8.056,6.256,7.64,6.313,7.222c0,0,0,0.001,0,0.002C6.318,7.316,6.443,7.347,6.492,7.266z M6.748,8.442
		c-0.02,0.104-0.04,0.208-0.063,0.313c0.02-0.102,0.039-0.203,0.059-0.305C6.745,8.447,6.747,8.444,6.748,8.442z M6.458,9.909
		C6.479,9.799,6.5,9.69,6.521,9.583C6.533,9.598,6.55,9.606,6.568,9.609C6.536,9.709,6.5,9.811,6.458,9.909z M7.02,9.043
		c0.016-0.082,0.03-0.164,0.045-0.247c0,0.02-0.002,0.037-0.004,0.056C7.048,8.916,7.034,8.979,7.02,9.043z M7.544,7.438
		C7.533,7.423,7.521,7.416,7.506,7.409c0.032-0.078,0.063-0.155,0.092-0.233C7.585,7.263,7.566,7.351,7.544,7.438z M5.891,9.818
		C5.903,9.76,5.913,9.703,5.924,9.646C5.925,9.64,5.926,9.635,5.928,9.629c-0.021,0.146-0.035,0.292-0.035,0.44
		c0,0.008,0,0.016,0.002,0.023c-0.013,0.049-0.024,0.099-0.037,0.146C5.865,10.101,5.876,9.958,5.891,9.818z M4.389,11.859
		c0.02-0.087,0.041-0.173,0.061-0.261c0.007-0.028-0.008-0.051-0.028-0.063c0.038-0.188,0.099-0.376,0.146-0.561
		c0.015-0.043,0.029-0.087,0.043-0.13c-0.028,0.241-0.057,0.483-0.063,0.729c-0.025,0.122-0.052,0.244-0.084,0.364
		c-0.023,0.009-0.046,0.017-0.07,0.022C4.391,11.928,4.387,11.894,4.389,11.859z M4.021,11.947C4.012,11.871,4.005,11.795,4,11.719
		c0.016-0.044,0.029-0.09,0.044-0.137c-0.003,0.015-0.007,0.028-0.01,0.042c-0.015,0.064,0.028,0.108,0.077,0.119
		c-0.022,0.057-0.045,0.114-0.068,0.172C4.035,11.924,4.027,11.937,4.021,11.947z M4.878,9.704c0.063-0.456,0.16-0.907,0.261-1.356
		C5.083,8.803,5.012,9.265,4.878,9.704z M4.704,10.007c-0.015,0.011-0.024,0.024-0.03,0.046c-0.037,0.147-0.078,0.294-0.121,0.439
		c-0.023,0.042-0.047,0.082-0.072,0.122c0.117-0.486,0.232-0.973,0.349-1.459C4.775,9.438,4.73,9.723,4.704,10.007z M4.238,10.756
		c-0.018-0.044-0.031-0.089-0.045-0.135c0.019-0.009,0.033-0.021,0.041-0.042c0.052-0.146,0.103-0.297,0.152-0.447
		C4.336,10.34,4.287,10.549,4.238,10.756z M4.131,10.988c-0.061,0.094-0.109,0.2-0.152,0.31c-0.002-0.171,0-0.533,0.02-0.693
		C4.033,10.735,4.077,10.864,4.131,10.988z M4.8,10.572c0.068-0.115,0.13-0.237,0.188-0.361c-0.002,0.074-0.002,0.148,0,0.223
		c-0.03-0.015-0.07-0.01-0.092,0.026c-0.041,0.071-0.076,0.146-0.107,0.22C4.793,10.645,4.796,10.608,4.8,10.572z M5.344,10.463
		c-0.001-0.041-0.037-0.064-0.072-0.064c0.125-0.569,0.24-1.147,0.33-1.729c0.07-0.375,0.143-0.747,0.219-1.121
		c0.047-0.111,0.103-0.226,0.173-0.323c-0.046,0.314-0.08,0.63-0.112,0.942C5.874,8.252,5.865,8.335,5.857,8.419
		c-0.213,0.676-0.45,1.346-0.401,2.058c0.002,0.021,0.013,0.041,0.028,0.053C5.443,10.646,5.4,10.76,5.349,10.872
		C5.352,10.736,5.352,10.6,5.344,10.463z M5.654,9.903c-0.014,0.068-0.029,0.136-0.047,0.204c0.015-0.212,0.05-0.422,0.098-0.63
		C5.686,9.62,5.669,9.762,5.654,9.903z M6.631,7.88C6.596,8.094,6.557,8.305,6.516,8.517C6.491,8.571,6.468,8.625,6.443,8.681
		C6.502,8.413,6.564,8.146,6.631,7.88z M5.337,8.874c-0.026,0.092-0.052,0.183-0.08,0.273c0.062-0.492,0.153-0.983,0.25-1.475
		C5.479,7.959,5.443,8.247,5.4,8.534C5.379,8.647,5.357,8.761,5.337,8.874z M5.529,6.587C5.525,6.596,5.523,6.603,5.52,6.608
		c0.008-0.055,0.017-0.11,0.024-0.166c0.009-0.028,0.017-0.055,0.024-0.083l0,0C5.557,6.437,5.543,6.513,5.529,6.587z M4.204,10.278
		C4.132,9.029,4.914,7.89,4.949,6.651c0.006,0,0.012,0.001,0.019,0.001C4.908,7.503,4.77,8.354,4.596,9.194
		C4.469,9.559,4.34,9.919,4.204,10.278z M4.848,6.361c0.057,0.828-0.291,1.607-0.545,2.396c0.168-0.787,0.33-1.577,0.52-2.361
		C4.83,6.386,4.839,6.374,4.848,6.361z M4.157,8.566C4.169,8.479,4.18,8.394,4.191,8.31c0.045-0.336,0.104-0.67,0.168-1.004
		C4.402,7.188,4.45,7.07,4.502,6.958C4.382,7.493,4.27,8.029,4.157,8.566z M3.827,10.083c0.009-0.063,0.019-0.129,0.028-0.192
		C3.866,9.811,3.878,9.73,3.893,9.65c0,0.047,0,0.093,0.002,0.141C3.872,9.887,3.85,9.985,3.827,10.083z M3.585,9.745
		c-0.067,0.295-0.144,0.594-0.265,0.872c0.033-0.31,0.06-0.62,0.09-0.924C3.475,9.049,3.624,8.43,3.743,7.795
		c0.062-0.327,0.12-0.655,0.183-0.982c0.026-0.073,0.053-0.146,0.08-0.218C3.951,7.65,3.736,8.694,3.585,9.745z M2.971,11.865
		c0.031-0.331,0.074-0.662,0.123-0.993c0.006,0.034,0.014,0.068,0.021,0.103c-0.036,0.294-0.08,0.588-0.139,0.877
		C2.974,11.856,2.973,11.861,2.971,11.865z M3.628,7.25C3.586,7.437,3.542,7.622,3.497,7.808C3.5,7.749,3.501,7.692,3.502,7.635
		C3.542,7.505,3.584,7.376,3.628,7.25z M2.755,12.649c-0.002,0.005-0.004,0.011-0.006,0.017c-0.013-0.186-0.022-0.369-0.027-0.556
		c0.087-0.407,0.174-0.813,0.128-1.226c0.017-0.23,0.027-0.46,0.036-0.688c0.168-0.484,0.239-1,0.342-1.5
		c0.019-0.085,0.037-0.168,0.056-0.252C3.146,9.841,2.772,11.247,2.755,12.649z M2.332,10.909c0.005-0.147,0.005-0.297,0.004-0.445
		c0.055-0.262,0.116-0.522,0.169-0.783C2.447,10.089,2.391,10.5,2.332,10.909z M2.351,11.905c0.028-0.181,0.055-0.361,0.082-0.543
		c0.035,0.01,0.074-0.005,0.082-0.053c0.018-0.122,0.034-0.246,0.051-0.367c-0.003,0.078-0.007,0.156-0.01,0.236
		c-0.15,0.547-0.159,1.12-0.23,1.688c-0.005,0.016-0.011,0.03-0.016,0.045C2.321,12.576,2.346,12.242,2.351,11.905z M3.208,6.868
		C3.211,6.83,3.212,6.792,3.215,6.754c0.004-0.032,0.01-0.065,0.012-0.099c0.004-0.011,0.006-0.023,0.01-0.035
		c0-0.008,0-0.014,0-0.021c0.006-0.05,0.012-0.101,0.019-0.149C3.265,6.51,3.275,6.568,3.28,6.628
		C3.257,6.709,3.232,6.789,3.208,6.868z M3.18,6.172c0.002-0.019,0.008-0.037,0.012-0.057C3.196,6.136,3.2,6.154,3.205,6.174
		C3.195,6.172,3.186,6.172,3.18,6.172z M2.164,10.128c0,0.303-0.005,0.604-0.021,0.906c-0.052,0.3-0.087,0.603-0.083,0.911
		C2.061,12,2.111,12.022,2.153,12.013C2.13,12.14,2.11,12.267,2.089,12.395c-0.042-0.407-0.065-0.813-0.073-1.221
		C2.054,10.827,2.107,10.478,2.164,10.128z M2.068,13.221c0.014-0.047,0.026-0.09,0.039-0.135c0.016-0.002,0.03-0.01,0.042-0.022
		c-0.004,0.088-0.005,0.176-0.005,0.265c-0.024,0.055-0.049,0.108-0.076,0.16c-0.015-0.072-0.027-0.146-0.04-0.219
		C2.046,13.258,2.062,13.242,2.068,13.221z M2.611,13.032c0.004,0.04,0.036,0.07,0.072,0.079c-0.024,0.077-0.051,0.154-0.081,0.229
		c-0.02-0.159-0.02-0.317-0.007-0.479C2.6,12.918,2.605,12.976,2.611,13.032z M3.285,10.954c0.082-0.14,0.148-0.288,0.203-0.438
		c0,0.016-0.002,0.033-0.004,0.05c-0.073,0.144-0.143,0.291-0.205,0.438C3.281,10.986,3.283,10.971,3.285,10.954z M3.434,11.453
		c-0.021,0.11-0.041,0.22-0.063,0.329c0.004-0.114,0.016-0.224,0.027-0.328c0.012-0.093,0.025-0.187,0.043-0.281
		C3.438,11.267,3.436,11.359,3.434,11.453z M3.841,10.953c-0.001-0.019-0.017-0.032-0.034-0.035
		c0.049-0.186,0.094-0.373,0.139-0.558c0.008,0.043,0.016,0.086,0.025,0.13c-0.094,0.056-0.115,0.468-0.117,0.501
		c-0.008,0.219-0.012,0.448,0,0.675c-0.047,0.149-0.095,0.299-0.153,0.438C3.723,11.719,3.846,11.34,3.841,10.953z M3.755,12.332
		c0.052-0.096,0.095-0.195,0.132-0.299c0.004,0.029,0.008,0.061,0.014,0.088C3.852,12.192,3.805,12.263,3.755,12.332z M4.417,12.097
		c-0.002-0.009-0.003-0.015-0.005-0.021c0.005-0.003,0.008-0.004,0.014-0.005C4.422,12.08,4.418,12.088,4.417,12.097z M5.204,10.786
		c0,0.018-0.001,0.035-0.001,0.052C5.202,10.825,5.2,10.814,5.199,10.8C5.201,10.793,5.203,10.79,5.204,10.786z M7.409,8.303
		C7.41,8.291,7.413,8.281,7.415,8.271c0.004,0.001,0.008,0,0.011,0c0,0.004,0,0.009,0,0.014C7.42,8.29,7.415,8.295,7.409,8.303z
		 M7.402,6.254c0,0.054-0.004,0.106-0.01,0.159C7.374,6.398,7.352,6.391,7.329,6.39C7.352,6.341,7.376,6.298,7.402,6.254z
		 M7.027,7.219C6.984,7.447,6.948,7.683,6.913,7.917c-0.026-0.004-0.054,0-0.077,0.019c0.007-0.046,0.016-0.093,0.023-0.14
		C6.88,7.67,6.9,7.542,6.919,7.415c0.04-0.076,0.075-0.153,0.106-0.231C7.025,7.193,7.027,7.207,7.027,7.219z M6.382,6.545
		c0.005-0.084,0.011-0.169,0.013-0.254c0.027-0.098,0.059-0.193,0.092-0.29C6.458,6.184,6.418,6.364,6.382,6.545z M5.785,6.659
		c0.001-0.09,0.002-0.18,0.001-0.269c0.071-0.221,0.138-0.442,0.228-0.648C5.932,6.045,5.855,6.352,5.785,6.659z M5.344,6.073
		c-0.07,0.3-0.141,0.599-0.212,0.898C5.148,6.785,5.161,6.598,5.171,6.41C5.236,6.304,5.292,6.188,5.344,6.073z M4.906,6.197
		c-0.01-0.007-0.021-0.01-0.033-0.008c0.04-0.162,0.081-0.324,0.125-0.483c0,0.018,0,0.034,0,0.051
		C4.964,5.904,4.93,6.05,4.906,6.197z M4.553,5.208c-0.057,0.394-0.219,0.774-0.229,1.17C4.238,6.805,4.162,7.23,4.084,7.656
		c-0.007,0.04-0.016,0.079-0.021,0.119C4.139,7.214,4.192,6.655,4.19,6.09C4.3,5.792,4.418,5.496,4.553,5.208z M4.113,5.289
		c-0.002,0.078-0.01,0.156-0.021,0.233C4.055,5.519,4.016,5.539,4.005,5.584C3.934,5.89,3.87,6.193,3.811,6.5
		C3.796,6.502,3.785,6.512,3.777,6.528c-0.1,0.246-0.19,0.494-0.276,0.745c-0.002-0.09-0.005-0.179-0.013-0.27
		C3.714,6.439,3.791,5.806,4.113,5.289z M3.428,6.435c0.021-0.077,0.043-0.153,0.065-0.228C3.473,6.299,3.454,6.395,3.438,6.49
		C3.434,6.472,3.432,6.454,3.428,6.435z M3.042,5.603C2.891,6.027,2.741,6.458,2.627,6.896C2.62,6.88,2.611,6.864,2.601,6.851
		C2.567,6.799,2.487,6.849,2.521,6.9c0.038,0.055,0.053,0.126,0.056,0.202c-0.026,0.113-0.049,0.226-0.069,0.34
		c0.009-0.299,0.001-0.598-0.026-0.897C2.625,6.19,2.805,5.875,3.042,5.603z M2.299,6.411C2.306,6.462,2.31,6.516,2.315,6.568
		c-0.016,0.068-0.029,0.137-0.04,0.206C2.269,6.819,2.303,6.846,2.336,6.841c0.012,0.241,0.011,0.481,0,0.723
		c-0.128,0.51-0.164,1.037-0.172,1.563C2.118,9.419,2.068,9.71,2.021,10.002c0.033-1.129,0.128-2.261,0.165-3.387
		C2.221,6.546,2.259,6.478,2.299,6.411z M1.94,6.604C1.925,6.688,1.912,6.771,1.898,6.856C1.893,6.874,1.886,6.891,1.879,6.91
		C1.877,6.888,1.875,6.865,1.873,6.845c-0.009-0.089-0.14-0.11-0.16-0.017c-0.121,0.58-0.155,1.177-0.261,1.761
		c0-0.813,0.05-1.62,0.107-2.436C1.562,6.104,1.52,6.084,1.482,6.091c0.004-0.04,0.006-0.079,0.011-0.119
		c0.01-0.094-0.13-0.131-0.146-0.034C1.303,6.21,1.265,6.481,1.233,6.754c-0.028-0.459-0.097-0.913-0.234-1.36
		C1.404,5.715,1.735,6.132,1.94,6.604z M0.752,5.219C0.687,5.297,0.63,5.382,0.582,5.473C0.568,5.39,0.55,5.306,0.527,5.223
		C0.521,5.203,0.502,5.184,0.482,5.18c-0.017-0.002-0.033-0.007-0.05-0.01c-0.03-0.005-0.065,0.013-0.071,0.045
		C0.311,5.5,0.265,5.789,0.208,6.076c-0.006-0.033-0.013-0.065-0.02-0.098c0.033-0.35,0.059-0.696,0-1.045
		c0-0.004-0.002-0.005-0.003-0.009C0.382,5.001,0.573,5.102,0.752,5.219z M0.097,4.892C0.077,4.9,0.061,4.914,0.056,4.937
		C-0.01,5.25-0.06,5.573-0.107,5.896c-0.03,0.147-0.056,0.297-0.081,0.447C-0.214,6.028-0.26,5.716-0.337,5.411
		c0.001-0.074-0.001-0.148-0.006-0.223c-0.002-0.041-0.04-0.058-0.071-0.051C-0.416,5.13-0.417,5.125-0.42,5.12
		c-0.018-0.058-0.104-0.057-0.117,0.003c-0.13,0.576-0.135,1.168-0.13,1.764C-0.672,6.92-0.679,6.955-0.684,6.99
		C-0.711,6.956-0.777,6.955-0.79,7.011c-0.057,0.24-0.113,0.479-0.171,0.72c0.054-0.648,0.15-1.299,0.142-1.946
		c0.007-0.152,0.004-0.304-0.017-0.457c-0.002-0.01-0.006-0.02-0.012-0.029c-0.011-0.091-0.024-0.183-0.041-0.274l0,0l0,0
		c0-0.005-0.001-0.01-0.002-0.015C-0.903,4.941-0.995,4.972-1,5.028c0,0.005,0,0.01-0.001,0.015
		C-1.003,5.011-1.003,4.975-1.004,4.94c0-0.009-0.015-0.011-0.016-0.001c-0.027,0.25-0.038,0.501-0.048,0.754
		c-0.067,0.232-0.13,0.465-0.191,0.699c0.044-0.549,0.101-1.099,0.101-1.65C-0.73,4.69-0.303,4.749,0.097,4.892z M-2.312,5.11
		c-0.063,0.2-0.118,0.403-0.167,0.604C-2.5,5.719-2.523,5.73-2.528,5.757c-0.038,0.167-0.06,0.337-0.071,0.508
		c-0.054,0.194-0.088,0.396-0.108,0.601c-0.048,0.283-0.095,0.567-0.145,0.849c0.024-0.762,0.015-1.524,0.068-2.285
		C-2.639,5.309-2.479,5.202-2.312,5.11z M-2.845,9.371c-0.518-0.798-0.888-1.805-0.68-2.762c0.091-0.427,0.32-0.788,0.627-1.077
		C-2.92,5.639-2.94,5.745-2.959,5.852C-3.225,6.149-3.189,6.804-3.19,7.14c0,0.082,0,0.168,0.001,0.255
		c-0.012,0.079-0.023,0.158-0.037,0.238c-0.045-0.507-0.007-1.013,0.019-1.52c0.003-0.057-0.085-0.063-0.096-0.01
		c-0.083,0.372-0.135,0.75-0.149,1.131c0,0.01,0,0.019,0,0.029C-3.461,7.379-3.47,7.496-3.483,7.611
		C-3.485,7.626-3.479,7.64-3.464,7.644c0.017,0.004,0.033,0.009,0.049,0.014c0.017,0.004,0.035-0.011,0.034-0.029
		c-0.008-0.22,0-0.436,0.022-0.651c-0.006,0.34,0.01,0.682,0.076,1.019c0.01,0.05,0.092,0.047,0.1-0.003
		c0.006-0.037,0.011-0.075,0.017-0.111c0.033,0.366,0.108,0.735,0.278,1.028c0.019,0.031,0.071,0.03,0.088-0.004
		c0.068-0.137,0.119-0.279,0.159-0.422c0.012,0.074,0.023,0.15,0.035,0.222c0.002,0.017,0.01,0.027,0.02,0.035
		C-2.59,9.021-2.588,9.299-2.572,9.578c0.003,0.056,0.078,0.075,0.104,0.025c0.049-0.087,0.092-0.179,0.132-0.271
		c0.012,0.291,0.035,0.593,0.134,0.867C-2.439,9.942-2.653,9.664-2.845,9.371z M-1.837,10.561c-0.036-0.033-0.071-0.067-0.107-0.101
		c0-0.001,0-0.001,0.001-0.002c0.048-0.151,0.084-0.307,0.112-0.462c0.023,0.095,0.05,0.19,0.082,0.284
		c0.009,0.026,0.028,0.037,0.048,0.039c0.04,0.094,0.1,0.168,0.192,0.2c0.023,0.007,0.056-0.007,0.064-0.029
		c0.115-0.271,0.185-0.557,0.237-0.845c0.004-0.01,0.009-0.021,0.014-0.031c0.052,0.333,0.136,0.66,0.259,0.983
		c0.009,0.085,0.021,0.169,0.037,0.254c0.01,0.051,0.079,0.047,0.102,0.01c0.074-0.115,0.146-0.232,0.22-0.348
		c-0.017,0.213-0.031,0.426-0.04,0.64c-0.003,0.076,0.114,0.083,0.129,0.013c0.023-0.101,0.046-0.202,0.067-0.302
		c0.048,0.095,0.104,0.186,0.174,0.271c0.023,0.029,0.082,0.026,0.105-0.003c0.002-0.003,0.005-0.006,0.008-0.011
		c0.046,0.117,0.107,0.227,0.183,0.323c0.009,0.028,0.031,0.049,0.057,0.057c0.034,0.116,0.076,0.23,0.124,0.339
		c0.027,0.063,0.099,0.07,0.138,0.017c0.14-0.199,0.219-0.415,0.265-0.642c0.045,0.229,0.101,0.456,0.198,0.67
		c0.018,0.125,0.04,0.251,0.071,0.377c0.019,0.076,0.141,0.072,0.155-0.006c0.014-0.075,0.027-0.151,0.04-0.229
		c-0.001,0.05,0.001,0.101,0.004,0.151c0.004,0.056,0.065,0.091,0.114,0.063c0.047-0.028,0.094-0.058,0.14-0.086
		c0.017,0.125,0.038,0.251,0.062,0.378c0.008,0.045,0.059,0.057,0.095,0.041c0.027,0.028,0.059,0.047,0.09,0.04
		c0.022,0.101,0.048,0.199,0.08,0.298c0.019,0.061,0.1,0.069,0.134,0.023c0.02,0.206,0.05,0.41,0.092,0.613
		c-0.641-0.854-1.538-1.479-2.427-2.065C-0.971,11.185-1.432,10.921-1.837,10.561z M2.931,12.658
		c0.124-0.361,0.209-0.738,0.272-1.12c0.025-0.076,0.053-0.149,0.081-0.226c-0.015,0.08-0.025,0.158-0.035,0.236
		c-0.019,0.169-0.028,0.354-0.011,0.534c-0.107,0.248-0.201,0.5-0.261,0.769c-0.002,0.008,0.011,0.011,0.014,0.002
		c0.067-0.235,0.157-0.461,0.258-0.683c0.005,0.031,0.011,0.062,0.019,0.091c-0.086,0.358-0.188,0.716-0.313,1.063
		C2.935,13.104,2.929,12.881,2.931,12.658z M3.359,13.201c-0.088,0.077-0.176,0.158-0.262,0.242
		c0.107-0.293,0.199-0.595,0.277-0.898c0.014,0.023,0.027,0.045,0.043,0.067c0.03,0.04,0.081,0.048,0.117,0.013
		c0.031-0.028,0.063-0.063,0.089-0.098c0,0.004,0.001,0.008,0.002,0.012c0.007,0.037,0.063,0.049,0.087,0.021
		c0.077-0.094,0.146-0.191,0.217-0.292c0.025,0.044,0.104,0.046,0.127-0.004c0.055-0.129,0.109-0.261,0.164-0.392
		c0,0.049,0,0.097,0.008,0.144c-0.002,0.007-0.004,0.014-0.006,0.021c-0.005,0.022,0.004,0.043,0.019,0.058
		c0.021,0.094,0.054,0.188,0.106,0.278c0.008,0.015,0.019,0.021,0.028,0.029C4.029,12.658,3.686,12.916,3.359,13.201z M4.916,12.004
		c-0.133,0.102-0.266,0.197-0.4,0.297c0.035-0.103,0.063-0.204,0.088-0.309c0.07-0.048,0.127-0.109,0.148-0.197
		c0.012-0.043-0.053-0.067-0.074-0.027c-0.011,0.021-0.023,0.041-0.039,0.057c0.008-0.035,0.016-0.072,0.021-0.108
		c0.008-0.004,0.015-0.009,0.021-0.018c0.036-0.047,0.067-0.096,0.096-0.146c0.004,0.009,0.007,0.02,0.011,0.027
		c0.021,0.048,0.103,0.078,0.133,0.023c0.002,0.009,0.003,0.019,0.006,0.027c0.021,0.084,0.165,0.063,0.152-0.025
		c-0.017-0.103-0.021-0.203-0.024-0.306c0-0.001,0.002-0.002,0.002-0.003c0.006,0.045,0.014,0.091,0.021,0.136
		c0.009,0.053,0.052,0.072,0.095,0.068c-0.001,0.05-0.003,0.103-0.003,0.153c0,0.062,0.057,0.086,0.104,0.074
		C5.156,11.821,5.035,11.914,4.916,12.004z M7.865,8.444c-0.19,0.578-0.496,1.105-0.868,1.59c0.071-0.211,0.132-0.425,0.187-0.641
		c0.037-0.008,0.07-0.036,0.082-0.081c0.049-0.207,0.092-0.431,0.18-0.629C7.488,8.792,7.677,8.774,7.669,8.64
		C7.665,8.575,7.662,8.512,7.662,8.448C7.81,7.953,8.014,7.483,7.993,6.954C7.99,6.881,7.891,6.86,7.854,6.922
		C7.831,6.964,7.809,7.008,7.787,7.054c0.006-0.13-0.004-0.258-0.039-0.384C7.727,6.591,7.609,6.599,7.593,6.674
		c-0.032,0.14-0.073,0.274-0.12,0.407c0.002-0.083,0-0.165-0.002-0.247c0.07-0.266,0.12-0.534,0.078-0.813
		C7.54,5.958,7.46,5.911,7.41,5.969C7.281,6.118,7.191,6.286,7.116,6.461C7.113,6.453,7.109,6.442,7.105,6.436
		C7.154,6.13,7.183,5.824,7.15,5.516C7.144,5.446,7.033,5.4,7.001,5.48C6.994,5.498,6.986,5.516,6.98,5.535
		C6.958,5.391,6.927,5.248,6.885,5.108c-0.027-0.09-0.146-0.094-0.191-0.021C6.669,5.125,6.646,5.165,6.625,5.203
		C6.604,5.123,6.574,5.045,6.537,4.97c-0.02-0.036-0.078-0.051-0.111-0.026C6.165,5.137,6,5.401,5.87,5.692
		c0.036-0.259,0.063-0.52,0.08-0.778c0.006-0.095-0.146-0.131-0.185-0.043C5.754,4.901,5.742,4.934,5.73,4.963
		C5.704,4.964,5.68,4.979,5.661,5.005C5.451,5.318,5.338,5.68,5.184,6.02c0.002-0.121,0.002-0.243,0-0.364
		c0.053-0.243,0.101-0.488,0.094-0.738C5.275,4.833,5.166,4.813,5.125,4.88C5.1,4.924,5.074,4.971,5.049,5.016
		c-0.031,0.007-0.061,0.027-0.07,0.065C4.962,5.138,4.945,5.192,4.93,5.249C4.807,5.511,4.704,5.781,4.598,6.05
		c0.024-0.143,0.049-0.283,0.07-0.427C4.674,5.586,4.661,5.56,4.641,5.54c0.058-0.231,0.105-0.464,0.086-0.703
		C4.721,4.762,4.615,4.729,4.578,4.8c-0.13,0.246-0.242,0.499-0.346,0.755C4.25,5.4,4.255,5.244,4.238,5.085
		C4.23,5.02,4.154,5.006,4.117,5.058c-0.318,0.44-0.43,0.967-0.583,1.478C3.627,6.024,3.742,5.518,3.928,5.03
		c0.014-0.037-0.023-0.063-0.057-0.058c0.627-0.31,1.363-0.385,2.047-0.256C6.616,4.848,7.271,5.221,7.68,5.812
		C8.215,6.588,8.148,7.584,7.865,8.444z"/>
</g>
<g display="none">
	
		<circle display="inline" fill="none" stroke="#38424A" stroke-width="1.5" stroke-miterlimit="10" cx="31.631" cy="10.967" r="9.656"/>
	<path display="inline" fill="#38424A" d="M46.668,25.906c-0.292,0.293-0.686,0.377-0.874,0.188l-7.739-7.741
		c-0.191-0.188-0.106-0.58,0.187-0.873l0,0c0.293-0.293,0.685-0.377,0.872-0.188l7.742,7.742
		C47.045,25.223,46.961,25.613,46.668,25.906L46.668,25.906z"/>
</g>
</svg>
